<?xml version="1.0" encoding="utf-8"?>
<!-- Generator: Adobe Illustrator 27.3.1, SVG Export Plug-In . SVG Version: 6.00 Build 0)  -->
<svg version="1.1" id="Layer_1" xmlns="http://www.w3.org/2000/svg" xmlns:xlink="http://www.w3.org/1999/xlink" x="0px" y="0px"
	 viewBox="0 0 32 32" style="enable-background:new 0 0 32 32;" xml:space="preserve">
<style type="text/css">
	.st0{fill:url(#SVGID_1_);}
	.st1{fill:url(#SVGID_00000013193828598833227160000002728408788818250140_);}
	.st2{fill:url(#SVGID_00000068639359685524197180000003617359519319314070_);}
	.st3{fill:url(#SVGID_00000025410256995507446920000015431166970936400315_);}
	.st4{fill:url(#SVGID_00000125578038591496636030000009009350731712795324_);}
	.st5{fill:url(#SVGID_00000093166607834708744480000003499763900724166533_);}
	.st6{fill:none;stroke:url(#SVGID_00000059281444565920243930000013252372288905324474_);stroke-width:1.5;}
	.st7{fill:#A59CB4;}
	.st8{fill:#A49AB3;}
	.st9{fill:#2F99F4;}
</style>
<g>
	
		<linearGradient id="SVGID_1_" gradientUnits="userSpaceOnUse" x1="3.5831" y1="18" x2="29.8414" y2="18" gradientTransform="matrix(1 0 0 -1 0 34)">
		<stop  offset="0" style="stop-color:#E1D4EF"/>
		<stop  offset="1" style="stop-color:#E1D3EF"/>
	</linearGradient>
	<path class="st0" d="M6,0h20c3.3,0,6,2.7,6,6v20c0,3.3-2.7,6-6,6H6c-3.3,0-6-2.7-6-6V6C0,2.7,2.7,0,6,0z"/>
</g>
<linearGradient id="SVGID_00000182521514737431013410000001380517774443409327_" gradientUnits="userSpaceOnUse" x1="16.0236" y1="2" x2="16.0236" y2="3.6278" gradientTransform="matrix(1 0 0 -1 0 34)">
	<stop  offset="0" style="stop-color:#CE9AF8"/>
	<stop  offset="1" style="stop-color:#DFC0FC;stop-opacity:0"/>
</linearGradient>
<path style="fill:url(#SVGID_00000182521514737431013410000001380517774443409327_);" d="M6,0h20c3.3,0,6,2.7,6,6v20
	c0,3.3-2.7,6-6,6H6c-3.3,0-6-2.7-6-6V6C0,2.7,2.7,0,6,0z"/>
<linearGradient id="SVGID_00000084518240774684144880000003537104358812541574_" gradientUnits="userSpaceOnUse" x1="-0.3521" y1="29.9933" x2="29.6267" y2="29.9933" gradientTransform="matrix(1 0 0 -1 0 34)">
	<stop  offset="0" style="stop-color:#377AF3"/>
	<stop  offset="0.7942" style="stop-color:#2EA6FF"/>
</linearGradient>
<path style="fill:url(#SVGID_00000084518240774684144880000003537104358812541574_);" d="M32,8H0V6c0-3.3,2.7-6,6-6h20
	c3.3,0,6,2.7,6,6V8z"/>
<linearGradient id="SVGID_00000149363574639315859840000001794842873923137172_" gradientUnits="userSpaceOnUse" x1="16.0236" y1="34" x2="16.0236" y2="31.7462" gradientTransform="matrix(1 0 0 -1 0 34)">
	<stop  offset="0" style="stop-color:#2D9EEE"/>
	<stop  offset="1" style="stop-color:#2D9EEE;stop-opacity:0"/>
</linearGradient>
<path style="fill:url(#SVGID_00000149363574639315859840000001794842873923137172_);" d="M32,8H0V6c0-3.3,2.7-6,6-6h20
	c3.3,0,6,2.7,6,6V8z"/>
<radialGradient id="SVGID_00000170251166841015582710000015159409089246915517_" cx="-252.8743" cy="289.9142" r="1.1448" gradientTransform="matrix(-19.7103 -3.4999 -1.9887 11.1995 -4385.0869 -4123.9258)" gradientUnits="userSpaceOnUse">
	<stop  offset="0.7588" style="stop-color:#3955E1;stop-opacity:0"/>
	<stop  offset="0.9868" style="stop-color:#3D41A8"/>
</radialGradient>
<path style="fill:url(#SVGID_00000170251166841015582710000015159409089246915517_);" d="M32,8H0V6c0-3.3,2.7-6,6-6h20
	c3.3,0,6,2.7,6,6V8z"/>
<linearGradient id="SVGID_00000114057886138227556610000005285157687618889129_" gradientUnits="userSpaceOnUse" x1="16.0236" y1="25.0207" x2="16.0236" y2="26.7378" gradientTransform="matrix(1 0 0 -1 0 34)">
	<stop  offset="0" style="stop-color:#3867D5"/>
	<stop  offset="1" style="stop-color:#3867D5;stop-opacity:0"/>
</linearGradient>
<path style="fill:url(#SVGID_00000114057886138227556610000005285157687618889129_);" d="M32,8H0V6c0-3.3,2.7-6,6-6h20
	c3.3,0,6,2.7,6,6V8z"/>
<g>
	
		<radialGradient id="SVGID_00000086665572097483320200000016276466763492092062_" cx="-249.4162" cy="295.141" r="1.0763" gradientTransform="matrix(-8.9688 4.617 6.6389 12.8964 -4163.9321 -2653.1462)" gradientUnits="userSpaceOnUse">
		<stop  offset="0" style="stop-color:#55D9FF"/>
		<stop  offset="1" style="stop-color:#55D9FF;stop-opacity:0"/>
	</radialGradient>
	<path style="fill:none;stroke:url(#SVGID_00000086665572097483320200000016276466763492092062_);stroke-width:1.5;" d="M30.9,7.2
		c0-3.3-1.4-6-6-6H13.3"/>
</g>
<g>
	<path class="st7" d="M6.7,11.4H10c0.1,0,0.1,0.1,0.1,0.1v3.3c0,0.1-0.1,0.1-0.1,0.1H6.7c-0.1,0-0.1-0.1-0.1-0.1v-3.3
		C6.6,11.4,6.7,11.4,6.7,11.4z"/>
</g>
<g>
	<path class="st7" d="M14.4,11.4h3.3c0.1,0,0.1,0.1,0.1,0.1v3.3c0,0.1-0.1,0.1-0.1,0.1h-3.3c-0.1,0-0.1-0.1-0.1-0.1v-3.3
		C14.3,11.4,14.3,11.4,14.4,11.4z"/>
</g>
<g>
	<path class="st7" d="M22,11.4h3.3c0.1,0,0.1,0.1,0.1,0.1v3.3c0,0.1-0.1,0.1-0.1,0.1H22c-0.1,0-0.1-0.1-0.1-0.1v-3.3
		C21.9,11.4,22,11.4,22,11.4z"/>
</g>
<g>
	<path class="st7" d="M6.7,17.6H10c0.1,0,0.1,0.1,0.1,0.1v3.3c0,0.1-0.1,0.1-0.1,0.1H6.7c-0.1,0-0.1-0.1-0.1-0.1v-3.3
		C6.6,17.7,6.7,17.6,6.7,17.6z"/>
</g>
<g>
	<path class="st7" d="M6.7,23.9H10c0.1,0,0.1,0.1,0.1,0.1v3.3c0,0.1-0.1,0.1-0.1,0.1H6.7c-0.1,0-0.1-0.1-0.1-0.1V24
		C6.6,23.9,6.7,23.9,6.7,23.9z"/>
</g>
<g>
	<path class="st7" d="M14.4,17.6h3.3c0.1,0,0.1,0.1,0.1,0.1v3.3c0,0.1-0.1,0.1-0.1,0.1h-3.3c-0.1,0-0.1-0.1-0.1-0.1v-3.3
		C14.3,17.7,14.3,17.6,14.4,17.6z"/>
</g>
<g>
	<path class="st7" d="M14.4,23.9h3.3c0.1,0,0.1,0.1,0.1,0.1v3.3c0,0.1-0.1,0.1-0.1,0.1h-3.3c-0.1,0-0.1-0.1-0.1-0.1V24
		C14.3,23.9,14.3,23.9,14.4,23.9z"/>
</g>
<path class="st8" d="M22,17.6h3.3c0.1,0,0.1,0.1,0.1,0.1v3.3c0,0.1-0.1,0.1-0.1,0.1H22c-0.1,0-0.1-0.1-0.1-0.1v-3.3
	C21.9,17.7,22,17.6,22,17.6z"/>
<g>
	<path class="st9" d="M22,17.6h3.3c0.1,0,0.1,0.1,0.1,0.1v3.3c0,0.1-0.1,0.1-0.1,0.1H22c-0.1,0-0.1-0.1-0.1-0.1v-3.3
		C21.9,17.7,22,17.6,22,17.6z"/>
</g>
<g>
	<path class="st7" d="M22,23.9h3.3c0.1,0,0.1,0.1,0.1,0.1v3.3c0,0.1-0.1,0.1-0.1,0.1H22c-0.1,0-0.1-0.1-0.1-0.1V24
		C21.9,23.9,22,23.9,22,23.9z"/>
</g>
</svg>
