<?xml version="1.0" encoding="utf-8"?>
<!-- Generator: Adobe Illustrator 27.3.1, SVG Export Plug-In . SVG Version: 6.00 Build 0)  -->
<svg version="1.1" id="Layer_1" xmlns="http://www.w3.org/2000/svg" xmlns:xlink="http://www.w3.org/1999/xlink" x="0px" y="0px"
	 viewBox="0 0 32 32" style="enable-background:new 0 0 32 32;" xml:space="preserve">
<style type="text/css">
	.st0{fill:url(#SVGID_1_);}
	.st1{fill:url(#SVGID_00000041276553260683466280000017207554848297446293_);}
	.st2{fill:url(#SVGID_00000078039406423609472360000012799842581654965418_);}
	.st3{fill:url(#SVGID_00000075138779772099598310000005417863501757540026_);}
	.st4{fill:url(#SVGID_00000000206436552509059820000008579341701264543167_);}
	.st5{fill:url(#SVGID_00000142144940240567644660000014032823619940788884_);}
	.st6{fill:url(#SVGID_00000156587035651077924070000015752756717643132328_);}
	.st7{fill:url(#SVGID_00000145018324853041806800000002996392754771876235_);}
	.st8{fill:url(#SVGID_00000127040991480085750800000016010798064148763268_);}
	.st9{fill:url(#SVGID_00000159433457523621227190000010832749719693762450_);}
	.st10{fill:url(#SVGID_00000036953771627805710220000009356497211851005623_);}
	.st11{fill:url(#SVGID_00000012436369826894147370000010676307706761806771_);}
	.st12{fill:url(#SVGID_00000164482486559355203880000003010243322024922010_);}
	.st13{fill:url(#SVGID_00000158729787671641247660000017183089889074985631_);}
	.st14{fill:url(#SVGID_00000163047883625812862360000014673338445900615600_);}
	.st15{fill:url(#SVGID_00000011751986187234574060000005303103996303824800_);}
	.st16{fill:url(#SVGID_00000080169815845718796140000000586848532152162982_);}
	.st17{fill:url(#SVGID_00000085952072764757836470000004399865978793428109_);}
	.st18{fill:url(#SVGID_00000049219256989030136990000009606847805979056779_);}
	.st19{fill:url(#SVGID_00000073687443906888029710000007507905208244392383_);}
	.st20{fill:url(#SVGID_00000098217094831946842020000006560208402967176095_);}
	.st21{fill:url(#SVGID_00000037689633411846128140000009704818423909519503_);}
	.st22{fill:url(#SVGID_00000097489022579775244140000016594349403219646396_);}
	.st23{fill:url(#SVGID_00000097487541303036303030000007568935053513366405_);}
	.st24{fill:url(#SVGID_00000116957216406100050750000016284838081913899665_);}
	.st25{fill:url(#SVGID_00000055702833171957202300000001122553164256287617_);}
	.st26{fill:none;stroke:url(#SVGID_00000056399932341814605790000003986680040045290667_);stroke-linecap:round;}
	.st27{fill:none;stroke:#EEE2E3;stroke-width:0.25;stroke-linecap:round;}
</style>
<g>
	
		<radialGradient id="SVGID_1_" cx="-239.8446" cy="291.6708" r="1.1763" gradientTransform="matrix(-14.1875 13.0625 12.2539 13.3093 -6953.4019 -742.0493)" gradientUnits="userSpaceOnUse">
		<stop  offset="0" style="stop-color:#FFFFFF"/>
		<stop  offset="1" style="stop-color:#DCC4E7"/>
	</radialGradient>
	<path class="st0" d="M23.6,6.8c0.1,0.4,0.4,0.6,0.8,0.7c4.1,0.6,7.2,4.1,7.2,8.4c0,4.3-3.1,7.8-7.2,8.4c-0.4,0.1-0.7,0.3-0.8,0.7
		c-0.9,2.8-3.5,4.8-6.6,4.8c-3.2,0-5.8-2.1-6.7-5l0,0c-0.7-2.5-1.8-4.8-5.5-6.3C4.5,18.4,4.6,17.9,5,18c1.5,0.2,3.4,0.8,5.4,1.8
		c0.2,0.1,0.4,0,0.6-0.1c0-0.1,0.1-0.1,0.1-0.1c0,0,0,0,0-0.1l0,0c0-0.2-0.1-0.5-0.3-0.6c-1.5-0.9-4.7-1.7-9.2-1.9
		C0.5,17,0,16.6,0,16c0-0.5,0.3-1,1.6-1c4.5-0.1,7.7-0.9,9.2-1.9c0.2-0.1,0.3-0.4,0.3-0.6l0,0c0-0.3-0.4-0.5-0.7-0.4
		c-2,1-3.9,1.5-5.4,1.8c-0.4,0.1-0.5-0.4-0.1-0.6c4.1-1.9,4.9-4.2,5.4-5.6c0.1-0.2,0.1-0.3,0.1-0.4c0.8-3,3.5-5.2,6.7-5.2
		C20.1,2.1,22.7,4.1,23.6,6.8z"/>
	
		<linearGradient id="SVGID_00000128446887705357164560000015308314779756241035_" gradientUnits="userSpaceOnUse" x1="3.6577" y1="18.0276" x2="17.4797" y2="18.0276" gradientTransform="matrix(1 0 0 -1 0 34)">
		<stop  offset="0" style="stop-color:#C4B5BE"/>
		<stop  offset="1" style="stop-color:#C4B5BE;stop-opacity:0"/>
	</linearGradient>
	<path style="fill:url(#SVGID_00000128446887705357164560000015308314779756241035_);" d="M23.6,6.8c0.1,0.4,0.4,0.6,0.8,0.7
		c4.1,0.6,7.2,4.1,7.2,8.4c0,4.3-3.1,7.8-7.2,8.4c-0.4,0.1-0.7,0.3-0.8,0.7c-0.9,2.8-3.5,4.8-6.6,4.8c-3.2,0-5.8-2.1-6.7-5l0,0
		c-0.7-2.5-1.8-4.8-5.5-6.3C4.5,18.4,4.6,17.9,5,18c1.5,0.2,3.4,0.8,5.4,1.8c0.2,0.1,0.4,0,0.6-0.1c0-0.1,0.1-0.1,0.1-0.1
		c0,0,0,0,0-0.1l0,0c0-0.2-0.1-0.5-0.3-0.6c-1.5-0.9-4.7-1.7-9.2-1.9C0.5,17,0,16.6,0,16c0-0.5,0.3-1,1.6-1c4.5-0.1,7.7-0.9,9.2-1.9
		c0.2-0.1,0.3-0.4,0.3-0.6l0,0c0-0.3-0.4-0.5-0.7-0.4c-2,1-3.9,1.5-5.4,1.8c-0.4,0.1-0.5-0.4-0.1-0.6c4.1-1.9,4.9-4.2,5.4-5.6
		c0.1-0.2,0.1-0.3,0.1-0.4c0.8-3,3.5-5.2,6.7-5.2C20.1,2.1,22.7,4.1,23.6,6.8z"/>
	
		<radialGradient id="SVGID_00000099650732993941583410000005132413013820141746_" cx="-242.7743" cy="255.563" r="1.1763" gradientTransform="matrix(7.4375 -9.6875 -15.2999 -11.7464 5725.4922 683.133)" gradientUnits="userSpaceOnUse">
		<stop  offset="0" style="stop-color:#9B91F1"/>
		<stop  offset="1" style="stop-color:#9B91F1;stop-opacity:0"/>
	</radialGradient>
	<path style="fill:url(#SVGID_00000099650732993941583410000005132413013820141746_);" d="M23.6,6.8c0.1,0.4,0.4,0.6,0.8,0.7
		c4.1,0.6,7.2,4.1,7.2,8.4c0,4.3-3.1,7.8-7.2,8.4c-0.4,0.1-0.7,0.3-0.8,0.7c-0.9,2.8-3.5,4.8-6.6,4.8c-3.2,0-5.8-2.1-6.7-5l0,0
		c-0.7-2.5-1.8-4.8-5.5-6.3C4.5,18.4,4.6,17.9,5,18c1.5,0.2,3.4,0.8,5.4,1.8c0.2,0.1,0.4,0,0.6-0.1c0-0.1,0.1-0.1,0.1-0.1
		c0,0,0,0,0-0.1l0,0c0-0.2-0.1-0.5-0.3-0.6c-1.5-0.9-4.7-1.7-9.2-1.9C0.5,17,0,16.6,0,16c0-0.5,0.3-1,1.6-1c4.5-0.1,7.7-0.9,9.2-1.9
		c0.2-0.1,0.3-0.4,0.3-0.6l0,0c0-0.3-0.4-0.5-0.7-0.4c-2,1-3.9,1.5-5.4,1.8c-0.4,0.1-0.5-0.4-0.1-0.6c4.1-1.9,4.9-4.2,5.4-5.6
		c0.1-0.2,0.1-0.3,0.1-0.4c0.8-3,3.5-5.2,6.7-5.2C20.1,2.1,22.7,4.1,23.6,6.8z"/>
	
		<radialGradient id="SVGID_00000067195525145837499590000016546137080922686363_" cx="-201.5474" cy="269.3415" r="1.1763" gradientTransform="matrix(6.9375 5.625 5.8887 -7.2627 -180.9351 3095.2722)" gradientUnits="userSpaceOnUse">
		<stop  offset="0" style="stop-color:#B3A8A8"/>
		<stop  offset="1" style="stop-color:#B3A8A8;stop-opacity:0"/>
	</radialGradient>
	<path style="fill:url(#SVGID_00000067195525145837499590000016546137080922686363_);" d="M23.6,6.8c0.1,0.4,0.4,0.6,0.8,0.7
		c4.1,0.6,7.2,4.1,7.2,8.4c0,4.3-3.1,7.8-7.2,8.4c-0.4,0.1-0.7,0.3-0.8,0.7c-0.9,2.8-3.5,4.8-6.6,4.8c-3.2,0-5.8-2.1-6.7-5l0,0
		c-0.7-2.5-1.8-4.8-5.5-6.3C4.5,18.4,4.6,17.9,5,18c1.5,0.2,3.4,0.8,5.4,1.8c0.2,0.1,0.4,0,0.6-0.1c0-0.1,0.1-0.1,0.1-0.1
		c0,0,0,0,0-0.1l0,0c0-0.2-0.1-0.5-0.3-0.6c-1.5-0.9-4.7-1.7-9.2-1.9C0.5,17,0,16.6,0,16c0-0.5,0.3-1,1.6-1c4.5-0.1,7.7-0.9,9.2-1.9
		c0.2-0.1,0.3-0.4,0.3-0.6l0,0c0-0.3-0.4-0.5-0.7-0.4c-2,1-3.9,1.5-5.4,1.8c-0.4,0.1-0.5-0.4-0.1-0.6c4.1-1.9,4.9-4.2,5.4-5.6
		c0.1-0.2,0.1-0.3,0.1-0.4c0.8-3,3.5-5.2,6.7-5.2C20.1,2.1,22.7,4.1,23.6,6.8z"/>
	
		<linearGradient id="SVGID_00000059989943292032964760000016162429878999287973_" gradientUnits="userSpaceOnUse" x1="29.1887" y1="-0.111" x2="22.0888" y2="10.1811" gradientTransform="matrix(1 0 0 -1 0 34)">
		<stop  offset="0.1028" style="stop-color:#B6A8F2"/>
		<stop  offset="1" style="stop-color:#B6A8F2;stop-opacity:0"/>
	</linearGradient>
	<path style="fill:url(#SVGID_00000059989943292032964760000016162429878999287973_);" d="M23.6,6.8c0.1,0.4,0.4,0.6,0.8,0.7
		c4.1,0.6,7.2,4.1,7.2,8.4c0,4.3-3.1,7.8-7.2,8.4c-0.4,0.1-0.7,0.3-0.8,0.7c-0.9,2.8-3.5,4.8-6.6,4.8c-3.2,0-5.8-2.1-6.7-5l0,0
		c-0.7-2.5-1.8-4.8-5.5-6.3C4.5,18.4,4.6,17.9,5,18c1.5,0.2,3.4,0.8,5.4,1.8c0.2,0.1,0.4,0,0.6-0.1c0-0.1,0.1-0.1,0.1-0.1
		c0,0,0,0,0-0.1l0,0c0-0.2-0.1-0.5-0.3-0.6c-1.5-0.9-4.7-1.7-9.2-1.9C0.5,17,0,16.6,0,16c0-0.5,0.3-1,1.6-1c4.5-0.1,7.7-0.9,9.2-1.9
		c0.2-0.1,0.3-0.4,0.3-0.6l0,0c0-0.3-0.4-0.5-0.7-0.4c-2,1-3.9,1.5-5.4,1.8c-0.4,0.1-0.5-0.4-0.1-0.6c4.1-1.9,4.9-4.2,5.4-5.6
		c0.1-0.2,0.1-0.3,0.1-0.4c0.8-3,3.5-5.2,6.7-5.2C20.1,2.1,22.7,4.1,23.6,6.8z"/>
	
		<radialGradient id="SVGID_00000112631623011092001520000012904031204387552409_" cx="-252.7866" cy="212.7014" r="1.1763" gradientTransform="matrix(1.2031 -1.3906 -4.2248 -3.6552 1208.8357 446.897)" gradientUnits="userSpaceOnUse">
		<stop  offset="0" style="stop-color:#B6A8F2"/>
		<stop  offset="1" style="stop-color:#A998F0;stop-opacity:0"/>
	</radialGradient>
	<path style="fill:url(#SVGID_00000112631623011092001520000012904031204387552409_);" d="M23.6,6.8c0.1,0.4,0.4,0.6,0.8,0.7
		c4.1,0.6,7.2,4.1,7.2,8.4c0,4.3-3.1,7.8-7.2,8.4c-0.4,0.1-0.7,0.3-0.8,0.7c-0.9,2.8-3.5,4.8-6.6,4.8c-3.2,0-5.8-2.1-6.7-5l0,0
		c-0.7-2.5-1.8-4.8-5.5-6.3C4.5,18.4,4.6,17.9,5,18c1.5,0.2,3.4,0.8,5.4,1.8c0.2,0.1,0.4,0,0.6-0.1c0-0.1,0.1-0.1,0.1-0.1
		c0,0,0,0,0-0.1l0,0c0-0.2-0.1-0.5-0.3-0.6c-1.5-0.9-4.7-1.7-9.2-1.9C0.5,17,0,16.6,0,16c0-0.5,0.3-1,1.6-1c4.5-0.1,7.7-0.9,9.2-1.9
		c0.2-0.1,0.3-0.4,0.3-0.6l0,0c0-0.3-0.4-0.5-0.7-0.4c-2,1-3.9,1.5-5.4,1.8c-0.4,0.1-0.5-0.4-0.1-0.6c4.1-1.9,4.9-4.2,5.4-5.6
		c0.1-0.2,0.1-0.3,0.1-0.4c0.8-3,3.5-5.2,6.7-5.2C20.1,2.1,22.7,4.1,23.6,6.8z"/>
	
		<linearGradient id="SVGID_00000124140401100505831870000016242816878158268321_" gradientUnits="userSpaceOnUse" x1="7.4336" y1="27.0387" x2="9.6393" y2="25.0536" gradientTransform="matrix(1 0 0 -1 0 34)">
		<stop  offset="0" style="stop-color:#AEA3A5"/>
		<stop  offset="1" style="stop-color:#AEA3A5;stop-opacity:0"/>
	</linearGradient>
	<path style="fill:url(#SVGID_00000124140401100505831870000016242816878158268321_);" d="M23.6,6.8c0.1,0.4,0.4,0.6,0.8,0.7
		c4.1,0.6,7.2,4.1,7.2,8.4c0,4.3-3.1,7.8-7.2,8.4c-0.4,0.1-0.7,0.3-0.8,0.7c-0.9,2.8-3.5,4.8-6.6,4.8c-3.2,0-5.8-2.1-6.7-5l0,0
		c-0.7-2.5-1.8-4.8-5.5-6.3C4.5,18.4,4.6,17.9,5,18c1.5,0.2,3.4,0.8,5.4,1.8c0.2,0.1,0.4,0,0.6-0.1c0-0.1,0.1-0.1,0.1-0.1
		c0,0,0,0,0-0.1l0,0c0-0.2-0.1-0.5-0.3-0.6c-1.5-0.9-4.7-1.7-9.2-1.9C0.5,17,0,16.6,0,16c0-0.5,0.3-1,1.6-1c4.5-0.1,7.7-0.9,9.2-1.9
		c0.2-0.1,0.3-0.4,0.3-0.6l0,0c0-0.3-0.4-0.5-0.7-0.4c-2,1-3.9,1.5-5.4,1.8c-0.4,0.1-0.5-0.4-0.1-0.6c4.1-1.9,4.9-4.2,5.4-5.6
		c0.1-0.2,0.1-0.3,0.1-0.4c0.8-3,3.5-5.2,6.7-5.2C20.1,2.1,22.7,4.1,23.6,6.8z"/>
	
		<radialGradient id="SVGID_00000159453276255911545830000017494202533167774345_" cx="-343.9502" cy="238.1115" r="1.1763" gradientTransform="matrix(0.4062 -1.5995 -8.0529 -2.0453 2064.3208 -44.4777)" gradientUnits="userSpaceOnUse">
		<stop  offset="0.1028" style="stop-color:#B6A8F2"/>
		<stop  offset="1" style="stop-color:#B6A8F2;stop-opacity:0"/>
	</radialGradient>
	<path style="fill:url(#SVGID_00000159453276255911545830000017494202533167774345_);" d="M11,19.2L11,19.2c1.2-1.4,0.5-3.6-1.3-4.1
		l-2.4-0.6C5.8,14.7,3.8,15,1.6,15C0.3,15,0,15.5,0,16c0,0.5,0.5,1,1.6,1c4.5,0.1,7.7,0.9,9.2,1.9C10.9,18.9,11,19,11,19.2z"/>
	
		<radialGradient id="SVGID_00000183946300293864047530000018296194838117371044_" cx="-286.3803" cy="392.5599" r="1.1763" gradientTransform="matrix(-6.1158 -2.1416 -0.4065 1.1609 -1565.748 -1043.4191)" gradientUnits="userSpaceOnUse">
		<stop  offset="0" style="stop-color:#ADA0F1"/>
		<stop  offset="1" style="stop-color:#ADA0F1;stop-opacity:0"/>
	</radialGradient>
	<path style="fill:url(#SVGID_00000183946300293864047530000018296194838117371044_);" d="M27.7,23.1c-1,0.6-2.1,1-3.3,1.2
		c-0.4,0.1-0.7,0.3-0.8,0.7c-0.2,0.8-0.6,1.5-1.1,2.1c-1.6-1.4-3.6-3.5-5.4-6.1C18.2,21.7,23.2,23.4,27.7,23.1z"/>
	
		<radialGradient id="SVGID_00000150075443859413902320000016137840363063268251_" cx="-230.9585" cy="358.3927" r="1.1763" gradientTransform="matrix(-2.25 2.7187 3.043 2.5184 -1580.1769 -271.4097)" gradientUnits="userSpaceOnUse">
		<stop  offset="0" style="stop-color:#FFFFFF"/>
		<stop  offset="1" style="stop-color:#DED0E4"/>
	</radialGradient>
	<circle style="fill:url(#SVGID_00000150075443859413902320000016137840363063268251_);" cx="29.3" cy="5.1" r="2.7"/>
	
		<radialGradient id="SVGID_00000124148218623048290200000007398618833231433372_" cx="-238.633" cy="172.6583" r="1.1763" gradientTransform="matrix(2.5781 -2.5937 -2.3942 -2.3798 1054.8741 -198.6312)" gradientUnits="userSpaceOnUse">
		<stop  offset="0" style="stop-color:#FFF3C7"/>
		<stop  offset="1" style="stop-color:#FFF3C7;stop-opacity:0"/>
	</radialGradient>
	<circle style="fill:url(#SVGID_00000124148218623048290200000007398618833231433372_);" cx="29.3" cy="5.1" r="2.7"/>
	
		<radialGradient id="SVGID_00000040549221232662898660000005423353522028985749_" cx="-189.4241" cy="260.7275" r="1.1763" gradientTransform="matrix(5.5625 3.7188 2.8468 -4.2582 335.3207 1815.9114)" gradientUnits="userSpaceOnUse">
		<stop  offset="4.166670e-02" style="stop-color:#AFADA8"/>
		<stop  offset="0.8854" style="stop-color:#AFADA8;stop-opacity:0"/>
	</radialGradient>
	<circle style="fill:url(#SVGID_00000040549221232662898660000005423353522028985749_);" cx="29.3" cy="5.1" r="2.7"/>
	
		<radialGradient id="SVGID_00000132778902792440306660000013748696332279224466_" cx="-223.6944" cy="380.382" r="1.1763" gradientTransform="matrix(-1.6863 2.2189 2.4835 1.8875 -1297.7262 -220.1898)" gradientUnits="userSpaceOnUse">
		<stop  offset="0" style="stop-color:#FFFFFF"/>
		<stop  offset="1" style="stop-color:#DED0E4"/>
	</radialGradient>
	<circle style="fill:url(#SVGID_00000132778902792440306660000013748696332279224466_);" cx="23.7" cy="2.5" r="1.5"/>
	
		<radialGradient id="SVGID_00000024719681297793985480000001060784642204607648_" cx="-238.3405" cy="96.8335" r="1.1763" gradientTransform="matrix(1.4644 -1.4733 -1.36 -1.3518 502.7439 -215.3107)" gradientUnits="userSpaceOnUse">
		<stop  offset="0" style="stop-color:#FFF3C7"/>
		<stop  offset="1" style="stop-color:#FFF3C7;stop-opacity:0"/>
	</radialGradient>
	<circle style="fill:url(#SVGID_00000024719681297793985480000001060784642204607648_);" cx="23.7" cy="2.5" r="1.5"/>
	
		<radialGradient id="SVGID_00000050631157829983233760000004055712255369321634_" cx="-158.6593" cy="241.026" r="1.1763" gradientTransform="matrix(3.5167 2.0368 1.3194 -2.2781 260.6048 872.5312)" gradientUnits="userSpaceOnUse">
		<stop  offset="4.166670e-02" style="stop-color:#AFADA8"/>
		<stop  offset="0.8854" style="stop-color:#AFADA8;stop-opacity:0"/>
	</radialGradient>
	<circle style="fill:url(#SVGID_00000050631157829983233760000004055712255369321634_);" cx="23.7" cy="2.5" r="1.5"/>
	
		<radialGradient id="SVGID_00000111165781392573642390000018260676659729661850_" cx="-213.3945" cy="360.6618" r="1.1763" gradientTransform="matrix(-1.4063 2.0781 3.1608 2.1389 -1414.5507 -299.3869)" gradientUnits="userSpaceOnUse">
		<stop  offset="0" style="stop-color:#FFFFFF"/>
		<stop  offset="1" style="stop-color:#ADA0F1"/>
	</radialGradient>
	<circle style="fill:url(#SVGID_00000111165781392573642390000018260676659729661850_);" cx="24.5" cy="29.5" r="1.5"/>
	
		<radialGradient id="SVGID_00000115515326159242237960000013062132149139206307_" cx="-71.9759" cy="242.8703" r="1.1764" gradientTransform="matrix(1.6094 1.2187 0.933 -1.232 -87.78 415.2979)" gradientUnits="userSpaceOnUse">
		<stop  offset="4.166670e-02" style="stop-color:#E5CCEF"/>
		<stop  offset="0.8854" style="stop-color:#E5CCEF;stop-opacity:0"/>
	</radialGradient>
	<circle style="fill:url(#SVGID_00000115515326159242237960000013062132149139206307_);" cx="24.5" cy="29.5" r="1.5"/>
	<g>
		
			<radialGradient id="SVGID_00000015322588997140101750000009405409764252701331_" cx="-235.6572" cy="238.554" r="1.1763" gradientTransform="matrix(10.0625 -7.8125 -5.9615 -7.6785 3805.0513 3.6438)" gradientUnits="userSpaceOnUse">
			<stop  offset="5.716550e-02" style="stop-color:#CDC7C7"/>
			<stop  offset="1" style="stop-color:#CDC7C7;stop-opacity:0"/>
		</radialGradient>
		<circle style="fill:url(#SVGID_00000015322588997140101750000009405409764252701331_);" cx="16.8" cy="9" r="5.6"/>
		
			<radialGradient id="SVGID_00000098919487258267641470000014495756010538176647_" cx="-241.4707" cy="225.9989" r="1.1763" gradientTransform="matrix(5.9051 -6.75 -5.3936 -4.7185 2655.9929 -550.0319)" gradientUnits="userSpaceOnUse">
			<stop  offset="0" style="stop-color:#BEB4E8"/>
			<stop  offset="1" style="stop-color:#BEB4E8;stop-opacity:0"/>
		</radialGradient>
		<circle style="fill:url(#SVGID_00000098919487258267641470000014495756010538176647_);" cx="16.8" cy="9" r="5.6"/>
		
			<radialGradient id="SVGID_00000129191010684863001660000001517431827968573334_" cx="-248.4997" cy="199.5968" r="1.1763" gradientTransform="matrix(3.0301 -4.0625 -3.647 -2.7202 1492.0422 -454.3207)" gradientUnits="userSpaceOnUse">
			<stop  offset="0" style="stop-color:#A99DCA"/>
			<stop  offset="1" style="stop-color:#BEB4E8;stop-opacity:0"/>
		</radialGradient>
		<circle style="fill:url(#SVGID_00000129191010684863001660000001517431827968573334_);" cx="16.8" cy="9" r="5.6"/>
	</g>
	<g>
		
			<radialGradient id="SVGID_00000016771807577559295390000013866754765825963948_" cx="-177.3188" cy="265.9053" r="1.1763" gradientTransform="matrix(4.6562 2.2813 6.8339 -13.9487 -981.7407 4135.168)" gradientUnits="userSpaceOnUse">
			<stop  offset="5.434070e-02" style="stop-color:#AEA1BC"/>
			<stop  offset="1" style="stop-color:#AEA1BC;stop-opacity:0"/>
		</radialGradient>
		<circle style="fill:url(#SVGID_00000016771807577559295390000013866754765825963948_);" cx="16.6" cy="22.8" r="5.9"/>
	</g>
	<g>
		
			<radialGradient id="SVGID_00000126317022961419857700000016298370066150838422_" cx="-197.0138" cy="267.1037" r="1.1763" gradientTransform="matrix(6.7864 3.6254 7.9022 -14.7923 -766.3879 4685.3779)" gradientUnits="userSpaceOnUse">
			<stop  offset="5.434070e-02" style="stop-color:#AEA1BC"/>
			<stop  offset="1" style="stop-color:#AEA1BC;stop-opacity:0"/>
		</radialGradient>
		<circle style="fill:url(#SVGID_00000126317022961419857700000016298370066150838422_);" cx="16.6" cy="22.8" r="5.9"/>
	</g>
	<g>
		
			<linearGradient id="SVGID_00000045610425094592151060000016774360405229127613_" gradientUnits="userSpaceOnUse" x1="18.1084" y1="6.5462" x2="22.2255" y2="18.1625" gradientTransform="matrix(1 0 0 -1 0 34)">
			<stop  offset="0.1028" style="stop-color:#B6A8F2"/>
			<stop  offset="1" style="stop-color:#B6A8F2;stop-opacity:0"/>
		</linearGradient>
		<path style="fill:url(#SVGID_00000045610425094592151060000016774360405229127613_);" d="M30.7,15.7c0.5,3.4-2.2,7.6-6.9,7.9
			c-6.1,0.4-10.2-3.6-10.2-7.9c0-4.3,5-8.5,10.2-7.7C27.6,8,30.7,11.9,30.7,15.7z"/>
		
			<radialGradient id="SVGID_00000181059500363100961220000008970338909200164225_" cx="-206.0031" cy="265.58" r="1.1764" gradientTransform="matrix(8.75 3.5 6.6245 -16.5612 58.6859 5132.2739)" gradientUnits="userSpaceOnUse">
			<stop  offset="0" style="stop-color:#CDC7C7"/>
			<stop  offset="1" style="stop-color:#CDC7C7;stop-opacity:0"/>
		</radialGradient>
		<path style="fill:url(#SVGID_00000181059500363100961220000008970338909200164225_);" d="M30.7,15.7c0.5,3.4-2.2,7.6-6.9,7.9
			c-6.1,0.4-10.2-3.6-10.2-7.9c0-4.3,5-8.5,10.2-7.7C27.6,8,30.7,11.9,30.7,15.7z"/>
		
			<radialGradient id="SVGID_00000124842326789863477750000000146109462031118521_" cx="-210.5009" cy="262.6094" r="1.1763" gradientTransform="matrix(8.375 0 0 -23 1772.4844 6057.0557)" gradientUnits="userSpaceOnUse">
			<stop  offset="0" style="stop-color:#AEA1BC"/>
			<stop  offset="1" style="stop-color:#AEA1BC;stop-opacity:0"/>
		</radialGradient>
		<path style="fill:url(#SVGID_00000124842326789863477750000000146109462031118521_);" d="M30.7,15.7c0.5,3.4-2.2,7.6-6.9,7.9
			c-6.1,0.4-10.2-3.6-10.2-7.9c0-4.3,5-8.5,10.2-7.7C27.6,8,30.7,11.9,30.7,15.7z"/>
		
			<radialGradient id="SVGID_00000106853680278271712380000002052841009710043829_" cx="-255.4745" cy="296.6731" r="1.1763" gradientTransform="matrix(-5.3125 2.875 6.5268 12.0605 -3261.646 -2832.0884)" gradientUnits="userSpaceOnUse">
			<stop  offset="0" style="stop-color:#FFFFFF"/>
			<stop  offset="1" style="stop-color:#FFFFFF;stop-opacity:0"/>
		</radialGradient>
		<path style="fill:url(#SVGID_00000106853680278271712380000002052841009710043829_);" d="M30.7,15.7c0.5,3.4-2.2,7.6-6.9,7.9
			c-6.1,0.4-10.2-3.6-10.2-7.9c0-4.3,5-8.5,10.2-7.7C27.6,8,30.7,11.9,30.7,15.7z"/>
	</g>
	<g>
		
			<linearGradient id="SVGID_00000006700889657967312550000016578320391959303078_" gradientUnits="userSpaceOnUse" x1="21.6785" y1="10.8589" x2="15.7163" y2="15.195" gradientTransform="matrix(1 0 0 -1 0 34)">
			<stop  offset="0" style="stop-color:#AEA3E4"/>
			<stop  offset="1" style="stop-color:#AEA3E4;stop-opacity:0"/>
		</linearGradient>
		<path style="fill:none;stroke:url(#SVGID_00000006700889657967312550000016578320391959303078_);stroke-linecap:round;" d="
			M15.8,18.8c1,1.1,3.3,4,7.7,5"/>
	</g>
	<g>
		<path class="st27" d="M1.3,15.9c1.1,0,3.9-0.2,6-0.5"/>
	</g>
</g>
</svg>
