<?xml version="1.0" encoding="utf-8"?>
<!-- Generator: Adobe Illustrator 27.3.1, SVG Export Plug-In . SVG Version: 6.00 Build 0)  -->
<svg version="1.1" id="Layer_1" xmlns="http://www.w3.org/2000/svg" xmlns:xlink="http://www.w3.org/1999/xlink" x="0px" y="0px"
	 viewBox="0 0 32 32" style="enable-background:new 0 0 32 32;" xml:space="preserve">
<style type="text/css">
	.st0{fill:url(#SVGID_1_);}
	.st1{fill:url(#SVGID_00000052802686434917111180000004595090980930634659_);}
	.st2{fill:none;stroke:url(#SVGID_00000033361592870072959460000006115351951504343957_);stroke-width:1.5;stroke-linecap:round;}
	.st3{fill:none;stroke:url(#SVGID_00000013904714247821224310000012621231003922548922_);stroke-width:1.5;stroke-linecap:round;}
	.st4{fill:#579FFF;}
	.st5{fill:#FCF2FF;}
</style>
<g>
	<g>
		
			<linearGradient id="SVGID_1_" gradientUnits="userSpaceOnUse" x1="16.0033" y1="30.3965" x2="16.0033" y2="-7.777" gradientTransform="matrix(1 0 0 -1 0 34)">
			<stop  offset="0" style="stop-color:#5CB7FF"/>
			<stop  offset="1" style="stop-color:#4878DD"/>
		</linearGradient>
		<path class="st0" d="M4.1-0.5h23.7c2.3,0,4.1,1.9,4.1,4.1v23.7c0,2.3-1.9,4.1-4.1,4.1H4.1c-2.3,0-4.1-1.9-4.1-4.1V3.6
			C0,1.4,1.9-0.5,4.1-0.5z"/>
		
			<radialGradient id="SVGID_00000121990429270771823940000003443582947761352065_" cx="-245.0201" cy="407.8472" r="1.148" gradientTransform="matrix(-1.5625 1.4688 1.7155 1.825 -1053.0387 -382.5213)" gradientUnits="userSpaceOnUse">
			<stop  offset="0" style="stop-color:#7BD7FF"/>
			<stop  offset="1" style="stop-color:#7BD7FF;stop-opacity:0"/>
		</radialGradient>
		<path style="fill:url(#SVGID_00000121990429270771823940000003443582947761352065_);" d="M4.1-0.5h23.7c2.3,0,4.1,1.9,4.1,4.1
			v23.7c0,2.3-1.9,4.1-4.1,4.1H4.1c-2.3,0-4.1-1.9-4.1-4.1V3.6C0,1.4,1.9-0.5,4.1-0.5z"/>
	</g>
	<g>
		
			<linearGradient id="SVGID_00000067945833319342664110000007518432408648508578_" gradientUnits="userSpaceOnUse" x1="30.0661" y1="31.5259" x2="30.0661" y2="5.4741" gradientTransform="matrix(1 0 0 -1 0 34)">
			<stop  offset="0" style="stop-color:#7FD9FF"/>
			<stop  offset="1" style="stop-color:#639DF4"/>
		</linearGradient>
		
			<path style="fill:none;stroke:url(#SVGID_00000067945833319342664110000007518432408648508578_);stroke-width:1.5;stroke-linecap:round;" d="
			M30.1,2.4v26.3"/>
	</g>
	<g>
		
			<linearGradient id="SVGID_00000084508017898694361490000007216594149365695159_" gradientUnits="userSpaceOnUse" x1="30.1968" y1="32.4193" x2="1.1307" y2="32.4193" gradientTransform="matrix(1 0 0 -1 0 34)">
			<stop  offset="0" style="stop-color:#7DD8FF"/>
			<stop  offset="1" style="stop-color:#5DB6FF"/>
		</linearGradient>
		
			<path style="fill:none;stroke:url(#SVGID_00000084508017898694361490000007216594149365695159_);stroke-width:1.5;stroke-linecap:round;" d="
			M4,1.6h25"/>
	</g>
	<g>
		<path class="st4" d="M14.9,5.1c-0.6,0-1.1,0.5-1.1,1.1v11.2c0,0.2-0.1,0.3-0.3,0.3H9.9c-1,0-1.5,1.3-0.8,2l6.1,5.9
			c0.4,0.4,1.1,0.4,1.6,0l6.1-5.9c0.7-0.7,0.2-2-0.8-2h-3.5c-0.2,0-0.3-0.1-0.3-0.3V6.3c0-0.6-0.5-1.1-1.1-1.1H14.9z"/>
	</g>
	<g>
		<path class="st5" d="M14.9,5.1c-0.6,0-1.1,0.5-1.1,1.1v11.2c0,0.2-0.1,0.3-0.3,0.3H9.9c-1,0-1.5,1.3-0.8,2l6.1,5.9
			c0.4,0.4,1.1,0.4,1.6,0l6.1-5.9c0.7-0.7,0.2-2-0.8-2h-3.5c-0.2,0-0.3-0.1-0.3-0.3V6.3c0-0.6-0.5-1.1-1.1-1.1H14.9z"/>
	</g>
</g>
</svg>
