<?xml version="1.0" encoding="utf-8"?>
<!-- Generator: Adobe Illustrator 27.3.1, SVG Export Plug-In . SVG Version: 6.00 Build 0)  -->
<svg version="1.1" id="Layer_1" xmlns="http://www.w3.org/2000/svg" xmlns:xlink="http://www.w3.org/1999/xlink" x="0px" y="0px"
	 viewBox="0 0 32 32" style="enable-background:new 0 0 32 32;" xml:space="preserve">
<style type="text/css">
	.st0{fill:url(#SVGID_1_);}
	.st1{fill:url(#SVGID_00000109733206035087980550000002239477526294689182_);}
	.st2{fill:url(#SVGID_00000113338732906579255450000004058711698513682101_);}
	.st3{opacity:0.9;}
	.st4{fill:url(#SVGID_00000109015157886701605020000008224239161620437160_);}
	.st5{fill:url(#SVGID_00000101093114306866908740000017851142463486146713_);}
	.st6{fill:url(#SVGID_00000095314442384601376250000015884657312035574666_);}
	
		.st7{fill-rule:evenodd;clip-rule:evenodd;fill:url(#SVGID_00000106867149812303260710000001810679773842781629_);fill-opacity:0.75;}
	
		.st8{fill:none;stroke:url(#SVGID_00000137832068617534504540000009850048496947558020_);stroke-width:1.25;stroke-linecap:round;stroke-linejoin:round;}
	
		.st9{fill-rule:evenodd;clip-rule:evenodd;fill:url(#SVGID_00000119078820063742254200000013295098392719334051_);fill-opacity:0.75;}
	
		.st10{fill:none;stroke:url(#SVGID_00000072986857005909641870000000176351225606129066_);stroke-width:1.25;stroke-linecap:round;stroke-linejoin:round;}
	.st11{fill:#FB6E27;fill-opacity:0.75;}
	.st12{fill:#B24B35;}
	.st13{fill:#FFFFFF;}
	.st14{fill:#402931;}
	.st15{fill:url(#SVGID_00000171715869870647289770000010993183758599615875_);}
	.st16{fill:url(#SVGID_00000145058462044737945880000014069478890867747714_);}
	.st17{opacity:0.5;}
	.st18{fill:none;stroke:#FFFFFF;}
</style>
<g>
	<g>
		
			<radialGradient id="SVGID_1_" cx="-238.7043" cy="282.0145" r="1.1429" gradientTransform="matrix(-25.5 27.4999 27.4999 25.5 -13815.4873 -619.0193)" gradientUnits="userSpaceOnUse">
			<stop  offset="0" style="stop-color:#FFF478"/>
			<stop  offset="0.4748" style="stop-color:#FFB02E"/>
			<stop  offset="1" style="stop-color:#F70A8D"/>
		</radialGradient>
		<path class="st0" d="M16,32c10.7,0,16-7.2,16-16c0-8.8-5.3-16-16-16C5.3,0,0,7.2,0,16C0,24.8,5.3,32,16,32z"/>
	</g>
	
		<radialGradient id="SVGID_00000042709556113201644620000002521487240067505289_" cx="-225.665" cy="286.3628" r="1.1429" gradientTransform="matrix(1.095165e-15 17.8854 17.8854 -1.095165e-15 -5105.7144 4048.1108)" gradientUnits="userSpaceOnUse">
		<stop  offset="0.8239" style="stop-color:#F59639;stop-opacity:0"/>
		<stop  offset="1" style="stop-color:#FF63C4"/>
	</radialGradient>
	<path style="fill:url(#SVGID_00000042709556113201644620000002521487240067505289_);" d="M16,32c10.7,0,16-7.2,16-16
		c0-8.8-5.3-16-16-16C5.3,0,0,7.2,0,16C0,24.8,5.3,32,16,32z"/>
	
		<radialGradient id="SVGID_00000042737432810068772230000000389744961967420854_" cx="-246.8775" cy="269.4601" r="1.1429" gradientTransform="matrix(1.879067e-15 -30.6875 -67.5153 -4.134120e-15 18208.6758 -7538.125)" gradientUnits="userSpaceOnUse">
		<stop  offset="0.3438" style="stop-color:#F59639;stop-opacity:0"/>
		<stop  offset="1" style="stop-color:#E73550"/>
	</radialGradient>
	<path style="fill:url(#SVGID_00000042737432810068772230000000389744961967420854_);" d="M16,32c10.7,0,16-7.2,16-16
		c0-8.8-5.3-16-16-16C5.3,0,0,7.2,0,16C0,24.8,5.3,32,16,32z"/>
	<g class="st3">
		
			<radialGradient id="SVGID_00000013176071922962152880000009700006015489031864_" cx="-186.619" cy="288.1415" r="1.1429" gradientTransform="matrix(4.0762 4.9604 1.7558 -1.4428 279.5796 1349.322)" gradientUnits="userSpaceOnUse">
			<stop  offset="0" style="stop-color:#993D29"/>
			<stop  offset="1" style="stop-color:#B14B35;stop-opacity:0"/>
		</radialGradient>
		<path style="fill:url(#SVGID_00000013176071922962152880000009700006015489031864_);" d="M23.4,6.3L23.4,6.3
			c0.7-0.7,1.7-0.7,2.4,0l2.2,2.2c0.7,0.7,0.7,1.7,0,2.4l0,0c-0.7,0.7-1.7,0.7-2.4,0l-2.2-2.2C22.8,8,22.8,6.9,23.4,6.3z"/>
	</g>
	
		<radialGradient id="SVGID_00000058563521921520407650000012059521160705373091_" cx="-219.6169" cy="356.5507" r="1.1429" gradientTransform="matrix(-2.5 7.3182 3.4254 1.1702 -1764.4746 1210.9042)" gradientUnits="userSpaceOnUse">
		<stop  offset="0" style="stop-color:#5C98FF"/>
		<stop  offset="0.806" style="stop-color:#3D5BF1"/>
		<stop  offset="0.9622" style="stop-color:#6065CA"/>
	</radialGradient>
	<path style="fill:url(#SVGID_00000058563521921520407650000012059521160705373091_);" d="M4,20.6L4,20.6c1.6,0,2.9,1.3,2.9,2.9v2.3
		c0,1.6-1.3,2.9-2.9,2.9l0,0c-1.6,0-2.9-1.3-2.9-2.9v-2.3C1.1,21.9,2.4,20.6,4,20.6z"/>
	
		<radialGradient id="SVGID_00000171677393998283154840000014082785645263428528_" cx="-220.028" cy="357.1682" r="1.1429" gradientTransform="matrix(-2.5 7.3182 3.4254 1.1702 -1742.4746 1194.9042)" gradientUnits="userSpaceOnUse">
		<stop  offset="0" style="stop-color:#5C98FF"/>
		<stop  offset="0.806" style="stop-color:#3D5BF1"/>
		<stop  offset="0.9622" style="stop-color:#6065CA"/>
	</radialGradient>
	<path style="fill:url(#SVGID_00000171677393998283154840000014082785645263428528_);" d="M29.1,2.3L29.1,2.3c1.6,0,2.9,1.3,2.9,2.9
		v2.3c0,1.6-1.3,2.9-2.9,2.9l0,0c-1.6,0-2.9-1.3-2.9-2.9V5.1C26.3,3.6,27.6,2.3,29.1,2.3z"/>
	<g>
		
			<radialGradient id="SVGID_00000033339638162270829290000010876394831562268858_" cx="-279.6566" cy="186.3032" r="1.1429" gradientTransform="matrix(0.9034 -4.5053 -3.1718 -0.636 853.6132 -1130.9707)" gradientUnits="userSpaceOnUse">
			<stop  offset="0.2552" style="stop-color:#993D29"/>
			<stop  offset="1" style="stop-color:#B14B35;stop-opacity:0"/>
		</radialGradient>
		
			<path style="fill-rule:evenodd;clip-rule:evenodd;fill:url(#SVGID_00000033339638162270829290000010876394831562268858_);fill-opacity:0.75;" d="
			M7.4,11.3c0-0.4,0.2-0.7,0.6-0.8c1.4-0.2,2.1-0.8,2.4-1.4c0.2-0.3,0.3-0.6,0.3-0.8c0-0.1,0-0.2,0.1-0.2c0,0,0,0,0-0.1l0,0
			c0-0.4,0.4-0.7,0.8-0.6c0.4,0,0.7,0.4,0.7,0.8l-0.7-0.1c0.7,0.1,0.7,0.1,0.7,0.1l0,0l0,0l0,0l0,0c0,0,0,0,0,0c0,0,0,0.1,0,0.1
			c0,0.1,0,0.2-0.1,0.4c-0.1,0.3-0.2,0.7-0.5,1.2c-0.6,0.9-1.6,1.8-3.5,2.1C7.8,12,7.4,11.7,7.4,11.3z"/>
	</g>
	
		<radialGradient id="SVGID_00000176044799415805792760000017975044615577854353_" cx="-155.6331" cy="275.9918" r="1.0297" gradientTransform="matrix(2.5937 3.0781 7.3188 -6.1671 -1608.0557 2190.1663)" gradientUnits="userSpaceOnUse">
		<stop  offset="0.1379" style="stop-color:#694F62"/>
		<stop  offset="0.3981" style="stop-color:#482641"/>
	</radialGradient>
	
		<path style="fill:none;stroke:url(#SVGID_00000176044799415805792760000017975044615577854353_);stroke-width:1.25;stroke-linecap:round;stroke-linejoin:round;" d="
		M10.7,7.4c0,0,0,3-3.3,3.3"/>
	<g>
		
			<radialGradient id="SVGID_00000091712029794639344100000012578460080587168447_" cx="-300.1107" cy="214.8088" r="1.1429" gradientTransform="matrix(-0.9034 -4.5053 -3.1718 0.636 432.4491 -1478.2384)" gradientUnits="userSpaceOnUse">
			<stop  offset="0.2552" style="stop-color:#993D29"/>
			<stop  offset="1" style="stop-color:#B14B35;stop-opacity:0"/>
		</radialGradient>
		
			<path style="fill-rule:evenodd;clip-rule:evenodd;fill:url(#SVGID_00000091712029794639344100000012578460080587168447_);fill-opacity:0.75;" d="
			M24.9,11.3c0-0.4-0.2-0.7-0.6-0.8c-1.4-0.2-2.1-0.8-2.4-1.4c-0.2-0.3-0.3-0.6-0.3-0.8c0-0.1,0-0.2-0.1-0.2c0,0,0,0,0-0.1l0,0
			c0-0.4-0.4-0.7-0.8-0.6c-0.4,0-0.7,0.4-0.7,0.8l0.7-0.1C20,8.1,20,8.1,20,8.1v0l0,0l0,0l0,0c0,0,0,0,0,0c0,0,0,0.1,0,0.1
			c0,0.1,0,0.2,0.1,0.4c0.1,0.3,0.2,0.7,0.5,1.2c0.6,0.9,1.6,1.8,3.5,2.1C24.5,12,24.9,11.7,24.9,11.3z"/>
	</g>
	
		<radialGradient id="SVGID_00000103984005992216459910000007474231448644118206_" cx="-232.1536" cy="308.201" r="1.0287" gradientTransform="matrix(-2.5938 3.0781 7.3188 6.1671 -2834.0051 -1177.0812)" gradientUnits="userSpaceOnUse">
		<stop  offset="0.1379" style="stop-color:#694F62"/>
		<stop  offset="0.3981" style="stop-color:#482641"/>
	</radialGradient>
	
		<path style="fill:none;stroke:url(#SVGID_00000103984005992216459910000007474231448644118206_);stroke-width:1.25;stroke-linecap:round;stroke-linejoin:round;" d="
		M21.3,7.4c0,0,0,3,3.3,3.3"/>
	<g>
		<path class="st11" d="M19.9,13.1c-1.4,0.8-2.4,2.2-2.4,4c0,2.5,2,4.5,4.5,4.5c2.5,0,4.5-2,4.5-4.5c0-1.3-0.6-2.5-1.5-3.3
			c-0.6,0.2-1.2,0.3-1.9,0.3C21.9,14,20.8,13.7,19.9,13.1z"/>
	</g>
	<g>
		<path class="st12" d="M11.3,13.1c1.4,0.8,2.4,2.2,2.4,4c0,2.5-2,4.5-4.5,4.5c-2.5,0-4.5-2-4.5-4.5c0-1.3,0.6-2.5,1.5-3.3
			C6.8,13.9,7.4,14,8.1,14C9.3,14,10.4,13.7,11.3,13.1z"/>
	</g>
	<path class="st13" d="M20,11.9c-1.5,0.8-2.6,2.4-2.6,4.3c0,2.7,2.2,4.8,4.8,4.8s4.8-2.2,4.8-4.8c0-1.4-0.6-2.7-1.6-3.6
		c-0.6,0.2-1.3,0.3-2,0.3C22.2,13,21,12.6,20,11.9z"/>
	<circle class="st14" cx="20.5" cy="16.3" r="2.2"/>
	<path class="st13" d="M12,11.9c1.5,0.8,2.6,2.4,2.6,4.3c0,2.7-2.2,4.8-4.8,4.8c-2.7,0-4.8-2.2-4.8-4.8c0-1.4,0.6-2.7,1.6-3.6
		c0.6,0.2,1.3,0.3,2,0.3C9.8,13,11,12.6,12,11.9z"/>
	<circle class="st14" cx="11.5" cy="16.3" r="2.2"/>
	
		<linearGradient id="SVGID_00000022532598807243706080000012523847021192703378_" gradientUnits="userSpaceOnUse" x1="15.9987" y1="12.3381" x2="15.9987" y2="5.8381" gradientTransform="matrix(1 0 0 -1 0 34)">
		<stop  offset="0" style="stop-color:#6D014D"/>
		<stop  offset="1" style="stop-color:#750C3F"/>
	</linearGradient>
	<path style="fill:url(#SVGID_00000022532598807243706080000012523847021192703378_);" d="M14.7,21.7h2.7c1.8,0,3.2,1.4,3.2,3.2V25
		c0,1.8-1.4,3.2-3.2,3.2h-2.7c-1.8,0-3.2-1.4-3.2-3.2v-0.1C11.5,23.1,12.9,21.7,14.7,21.7z"/>
	
		<radialGradient id="SVGID_00000056403542718113165910000015666302589773585322_" cx="-273.0512" cy="253.5686" r="1.1429" gradientTransform="matrix(4.332268e-16 -7.0751 -12.2996 -7.531333e-16 3134.7793 -1900.5499)" gradientUnits="userSpaceOnUse">
		<stop  offset="0.1354" style="stop-color:#FF1C4A"/>
		<stop  offset="0.6198" style="stop-color:#FF2B8F"/>
		<stop  offset="0.7552" style="stop-color:#BB0773"/>
		<stop  offset="0.8698" style="stop-color:#9F0762"/>
	</radialGradient>
	<path style="fill:url(#SVGID_00000056403542718113165910000015666302589773585322_);" d="M16,30.3c3.5,0,4-3,4.1-3.9
		c0.1-0.7-0.3-1.5-0.7-1.8c-0.4-0.2-1.6-0.5-3.5-0.5c-1.8,0-3,0.2-3.5,0.5c-0.4,0.2-0.8,1.1-0.7,1.8C12,27.3,12.5,30.3,16,30.3z"/>
	<g class="st17">
		<path class="st18" d="M17.6,28.2c0.8-0.4,1.7-1.2,1.7-2.5"/>
	</g>
</g>
</svg>
