<?xml version="1.0" encoding="utf-8"?>
<!-- Generator: Adobe Illustrator 27.3.1, SVG Export Plug-In . SVG Version: 6.00 Build 0)  -->
<svg version="1.1" id="Layer_1" xmlns="http://www.w3.org/2000/svg" xmlns:xlink="http://www.w3.org/1999/xlink" x="0px" y="0px"
	 viewBox="0 0 100 100" style="enable-background:new 0 0 100 100;" xml:space="preserve">
<style type="text/css">
	.st0{fill:url(#SVGID_1_);}
	.st1{fill:url(#SVGID_00000008839974823508169280000013965670351271173003_);}
	.st2{fill:url(#SVGID_00000018915895120312536470000000441827772347169408_);}
	.st3{fill:url(#SVGID_00000152945103962481467400000013119082191975103904_);}
	.st4{fill:url(#SVGID_00000013177939615051877040000013811394458691398301_);}
	.st5{fill:url(#SVGID_00000155111767550080501800000001788120747667378832_);}
	.st6{fill:url(#SVGID_00000037668210940109714440000007797119762282172038_);}
	.st7{fill:url(#SVGID_00000049196852747542424800000009556107200212802192_);}
	.st8{fill:url(#SVGID_00000145031138103916302320000002689050426861717941_);}
	.st9{fill:url(#SVGID_00000123413137827739707080000005307000409363295106_);}
	.st10{fill:url(#SVGID_00000118377348832724959290000013029778538274519711_);}
	.st11{opacity:0.44;}
	.st12{fill:url(#SVGID_00000015344777744293766420000014692443167384726180_);}
	.st13{fill:url(#SVGID_00000034789919546758570740000002626782989919519152_);}
	.st14{fill-rule:evenodd;clip-rule:evenodd;fill:#D6961E;}
	.st15{fill-rule:evenodd;clip-rule:evenodd;fill:url(#SVGID_00000111904348566636449180000007797205832080840368_);}
	.st16{fill-rule:evenodd;clip-rule:evenodd;fill:url(#SVGID_00000018939024083312693030000003626473745597939091_);}
	.st17{fill-rule:evenodd;clip-rule:evenodd;fill:#43304A;}
	.st18{fill-rule:evenodd;clip-rule:evenodd;fill:url(#SVGID_00000076596431916325041580000013395805225953614211_);}
	.st19{fill-rule:evenodd;clip-rule:evenodd;fill:#C28D03;}
	.st20{fill-rule:evenodd;clip-rule:evenodd;fill:#C68D0F;}
	.st21{fill-rule:evenodd;clip-rule:evenodd;fill:url(#SVGID_00000079454271127269028060000004796403024722418349_);}
	.st22{fill-rule:evenodd;clip-rule:evenodd;fill:#422E51;}
	.st23{fill:none;stroke:url(#SVGID_00000150789079810018838650000018078972771202267275_);stroke-width:0.6;stroke-linecap:round;}
	.st24{fill:none;stroke:url(#SVGID_00000140736113620530337030000001894362093353840052_);stroke-width:0.6;stroke-linecap:round;}
	.st25{fill:none;stroke:url(#SVGID_00000121989779537912664270000014333598879046730927_);stroke-width:0.4;stroke-linecap:round;}
	.st26{fill:none;stroke:url(#SVGID_00000088844480365620122240000000166424805056755859_);stroke-width:0.4;stroke-linecap:round;}
	.st27{fill:none;stroke:url(#SVGID_00000128475852499331012050000013925020829738792361_);stroke-width:0.4;stroke-linecap:round;}
	.st28{fill:none;stroke:url(#SVGID_00000106107600165573139510000011315911661588431291_);stroke-width:0.5;stroke-linecap:round;}
	.st29{opacity:0.5;}
	.st30{fill:none;stroke:url(#SVGID_00000168801976283928980160000000777378470841308575_);stroke-width:0.5;stroke-linecap:round;}
</style>
<g>
	<g>
		
			<linearGradient id="SVGID_1_" gradientUnits="userSpaceOnUse" x1="77.3984" y1="86.9601" x2="22.8797" y2="17.4018" gradientTransform="matrix(1 0 0 -1 0 102)">
			<stop  offset="0" style="stop-color:#FC8B23"/>
			<stop  offset="1" style="stop-color:#E67639"/>
		</linearGradient>
		<path class="st0" d="M41.2,4.2c5.4-6.1,12.8-5.1,17.6,0l2.9,3.3c1,1.1,2.4,1.7,3.9,1.5l5.1-1.5c7-1.5,13.3,3.7,13.3,11.8v3.1
			c0.1,1.7,1.6,2.8,3.1,3.5l4.6,1.9c6.7,3.3,8.4,11,3.5,17.6l-1.4,1.8c-1.2,1.7-1,3.9,0.2,5.6l1.4,1.9c5.1,6.2,2.2,14.7-4.9,17.7
			l-4,1.7c-1.5,0.6-2.1,1.7-2.4,3.3l-0.3,5.2c-1,7.2-7.3,10.4-12.4,9.7l-6.1-1.6c-1.5-0.2-3.3,0.3-4.2,1.8l-2.2,3
			c-5.4,6.1-12.8,5.1-16.5,1.5l-4-4.9c-1.1-1-2.4-1.9-4-1.3l-6.1,1.7c-5,0.7-11-3.2-11.9-8.2l-0.7-7.3c-0.3-1.5-1.3-2.8-2.7-3.4
			l-4.3-1.5c-6.5-3-8.6-10.3-4.9-16.4l2.4-3.3c1-1.6,0.9-3.6-0.1-5.2l-1.8-2.6c-5.1-7.3-1.6-15.4,6-17.8l1.7-0.5
			c1.8-0.6,3.6-2.1,3.8-4.1l0.4-4.7c0.6-7.6,7.5-12,14.8-9.7l2.4,0.7c2.3,0.9,4.1,0.1,5.3-1.2L41.2,4.2z"/>
		
			<radialGradient id="SVGID_00000141439228175652031990000002046521588063236542_" cx="-216.9731" cy="402.2533" r="3.5517" gradientTransform="matrix(-2.8149 2.5208 2.2241 2.4836 -1446.2412 -447.4867)" gradientUnits="userSpaceOnUse">
			<stop  offset="0.3002" style="stop-color:#FFA13A"/>
			<stop  offset="1" style="stop-color:#FFA13A;stop-opacity:0"/>
		</radialGradient>
		<path style="fill:url(#SVGID_00000141439228175652031990000002046521588063236542_);" d="M41.2,4.2c5.4-6.1,12.8-5.1,17.6,0
			l2.9,3.3c1,1.1,2.4,1.7,3.9,1.5l5.1-1.5c7-1.5,13.3,3.7,13.3,11.8v3.1c0.1,1.7,1.6,2.8,3.1,3.5l4.6,1.9c6.7,3.3,8.4,11,3.5,17.6
			l-1.4,1.8c-1.2,1.7-1,3.9,0.2,5.6l1.4,1.9c5.1,6.2,2.2,14.7-4.9,17.7l-4,1.7c-1.5,0.6-2.1,1.7-2.4,3.3l-0.3,5.2
			c-1,7.2-7.3,10.4-12.4,9.7l-6.1-1.6c-1.5-0.2-3.3,0.3-4.2,1.8l-2.2,3c-5.4,6.1-12.8,5.1-16.5,1.5l-4-4.9c-1.1-1-2.4-1.9-4-1.3
			l-6.1,1.7c-5,0.7-11-3.2-11.9-8.2l-0.7-7.3c-0.3-1.5-1.3-2.8-2.7-3.4l-4.3-1.5c-6.5-3-8.6-10.3-4.9-16.4l2.4-3.3
			c1-1.6,0.9-3.6-0.1-5.2l-1.8-2.6c-5.1-7.3-1.6-15.4,6-17.8l1.7-0.5c1.8-0.6,3.6-2.1,3.8-4.1l0.4-4.7c0.6-7.6,7.5-12,14.8-9.7
			l2.4,0.7c2.3,0.9,4.1,0.1,5.3-1.2L41.2,4.2z"/>
		
			<radialGradient id="SVGID_00000167396622538851797330000007092715056963563450_" cx="-159.795" cy="331.0267" r="3.5517" gradientTransform="matrix(2.2687 5.5623 4.9076 -2.0017 -1237.7664 1551.8192)" gradientUnits="userSpaceOnUse">
			<stop  offset="0.3002" style="stop-color:#FF942A"/>
			<stop  offset="1" style="stop-color:#FF942A;stop-opacity:0"/>
		</radialGradient>
		<path style="fill:url(#SVGID_00000167396622538851797330000007092715056963563450_);" d="M41.2,4.2c5.4-6.1,12.8-5.1,17.6,0
			l2.9,3.3c1,1.1,2.4,1.7,3.9,1.5l5.1-1.5c7-1.5,13.3,3.7,13.3,11.8v3.1c0.1,1.7,1.6,2.8,3.1,3.5l4.6,1.9c6.7,3.3,8.4,11,3.5,17.6
			l-1.4,1.8c-1.2,1.7-1,3.9,0.2,5.6l1.4,1.9c5.1,6.2,2.2,14.7-4.9,17.7l-4,1.7c-1.5,0.6-2.1,1.7-2.4,3.3l-0.3,5.2
			c-1,7.2-7.3,10.4-12.4,9.7l-6.1-1.6c-1.5-0.2-3.3,0.3-4.2,1.8l-2.2,3c-5.4,6.1-12.8,5.1-16.5,1.5l-4-4.9c-1.1-1-2.4-1.9-4-1.3
			l-6.1,1.7c-5,0.7-11-3.2-11.9-8.2l-0.7-7.3c-0.3-1.5-1.3-2.8-2.7-3.4l-4.3-1.5c-6.5-3-8.6-10.3-4.9-16.4l2.4-3.3
			c1-1.6,0.9-3.6-0.1-5.2l-1.8-2.6c-5.1-7.3-1.6-15.4,6-17.8l1.7-0.5c1.8-0.6,3.6-2.1,3.8-4.1l0.4-4.7c0.6-7.6,7.5-12,14.8-9.7
			l2.4,0.7c2.3,0.9,4.1,0.1,5.3-1.2L41.2,4.2z"/>
		
			<radialGradient id="SVGID_00000158724021838897112160000015421710203305266830_" cx="-334.2985" cy="349.5578" r="3.5517" gradientTransform="matrix(-2.3107 -0.6302 -0.8726 3.1995 -385.8936 -1308.8093)" gradientUnits="userSpaceOnUse">
			<stop  offset="0.3002" style="stop-color:#FFA13D"/>
			<stop  offset="1" style="stop-color:#FFA13D;stop-opacity:0"/>
		</radialGradient>
		<path style="fill:url(#SVGID_00000158724021838897112160000015421710203305266830_);" d="M41.2,4.2c5.4-6.1,12.8-5.1,17.6,0
			l2.9,3.3c1,1.1,2.4,1.7,3.9,1.5l5.1-1.5c7-1.5,13.3,3.7,13.3,11.8v3.1c0.1,1.7,1.6,2.8,3.1,3.5l4.6,1.9c6.7,3.3,8.4,11,3.5,17.6
			l-1.4,1.8c-1.2,1.7-1,3.9,0.2,5.6l1.4,1.9c5.1,6.2,2.2,14.7-4.9,17.7l-4,1.7c-1.5,0.6-2.1,1.7-2.4,3.3l-0.3,5.2
			c-1,7.2-7.3,10.4-12.4,9.7l-6.1-1.6c-1.5-0.2-3.3,0.3-4.2,1.8l-2.2,3c-5.4,6.1-12.8,5.1-16.5,1.5l-4-4.9c-1.1-1-2.4-1.9-4-1.3
			l-6.1,1.7c-5,0.7-11-3.2-11.9-8.2l-0.7-7.3c-0.3-1.5-1.3-2.8-2.7-3.4l-4.3-1.5c-6.5-3-8.6-10.3-4.9-16.4l2.4-3.3
			c1-1.6,0.9-3.6-0.1-5.2l-1.8-2.6c-5.1-7.3-1.6-15.4,6-17.8l1.7-0.5c1.8-0.6,3.6-2.1,3.8-4.1l0.4-4.7c0.6-7.6,7.5-12,14.8-9.7
			l2.4,0.7c2.3,0.9,4.1,0.1,5.3-1.2L41.2,4.2z"/>
		
			<radialGradient id="SVGID_00000009592172890451940940000016988015612185367693_" cx="-239.8579" cy="410.0501" r="3.5517" gradientTransform="matrix(-3.8232 1.8486 1.3653 2.8237 -1378.1633 -681.7963)" gradientUnits="userSpaceOnUse">
			<stop  offset="0.3002" style="stop-color:#FFA13D"/>
			<stop  offset="1" style="stop-color:#FFA13D;stop-opacity:0"/>
		</radialGradient>
		<path style="fill:url(#SVGID_00000009592172890451940940000016988015612185367693_);" d="M41.2,4.2c5.4-6.1,12.8-5.1,17.6,0
			l2.9,3.3c1,1.1,2.4,1.7,3.9,1.5l5.1-1.5c7-1.5,13.3,3.7,13.3,11.8v3.1c0.1,1.7,1.6,2.8,3.1,3.5l4.6,1.9c6.7,3.3,8.4,11,3.5,17.6
			l-1.4,1.8c-1.2,1.7-1,3.9,0.2,5.6l1.4,1.9c5.1,6.2,2.2,14.7-4.9,17.7l-4,1.7c-1.5,0.6-2.1,1.7-2.4,3.3l-0.3,5.2
			c-1,7.2-7.3,10.4-12.4,9.7l-6.1-1.6c-1.5-0.2-3.3,0.3-4.2,1.8l-2.2,3c-5.4,6.1-12.8,5.1-16.5,1.5l-4-4.9c-1.1-1-2.4-1.9-4-1.3
			l-6.1,1.7c-5,0.7-11-3.2-11.9-8.2l-0.7-7.3c-0.3-1.5-1.3-2.8-2.7-3.4l-4.3-1.5c-6.5-3-8.6-10.3-4.9-16.4l2.4-3.3
			c1-1.6,0.9-3.6-0.1-5.2l-1.8-2.6c-5.1-7.3-1.6-15.4,6-17.8l1.7-0.5c1.8-0.6,3.6-2.1,3.8-4.1l0.4-4.7c0.6-7.6,7.5-12,14.8-9.7
			l2.4,0.7c2.3,0.9,4.1,0.1,5.3-1.2L41.2,4.2z"/>
		
			<radialGradient id="SVGID_00000038392709800416046450000001427839655440000683_" cx="-268.9038" cy="386.1843" r="3.5517" gradientTransform="matrix(-4.7055 -0.5462 -0.3078 2.6517 -1044.454 -1112.7427)" gradientUnits="userSpaceOnUse">
			<stop  offset="0.3002" style="stop-color:#FFA13D"/>
			<stop  offset="1" style="stop-color:#FFA13D;stop-opacity:0"/>
		</radialGradient>
		<path style="fill:url(#SVGID_00000038392709800416046450000001427839655440000683_);" d="M41.2,4.2c5.4-6.1,12.8-5.1,17.6,0
			l2.9,3.3c1,1.1,2.4,1.7,3.9,1.5l5.1-1.5c7-1.5,13.3,3.7,13.3,11.8v3.1c0.1,1.7,1.6,2.8,3.1,3.5l4.6,1.9c6.7,3.3,8.4,11,3.5,17.6
			l-1.4,1.8c-1.2,1.7-1,3.9,0.2,5.6l1.4,1.9c5.1,6.2,2.2,14.7-4.9,17.7l-4,1.7c-1.5,0.6-2.1,1.7-2.4,3.3l-0.3,5.2
			c-1,7.2-7.3,10.4-12.4,9.7l-6.1-1.6c-1.5-0.2-3.3,0.3-4.2,1.8l-2.2,3c-5.4,6.1-12.8,5.1-16.5,1.5l-4-4.9c-1.1-1-2.4-1.9-4-1.3
			l-6.1,1.7c-5,0.7-11-3.2-11.9-8.2l-0.7-7.3c-0.3-1.5-1.3-2.8-2.7-3.4l-4.3-1.5c-6.5-3-8.6-10.3-4.9-16.4l2.4-3.3
			c1-1.6,0.9-3.6-0.1-5.2l-1.8-2.6c-5.1-7.3-1.6-15.4,6-17.8l1.7-0.5c1.8-0.6,3.6-2.1,3.8-4.1l0.4-4.7c0.6-7.6,7.5-12,14.8-9.7
			l2.4,0.7c2.3,0.9,4.1,0.1,5.3-1.2L41.2,4.2z"/>
		
			<radialGradient id="SVGID_00000108304695827617439860000008758382394921780353_" cx="-202.3574" cy="217.4557" r="3.5517" gradientTransform="matrix(3.0928 -2.983 -2.8737 -2.9796 1337.6992 122.0343)" gradientUnits="userSpaceOnUse">
			<stop  offset="0" style="stop-color:#E0762A"/>
			<stop  offset="1" style="stop-color:#E0762A;stop-opacity:0"/>
		</radialGradient>
		<path style="fill:url(#SVGID_00000108304695827617439860000008758382394921780353_);" d="M41.2,4.2c5.4-6.1,12.8-5.1,17.6,0
			l2.9,3.3c1,1.1,2.4,1.7,3.9,1.5l5.1-1.5c7-1.5,13.3,3.7,13.3,11.8v3.1c0.1,1.7,1.6,2.8,3.1,3.5l4.6,1.9c6.7,3.3,8.4,11,3.5,17.6
			l-1.4,1.8c-1.2,1.7-1,3.9,0.2,5.6l1.4,1.9c5.1,6.2,2.2,14.7-4.9,17.7l-4,1.7c-1.5,0.6-2.1,1.7-2.4,3.3l-0.3,5.2
			c-1,7.2-7.3,10.4-12.4,9.7l-6.1-1.6c-1.5-0.2-3.3,0.3-4.2,1.8l-2.2,3c-5.4,6.1-12.8,5.1-16.5,1.5l-4-4.9c-1.1-1-2.4-1.9-4-1.3
			l-6.1,1.7c-5,0.7-11-3.2-11.9-8.2l-0.7-7.3c-0.3-1.5-1.3-2.8-2.7-3.4l-4.3-1.5c-6.5-3-8.6-10.3-4.9-16.4l2.4-3.3
			c1-1.6,0.9-3.6-0.1-5.2l-1.8-2.6c-5.1-7.3-1.6-15.4,6-17.8l1.7-0.5c1.8-0.6,3.6-2.1,3.8-4.1l0.4-4.7c0.6-7.6,7.5-12,14.8-9.7
			l2.4,0.7c2.3,0.9,4.1,0.1,5.3-1.2L41.2,4.2z"/>
		
			<radialGradient id="SVGID_00000158725282190426819240000010588513493902591619_" cx="-306.4268" cy="302.9592" r="3.5517" gradientTransform="matrix(-2.0167 -2.6048 -2.5094 1.9428 158.5053 -1312.6324)" gradientUnits="userSpaceOnUse">
			<stop  offset="0" style="stop-color:#E0762A"/>
			<stop  offset="1" style="stop-color:#E0762A;stop-opacity:0"/>
		</radialGradient>
		<path style="fill:url(#SVGID_00000158725282190426819240000010588513493902591619_);" d="M41.2,4.2c5.4-6.1,12.8-5.1,17.6,0
			l2.9,3.3c1,1.1,2.4,1.7,3.9,1.5l5.1-1.5c7-1.5,13.3,3.7,13.3,11.8v3.1c0.1,1.7,1.6,2.8,3.1,3.5l4.6,1.9c6.7,3.3,8.4,11,3.5,17.6
			l-1.4,1.8c-1.2,1.7-1,3.9,0.2,5.6l1.4,1.9c5.1,6.2,2.2,14.7-4.9,17.7l-4,1.7c-1.5,0.6-2.1,1.7-2.4,3.3l-0.3,5.2
			c-1,7.2-7.3,10.4-12.4,9.7l-6.1-1.6c-1.5-0.2-3.3,0.3-4.2,1.8l-2.2,3c-5.4,6.1-12.8,5.1-16.5,1.5l-4-4.9c-1.1-1-2.4-1.9-4-1.3
			l-6.1,1.7c-5,0.7-11-3.2-11.9-8.2l-0.7-7.3c-0.3-1.5-1.3-2.8-2.7-3.4l-4.3-1.5c-6.5-3-8.6-10.3-4.9-16.4l2.4-3.3
			c1-1.6,0.9-3.6-0.1-5.2l-1.8-2.6c-5.1-7.3-1.6-15.4,6-17.8l1.7-0.5c1.8-0.6,3.6-2.1,3.8-4.1l0.4-4.7c0.6-7.6,7.5-12,14.8-9.7
			l2.4,0.7c2.3,0.9,4.1,0.1,5.3-1.2L41.2,4.2z"/>
		
			<radialGradient id="SVGID_00000147901243770996337820000013835564855893452439_" cx="-120.9754" cy="277.4838" r="3.5517" gradientTransform="matrix(3.025 1.4285 1.7265 -3.6561 -112.8897 1221.9225)" gradientUnits="userSpaceOnUse">
			<stop  offset="0" style="stop-color:#F0851D"/>
			<stop  offset="1" style="stop-color:#F0851D;stop-opacity:0"/>
		</radialGradient>
		<path style="fill:url(#SVGID_00000147901243770996337820000013835564855893452439_);" d="M41.2,4.2c5.4-6.1,12.8-5.1,17.6,0
			l2.9,3.3c1,1.1,2.4,1.7,3.9,1.5l5.1-1.5c7-1.5,13.3,3.7,13.3,11.8v3.1c0.1,1.7,1.6,2.8,3.1,3.5l4.6,1.9c6.7,3.3,8.4,11,3.5,17.6
			l-1.4,1.8c-1.2,1.7-1,3.9,0.2,5.6l1.4,1.9c5.1,6.2,2.2,14.7-4.9,17.7l-4,1.7c-1.5,0.6-2.1,1.7-2.4,3.3l-0.3,5.2
			c-1,7.2-7.3,10.4-12.4,9.7l-6.1-1.6c-1.5-0.2-3.3,0.3-4.2,1.8l-2.2,3c-5.4,6.1-12.8,5.1-16.5,1.5l-4-4.9c-1.1-1-2.4-1.9-4-1.3
			l-6.1,1.7c-5,0.7-11-3.2-11.9-8.2l-0.7-7.3c-0.3-1.5-1.3-2.8-2.7-3.4l-4.3-1.5c-6.5-3-8.6-10.3-4.9-16.4l2.4-3.3
			c1-1.6,0.9-3.6-0.1-5.2l-1.8-2.6c-5.1-7.3-1.6-15.4,6-17.8l1.7-0.5c1.8-0.6,3.6-2.1,3.8-4.1l0.4-4.7c0.6-7.6,7.5-12,14.8-9.7
			l2.4,0.7c2.3,0.9,4.1,0.1,5.3-1.2L41.2,4.2z"/>
		
			<radialGradient id="SVGID_00000144329696186909625250000014500822434464660110_" cx="-299.0171" cy="323.3784" r="3.5517" gradientTransform="matrix(-3.0937 -2.375 -2.2406 2.9187 -129.3505 -1559.3325)" gradientUnits="userSpaceOnUse">
			<stop  offset="0.3366" style="stop-color:#E3745B"/>
			<stop  offset="1" style="stop-color:#E3745B;stop-opacity:0"/>
		</radialGradient>
		<path style="fill:url(#SVGID_00000144329696186909625250000014500822434464660110_);" d="M41.2,4.2c5.4-6.1,12.8-5.1,17.6,0
			l2.9,3.3c1,1.1,2.4,1.7,3.9,1.5l5.1-1.5c7-1.5,13.3,3.7,13.3,11.8v3.1c0.1,1.7,1.6,2.8,3.1,3.5l4.6,1.9c6.7,3.3,8.4,11,3.5,17.6
			l-1.4,1.8c-1.2,1.7-1,3.9,0.2,5.6l1.4,1.9c5.1,6.2,2.2,14.7-4.9,17.7l-4,1.7c-1.5,0.6-2.1,1.7-2.4,3.3l-0.3,5.2
			c-1,7.2-7.3,10.4-12.4,9.7l-6.1-1.6c-1.5-0.2-3.3,0.3-4.2,1.8l-2.2,3c-5.4,6.1-12.8,5.1-16.5,1.5l-4-4.9c-1.1-1-2.4-1.9-4-1.3
			l-6.1,1.7c-5,0.7-11-3.2-11.9-8.2l-0.7-7.3c-0.3-1.5-1.3-2.8-2.7-3.4l-4.3-1.5c-6.5-3-8.6-10.3-4.9-16.4l2.4-3.3
			c1-1.6,0.9-3.6-0.1-5.2l-1.8-2.6c-5.1-7.3-1.6-15.4,6-17.8l1.7-0.5c1.8-0.6,3.6-2.1,3.8-4.1l0.4-4.7c0.6-7.6,7.5-12,14.8-9.7
			l2.4,0.7c2.3,0.9,4.1,0.1,5.3-1.2L41.2,4.2z"/>
	</g>
	<g>
		
			<radialGradient id="SVGID_00000009568117632634335030000012874514094732497593_" cx="-204.673" cy="325.9835" r="3.5517" gradientTransform="matrix(-11.305 13.3483 13.6021 11.5199 -6676.2446 -995.4653)" gradientUnits="userSpaceOnUse">
			<stop  offset="0.1718" style="stop-color:#FFD13D"/>
			<stop  offset="1" style="stop-color:#DCA21C"/>
		</radialGradient>
		<path style="fill:url(#SVGID_00000009568117632634335030000012874514094732497593_);" d="M50,88.1c21.1,0,38.2-17.1,38.2-38.2
			S71.1,11.8,50,11.8S11.8,28.8,11.8,49.9S28.9,88.1,50,88.1z"/>
	</g>
	<g class="st11">
		
			<radialGradient id="SVGID_00000181062760453495060740000012061948689960671887_" cx="-135.8276" cy="232.1025" r="3.5515" gradientTransform="matrix(3.2108 0 0 -3.2108 462.6436 797.3033)" gradientUnits="userSpaceOnUse">
			<stop  offset="0.25" style="stop-color:#ED501F"/>
			<stop  offset="0.8954" style="stop-color:#F18A42;stop-opacity:0"/>
		</radialGradient>
		<path style="fill:url(#SVGID_00000181062760453495060740000012061948689960671887_);" d="M26.5,62.6c5.8,0,10.5-4.7,10.5-10.5
			c0-5.8-4.7-10.5-10.5-10.5c-5.8,0-10.5,4.7-10.5,10.5C16,57.9,20.7,62.6,26.5,62.6z"/>
	</g>
	<g class="st11">
		
			<radialGradient id="SVGID_00000178909620434152208710000013949895215704339354_" cx="-125.3214" cy="232.1025" r="3.5515" gradientTransform="matrix(3.2108 0 0 -3.2108 475.8637 797.3033)" gradientUnits="userSpaceOnUse">
			<stop  offset="0.1302" style="stop-color:#FB6738"/>
			<stop  offset="0.8954" style="stop-color:#F18A42;stop-opacity:0"/>
		</radialGradient>
		<path style="fill:url(#SVGID_00000178909620434152208710000013949895215704339354_);" d="M73.5,62.6c5.8,0,10.5-4.7,10.5-10.5
			c0-5.8-4.7-10.5-10.5-10.5c-5.8,0-10.5,4.7-10.5,10.5C63,57.9,67.7,62.6,73.5,62.6z"/>
	</g>
	<g>
		<path class="st14" d="M32.4,57.4c1-1,2.7-1,3.8,0c7.7,7.7,20.1,7.7,27.7,0c1-1,2.7-1,3.8,0c1,1,1,2.7,0,3.8
			c-9.7,9.7-25.5,9.7-35.3,0C31.3,60.2,31.3,58.5,32.4,57.4z"/>
	</g>
	<g>
		
			<linearGradient id="SVGID_00000099625504311025100330000017908457538019135158_" gradientUnits="userSpaceOnUse" x1="32.4899" y1="40.7463" x2="69.3213" y2="40.7463" gradientTransform="matrix(1 0 0 -1 0 102)">
			<stop  offset="0" style="stop-color:#31243C"/>
			<stop  offset="1" style="stop-color:#3F2950"/>
		</linearGradient>
		<path style="fill-rule:evenodd;clip-rule:evenodd;fill:url(#SVGID_00000099625504311025100330000017908457538019135158_);" d="
			M33.3,56.1c1-1,2.7-1,3.8,0c7.7,7.7,20.1,7.7,27.7,0c1-1,2.7-1,3.8,0s1,2.7,0,3.8c-9.7,9.7-25.5,9.7-35.3,0
			C32.2,58.8,32.2,57.1,33.3,56.1z"/>
		
			<linearGradient id="SVGID_00000179621578531712144110000013738800057913527180_" gradientUnits="userSpaceOnUse" x1="61.3987" y1="53.7419" x2="59.2471" y2="51.7441" gradientTransform="matrix(1 0 0 -1 0 102)">
			<stop  offset="0" style="stop-color:#665C6D"/>
			<stop  offset="1" style="stop-color:#665C6D;stop-opacity:0"/>
		</linearGradient>
		<path style="fill-rule:evenodd;clip-rule:evenodd;fill:url(#SVGID_00000179621578531712144110000013738800057913527180_);" d="
			M33.3,56.1c1-1,2.7-1,3.8,0c7.7,7.7,20.1,7.7,27.7,0c1-1,2.7-1,3.8,0s1,2.7,0,3.8c-9.7,9.7-25.5,9.7-35.3,0
			C32.2,58.8,32.2,57.1,33.3,56.1z"/>
	</g>
	<g>
		<path class="st17" d="M32.4,25.8c-4.8,0-8.8,3.9-8.8,8.8c0,1-0.8,1.8-1.8,1.8c-1,0-1.8-0.8-1.8-1.8c0-6.8,5.6-12.4,12.4-12.4
			c1,0,1.8,0.8,1.8,1.8C34.2,25,33.4,25.8,32.4,25.8z"/>
		
			<radialGradient id="SVGID_00000165950762399188929710000009275343967228800420_" cx="-173.1826" cy="587.0119" r="3.5517" gradientTransform="matrix(-0.6845 0.8906 0.8906 0.6845 -607.1522 -223.9997)" gradientUnits="userSpaceOnUse">
			<stop  offset="0" style="stop-color:#59525C"/>
			<stop  offset="1" style="stop-color:#59525C;stop-opacity:0"/>
		</radialGradient>
		<path style="fill-rule:evenodd;clip-rule:evenodd;fill:url(#SVGID_00000165950762399188929710000009275343967228800420_);" d="
			M32.4,25.8c-4.8,0-8.8,3.9-8.8,8.8c0,1-0.8,1.8-1.8,1.8c-1,0-1.8-0.8-1.8-1.8c0-6.8,5.6-12.4,12.4-12.4c1,0,1.8,0.8,1.8,1.8
			C34.2,25,33.4,25.8,32.4,25.8z"/>
	</g>
	<g>
		<path class="st19" d="M67.1,24.8c0-0.9,0.8-1.7,1.7-1.7c6.6,0,11.9,5.3,11.9,11.9c0,0.9-0.8,1.7-1.7,1.7c-0.9,0-1.7-0.8-1.7-1.7
			c0-4.7-3.8-8.5-8.5-8.5C67.8,26.6,67.1,25.8,67.1,24.8z"/>
	</g>
	<g>
		<path class="st17" d="M67.5,24c0-1,0.8-1.8,1.8-1.8c6.8,0,12.4,5.5,12.4,12.4c0,1-0.8,1.8-1.8,1.8c-1,0-1.8-0.8-1.8-1.8
			c0-4.9-4-8.8-8.8-8.8C68.3,25.8,67.5,25,67.5,24z"/>
	</g>
	<g>
		<path class="st20" d="M35.2,38.8c-1.9,0-3.5,1.2-4.2,2.8c-0.5,1.3-1.9,1.9-3.2,1.4c-1.3-0.5-1.9-1.9-1.4-3.2
			c1.4-3.5,4.8-5.9,8.8-5.9c4.2,0,7.7,2.7,8.9,6.5c0.4,1.3-0.3,2.7-1.6,3.1c-1.3,0.4-2.7-0.3-3.1-1.6C38.9,40.1,37.2,38.8,35.2,38.8
			z"/>
	</g>
	
		<linearGradient id="SVGID_00000010279049360277467710000001213242054125652651_" gradientUnits="userSpaceOnUse" x1="25.9899" y1="63.9341" x2="45.5258" y2="63.9341" gradientTransform="matrix(1 0 0 -1 0 102)">
		<stop  offset="0" style="stop-color:#2E2931"/>
		<stop  offset="1" style="stop-color:#362A3F"/>
	</linearGradient>
	<path style="fill-rule:evenodd;clip-rule:evenodd;fill:url(#SVGID_00000010279049360277467710000001213242054125652651_);" d="
		M35.7,38.1c-2.1,0-3.8,1.3-4.6,3.1c-0.5,1.4-2.1,2-3.5,1.5c-1.4-0.5-2-2.1-1.5-3.5c1.5-3.8,5.2-6.4,9.5-6.4c4.5,0,8.4,2.9,9.7,7
		c0.5,1.4-0.3,2.9-1.7,3.4c-1.4,0.5-2.9-0.3-3.4-1.7C39.7,39.5,37.8,38.1,35.7,38.1z"/>
	<g>
		<path class="st20" d="M66,38.8c-1.9,0-3.5,1.2-4.2,2.8c-0.5,1.3-1.9,1.9-3.2,1.4c-1.3-0.5-1.9-1.9-1.4-3.2
			c1.4-3.5,4.8-5.9,8.8-5.9c4.2,0,7.7,2.7,8.9,6.5c0.4,1.3-0.3,2.7-1.6,3.1c-1.3,0.4-2.7-0.3-3.1-1.6C69.6,40.1,68,38.8,66,38.8z"/>
	</g>
	<g>
		<path class="st22" d="M66.3,38.1c-2.1,0-3.8,1.3-4.6,3.1c-0.5,1.4-2.1,2-3.5,1.5c-1.4-0.5-2-2.1-1.5-3.5c1.5-3.8,5.2-6.4,9.5-6.4
			c4.5,0,8.4,2.9,9.7,7c0.5,1.4-0.3,2.9-1.7,3.4c-1.4,0.5-2.9-0.3-3.4-1.7C70.3,39.5,68.5,38.1,66.3,38.1z"/>
	</g>
	<g>
		
			<linearGradient id="SVGID_00000081641199001688617830000004469101658363830716_" gradientUnits="userSpaceOnUse" x1="37.4735" y1="50.1889" x2="53.07" y2="42.3073" gradientTransform="matrix(1 0 0 -1 0 102)">
			<stop  offset="0" style="stop-color:#4E4753"/>
			<stop  offset="1" style="stop-color:#4E4753;stop-opacity:0"/>
		</linearGradient>
		
			<path style="fill:none;stroke:url(#SVGID_00000081641199001688617830000004469101658363830716_);stroke-width:0.6;stroke-linecap:round;" d="
			M35.3,58.1c5.1,4.8,18.5,11.5,31.1,0"/>
		
			<linearGradient id="SVGID_00000136410879128450569580000017000023473492357275_" gradientUnits="userSpaceOnUse" x1="65.5553" y1="50.6049" x2="46.3394" y2="41.1003" gradientTransform="matrix(1 0 0 -1 0 102)">
			<stop  offset="8.973520e-02" style="stop-color:#5E5468"/>
			<stop  offset="1" style="stop-color:#5E5468;stop-opacity:0"/>
		</linearGradient>
		
			<path style="fill:none;stroke:url(#SVGID_00000136410879128450569580000017000023473492357275_);stroke-width:0.6;stroke-linecap:round;" d="
			M35.3,58.1c5.1,4.8,18.5,11.5,31.1,0"/>
	</g>
	<g>
		
			<linearGradient id="SVGID_00000101089779309501400150000011129653719302795911_" gradientUnits="userSpaceOnUse" x1="68.3845" y1="77.9588" x2="75.8721" y2="73.1751" gradientTransform="matrix(1 0 0 -1 0 102)">
			<stop  offset="0" style="stop-color:#60556A"/>
			<stop  offset="1" style="stop-color:#60556A;stop-opacity:0"/>
		</linearGradient>
		
			<path style="fill:none;stroke:url(#SVGID_00000101089779309501400150000011129653719302795911_);stroke-width:0.4;stroke-linecap:round;" d="
			M69.6,23.5c3.1,0,9.9,2.5,10.5,10.9"/>
		
			<linearGradient id="SVGID_00000173880903982084070710000014823789268023763894_" gradientUnits="userSpaceOnUse" x1="78.5483" y1="68.1465" x2="72.1002" y2="78.9628" gradientTransform="matrix(1 0 0 -1 0 102)">
			<stop  offset="0" style="stop-color:#5D4F69"/>
			<stop  offset="1" style="stop-color:#5D4F69;stop-opacity:0"/>
		</linearGradient>
		
			<path style="fill:none;stroke:url(#SVGID_00000173880903982084070710000014823789268023763894_);stroke-width:0.4;stroke-linecap:round;" d="
			M69.6,23.5c3.1,0,9.9,2.5,10.5,10.9"/>
	</g>
	<g>
		
			<linearGradient id="SVGID_00000016056506077798704580000018337278131901095560_" gradientUnits="userSpaceOnUse" x1="24.8425" y1="66.953" x2="25.1632" y2="76.5401" gradientTransform="matrix(1 0 0 -1 0 102)">
			<stop  offset="0" style="stop-color:#524D53"/>
			<stop  offset="1" style="stop-color:#524D53;stop-opacity:0"/>
		</linearGradient>
		
			<path style="fill:none;stroke:url(#SVGID_00000016056506077798704580000018337278131901095560_);stroke-width:0.4;stroke-linecap:round;" d="
			M22,34.3c0.1-2.5,1.6-7.2,6-9.2"/>
	</g>
	<g>
		
			<linearGradient id="SVGID_00000150788299772631485610000017151190693999687316_" gradientUnits="userSpaceOnUse" x1="40.9929" y1="63.8256" x2="33.3388" y2="65.0025" gradientTransform="matrix(1 0 0 -1 0 102)">
			<stop  offset="0" style="stop-color:#524D53"/>
			<stop  offset="1" style="stop-color:#5C5463;stop-opacity:0"/>
		</linearGradient>
		
			<path style="fill:none;stroke:url(#SVGID_00000150788299772631485610000017151190693999687316_);stroke-width:0.5;stroke-linecap:round;" d="
			M43.3,41.1c-0.4-2.4-2.9-6.9-9.6-6.1"/>
	</g>
	<g class="st29">
		
			<linearGradient id="SVGID_00000023995030658278951100000013111215758203055273_" gradientUnits="userSpaceOnUse" x1="69.9611" y1="63.4962" x2="58.3645" y2="65.1667" gradientTransform="matrix(1 0 0 -1 0 102)">
			<stop  offset="0" style="stop-color:#61556C"/>
			<stop  offset="1" style="stop-color:#554A5F"/>
		</linearGradient>
		
			<path style="fill:none;stroke:url(#SVGID_00000023995030658278951100000013111215758203055273_);stroke-width:0.5;stroke-linecap:round;" d="
			M59.6,39.7c0.7-1.5,2.9-4.6,6.7-4.4c3.8,0.2,6.8,2.8,7.6,4.4"/>
	</g>
</g>
</svg>
