<?xml version="1.0" encoding="utf-8"?>
<!-- Generator: Adobe Illustrator 27.3.1, SVG Export Plug-In . SVG Version: 6.00 Build 0)  -->
<svg version="1.1" id="Layer_1" xmlns="http://www.w3.org/2000/svg" xmlns:xlink="http://www.w3.org/1999/xlink" x="0px" y="0px"
	 viewBox="0 0 100 100" style="enable-background:new 0 0 100 100;" xml:space="preserve">
<style type="text/css">
	.st0{fill:url(#SVGID_1_);}
	.st1{fill:url(#SVGID_00000169524737675087808650000004182289093381608583_);}
	.st2{fill:url(#SVGID_00000097472907780778760840000004183439437380152761_);}
	.st3{fill:url(#SVGID_00000005265168697982199240000010767315781402815389_);}
	.st4{fill:url(#SVGID_00000091706501213635902610000003808425808214478234_);}
	.st5{fill:url(#SVGID_00000094582847375104515440000009566088457850707349_);}
	.st6{fill:url(#SVGID_00000020364014807319440740000000849508652374484613_);}
	.st7{fill:url(#SVGID_00000078746795408738675480000009027580094941044390_);}
	.st8{fill:url(#SVGID_00000035504006317678257630000004226374657036335254_);}
	.st9{fill:url(#SVGID_00000172431224820005613880000008152450987132057273_);}
	.st10{fill:url(#SVGID_00000012464179291140126350000011385429944073720985_);}
</style>
<g>
	<g>
		
			<linearGradient id="SVGID_1_" gradientUnits="userSpaceOnUse" x1="77.3985" y1="86.96" x2="22.8797" y2="17.4018" gradientTransform="matrix(1 0 0 -1 0 102)">
			<stop  offset="0" style="stop-color:#FC8B23"/>
			<stop  offset="1" style="stop-color:#E67639"/>
		</linearGradient>
		<path class="st0" d="M41.2,4.2c5.4-6.1,12.8-5.1,17.6,0l2.9,3.3c1,1.1,2.4,1.7,3.9,1.5l5.1-1.5c7-1.5,13.3,3.7,13.3,11.8v3.1
			c0.1,1.7,1.6,2.8,3.1,3.5l4.6,1.9c6.7,3.3,8.4,11,3.5,17.6l-1.4,1.8c-1.2,1.7-1,3.9,0.2,5.6l1.4,1.9c5.1,6.2,2.2,14.7-4.9,17.7
			l-4,1.7c-1.5,0.6-2.1,1.7-2.4,3.3l-0.3,5.2c-1,7.2-7.3,10.4-12.4,9.7l-6.1-1.6c-1.5-0.2-3.3,0.3-4.2,1.8l-2.2,3
			c-5.4,6.1-12.8,5.1-16.5,1.5l-4-4.9c-1.1-1-2.4-1.9-4-1.3l-6.1,1.7c-5,0.7-11-3.2-11.9-8.2l-0.7-7.3c-0.3-1.5-1.3-2.8-2.7-3.4
			l-4.3-1.5c-6.5-3-8.6-10.3-4.9-16.4l2.4-3.3c1-1.6,0.9-3.6-0.1-5.2l-1.8-2.6c-5.1-7.3-1.6-15.4,6-17.8l1.7-0.5
			c1.8-0.6,3.6-2.1,3.8-4.1l0.4-4.7c0.6-7.6,7.5-12,14.8-9.7l2.4,0.7c2.3,0.9,4.1,0.1,5.3-1.2L41.2,4.2z"/>
		
			<radialGradient id="SVGID_00000096772896553154067770000000464325103351355807_" cx="-209.9597" cy="408.2399" r="1" gradientTransform="matrix(-9.9977 8.9532 7.8995 8.8211 -5264.8154 -1716.7139)" gradientUnits="userSpaceOnUse">
			<stop  offset="0.3002" style="stop-color:#FFA13A"/>
			<stop  offset="1" style="stop-color:#FFA13A;stop-opacity:0"/>
		</radialGradient>
		<path style="fill:url(#SVGID_00000096772896553154067770000000464325103351355807_);" d="M41.2,4.2c5.4-6.1,12.8-5.1,17.6,0
			l2.9,3.3c1,1.1,2.4,1.7,3.9,1.5l5.1-1.5c7-1.5,13.3,3.7,13.3,11.8v3.1c0.1,1.7,1.6,2.8,3.1,3.5l4.6,1.9c6.7,3.3,8.4,11,3.5,17.6
			l-1.4,1.8c-1.2,1.7-1,3.9,0.2,5.6l1.4,1.9c5.1,6.2,2.2,14.7-4.9,17.7l-4,1.7c-1.5,0.6-2.1,1.7-2.4,3.3l-0.3,5.2
			c-1,7.2-7.3,10.4-12.4,9.7l-6.1-1.6c-1.5-0.2-3.3,0.3-4.2,1.8l-2.2,3c-5.4,6.1-12.8,5.1-16.5,1.5l-4-4.9c-1.1-1-2.4-1.9-4-1.3
			l-6.1,1.7c-5,0.7-11-3.2-11.9-8.2l-0.7-7.3c-0.3-1.5-1.3-2.8-2.7-3.4l-4.3-1.5c-6.5-3-8.6-10.3-4.9-16.4l2.4-3.3
			c1-1.6,0.9-3.6-0.1-5.2l-1.8-2.6c-5.1-7.3-1.6-15.4,6-17.8l1.7-0.5c1.8-0.6,3.6-2.1,3.8-4.1l0.4-4.7c0.6-7.6,7.5-12,14.8-9.7
			l2.4,0.7c2.3,0.9,4.1,0.1,5.3-1.2L41.2,4.2z"/>
		
			<radialGradient id="SVGID_00000043439350029663591900000012703512209207209900_" cx="-153.1358" cy="331.7503" r="1" gradientTransform="matrix(8.0579 19.7556 17.4305 -7.1095 -4524.3726 5384.2495)" gradientUnits="userSpaceOnUse">
			<stop  offset="0.3002" style="stop-color:#FF942A"/>
			<stop  offset="1" style="stop-color:#FF942A;stop-opacity:0"/>
		</radialGradient>
		<path style="fill:url(#SVGID_00000043439350029663591900000012703512209207209900_);" d="M41.2,4.2c5.4-6.1,12.8-5.1,17.6,0
			l2.9,3.3c1,1.1,2.4,1.7,3.9,1.5l5.1-1.5c7-1.5,13.3,3.7,13.3,11.8v3.1c0.1,1.7,1.6,2.8,3.1,3.5l4.6,1.9c6.7,3.3,8.4,11,3.5,17.6
			l-1.4,1.8c-1.2,1.7-1,3.9,0.2,5.6l1.4,1.9c5.1,6.2,2.2,14.7-4.9,17.7l-4,1.7c-1.5,0.6-2.1,1.7-2.4,3.3l-0.3,5.2
			c-1,7.2-7.3,10.4-12.4,9.7l-6.1-1.6c-1.5-0.2-3.3,0.3-4.2,1.8l-2.2,3c-5.4,6.1-12.8,5.1-16.5,1.5l-4-4.9c-1.1-1-2.4-1.9-4-1.3
			l-6.1,1.7c-5,0.7-11-3.2-11.9-8.2l-0.7-7.3c-0.3-1.5-1.3-2.8-2.7-3.4l-4.3-1.5c-6.5-3-8.6-10.3-4.9-16.4l2.4-3.3
			c1-1.6,0.9-3.6-0.1-5.2l-1.8-2.6c-5.1-7.3-1.6-15.4,6-17.8l1.7-0.5c1.8-0.6,3.6-2.1,3.8-4.1l0.4-4.7c0.6-7.6,7.5-12,14.8-9.7
			l2.4,0.7c2.3,0.9,4.1,0.1,5.3-1.2L41.2,4.2z"/>
		
			<radialGradient id="SVGID_00000151540876850132152230000002213052665517412480_" cx="-327.5711" cy="357.5374" r="1" gradientTransform="matrix(-8.2071 -2.2383 -3.0992 11.3638 -1498.7638 -4775.8857)" gradientUnits="userSpaceOnUse">
			<stop  offset="0.3002" style="stop-color:#FFA13D"/>
			<stop  offset="1" style="stop-color:#FFA13D;stop-opacity:0"/>
		</radialGradient>
		<path style="fill:url(#SVGID_00000151540876850132152230000002213052665517412480_);" d="M41.2,4.2c5.4-6.1,12.8-5.1,17.6,0
			l2.9,3.3c1,1.1,2.4,1.7,3.9,1.5l5.1-1.5c7-1.5,13.3,3.7,13.3,11.8v3.1c0.1,1.7,1.6,2.8,3.1,3.5l4.6,1.9c6.7,3.3,8.4,11,3.5,17.6
			l-1.4,1.8c-1.2,1.7-1,3.9,0.2,5.6l1.4,1.9c5.1,6.2,2.2,14.7-4.9,17.7l-4,1.7c-1.5,0.6-2.1,1.7-2.4,3.3l-0.3,5.2
			c-1,7.2-7.3,10.4-12.4,9.7l-6.1-1.6c-1.5-0.2-3.3,0.3-4.2,1.8l-2.2,3c-5.4,6.1-12.8,5.1-16.5,1.5l-4-4.9c-1.1-1-2.4-1.9-4-1.3
			l-6.1,1.7c-5,0.7-11-3.2-11.9-8.2l-0.7-7.3c-0.3-1.5-1.3-2.8-2.7-3.4l-4.3-1.5c-6.5-3-8.6-10.3-4.9-16.4l2.4-3.3
			c1-1.6,0.9-3.6-0.1-5.2l-1.8-2.6c-5.1-7.3-1.6-15.4,6-17.8l1.7-0.5c1.8-0.6,3.6-2.1,3.8-4.1l0.4-4.7c0.6-7.6,7.5-12,14.8-9.7
			l2.4,0.7c2.3,0.9,4.1,0.1,5.3-1.2L41.2,4.2z"/>
		
			<radialGradient id="SVGID_00000169554484868816731010000000020926299170190259_" cx="-231.2023" cy="408.7725" r="1" gradientTransform="matrix(-13.5789 6.5658 4.8493 10.0291 -5023.0225 -2548.9143)" gradientUnits="userSpaceOnUse">
			<stop  offset="0.3002" style="stop-color:#FFA13D"/>
			<stop  offset="1" style="stop-color:#FFA13D;stop-opacity:0"/>
		</radialGradient>
		<path style="fill:url(#SVGID_00000169554484868816731010000000020926299170190259_);" d="M41.2,4.2c5.4-6.1,12.8-5.1,17.6,0
			l2.9,3.3c1,1.1,2.4,1.7,3.9,1.5l5.1-1.5c7-1.5,13.3,3.7,13.3,11.8v3.1c0.1,1.7,1.6,2.8,3.1,3.5l4.6,1.9c6.7,3.3,8.4,11,3.5,17.6
			l-1.4,1.8c-1.2,1.7-1,3.9,0.2,5.6l1.4,1.9c5.1,6.2,2.2,14.7-4.9,17.7l-4,1.7c-1.5,0.6-2.1,1.7-2.4,3.3l-0.3,5.2
			c-1,7.2-7.3,10.4-12.4,9.7l-6.1-1.6c-1.5-0.2-3.3,0.3-4.2,1.8l-2.2,3c-5.4,6.1-12.8,5.1-16.5,1.5l-4-4.9c-1.1-1-2.4-1.9-4-1.3
			l-6.1,1.7c-5,0.7-11-3.2-11.9-8.2l-0.7-7.3c-0.3-1.5-1.3-2.8-2.7-3.4l-4.3-1.5c-6.5-3-8.6-10.3-4.9-16.4l2.4-3.3
			c1-1.6,0.9-3.6-0.1-5.2l-1.8-2.6c-5.1-7.3-1.6-15.4,6-17.8l1.7-0.5c1.8-0.6,3.6-2.1,3.8-4.1l0.4-4.7c0.6-7.6,7.5-12,14.8-9.7
			l2.4,0.7c2.3,0.9,4.1,0.1,5.3-1.2L41.2,4.2z"/>
		
			<radialGradient id="SVGID_00000039105407083946718610000011586381566134326676_" cx="-260.9597" cy="385.5809" r="1" gradientTransform="matrix(-16.7126 -1.9399 -1.0932 9.4181 -3837.782 -4079.5134)" gradientUnits="userSpaceOnUse">
			<stop  offset="0.3002" style="stop-color:#FFA13D"/>
			<stop  offset="1" style="stop-color:#FFA13D;stop-opacity:0"/>
		</radialGradient>
		<path style="fill:url(#SVGID_00000039105407083946718610000011586381566134326676_);" d="M41.2,4.2c5.4-6.1,12.8-5.1,17.6,0
			l2.9,3.3c1,1.1,2.4,1.7,3.9,1.5l5.1-1.5c7-1.5,13.3,3.7,13.3,11.8v3.1c0.1,1.7,1.6,2.8,3.1,3.5l4.6,1.9c6.7,3.3,8.4,11,3.5,17.6
			l-1.4,1.8c-1.2,1.7-1,3.9,0.2,5.6l1.4,1.9c5.1,6.2,2.2,14.7-4.9,17.7l-4,1.7c-1.5,0.6-2.1,1.7-2.4,3.3l-0.3,5.2
			c-1,7.2-7.3,10.4-12.4,9.7l-6.1-1.6c-1.5-0.2-3.3,0.3-4.2,1.8l-2.2,3c-5.4,6.1-12.8,5.1-16.5,1.5l-4-4.9c-1.1-1-2.4-1.9-4-1.3
			l-6.1,1.7c-5,0.7-11-3.2-11.9-8.2l-0.7-7.3c-0.3-1.5-1.3-2.8-2.7-3.4l-4.3-1.5c-6.5-3-8.6-10.3-4.9-16.4l2.4-3.3
			c1-1.6,0.9-3.6-0.1-5.2l-1.8-2.6c-5.1-7.3-1.6-15.4,6-17.8l1.7-0.5c1.8-0.6,3.6-2.1,3.8-4.1l0.4-4.7c0.6-7.6,7.5-12,14.8-9.7
			l2.4,0.7c2.3,0.9,4.1,0.1,5.3-1.2L41.2,4.2z"/>
		
			<radialGradient id="SVGID_00000109006258755860733630000002306973005399472808_" cx="-203.5458" cy="225.3521" r="1" gradientTransform="matrix(10.9849 -10.5946 -10.2066 -10.5826 4622.9453 306.0623)" gradientUnits="userSpaceOnUse">
			<stop  offset="0" style="stop-color:#E0762A"/>
			<stop  offset="1" style="stop-color:#E0762A;stop-opacity:0"/>
		</radialGradient>
		<path style="fill:url(#SVGID_00000109006258755860733630000002306973005399472808_);" d="M41.2,4.2c5.4-6.1,12.8-5.1,17.6,0
			l2.9,3.3c1,1.1,2.4,1.7,3.9,1.5l5.1-1.5c7-1.5,13.3,3.7,13.3,11.8v3.1c0.1,1.7,1.6,2.8,3.1,3.5l4.6,1.9c6.7,3.3,8.4,11,3.5,17.6
			l-1.4,1.8c-1.2,1.7-1,3.9,0.2,5.6l1.4,1.9c5.1,6.2,2.2,14.7-4.9,17.7l-4,1.7c-1.5,0.6-2.1,1.7-2.4,3.3l-0.3,5.2
			c-1,7.2-7.3,10.4-12.4,9.7l-6.1-1.6c-1.5-0.2-3.3,0.3-4.2,1.8l-2.2,3c-5.4,6.1-12.8,5.1-16.5,1.5l-4-4.9c-1.1-1-2.4-1.9-4-1.3
			l-6.1,1.7c-5,0.7-11-3.2-11.9-8.2l-0.7-7.3c-0.3-1.5-1.3-2.8-2.7-3.4l-4.3-1.5c-6.5-3-8.6-10.3-4.9-16.4l2.4-3.3
			c1-1.6,0.9-3.6-0.1-5.2l-1.8-2.6c-5.1-7.3-1.6-15.4,6-17.8l1.7-0.5c1.8-0.6,3.6-2.1,3.8-4.1l0.4-4.7c0.6-7.6,7.5-12,14.8-9.7
			l2.4,0.7c2.3,0.9,4.1,0.1,5.3-1.2L41.2,4.2z"/>
		
			<radialGradient id="SVGID_00000037679485273722551790000006384996659020903345_" cx="-306.7912" cy="293.5096" r="1" gradientTransform="matrix(-7.1626 -9.2516 -8.9128 6.9003 434.7854 -4789.4644)" gradientUnits="userSpaceOnUse">
			<stop  offset="0" style="stop-color:#E0762A"/>
			<stop  offset="1" style="stop-color:#E0762A;stop-opacity:0"/>
		</radialGradient>
		<path style="fill:url(#SVGID_00000037679485273722551790000006384996659020903345_);" d="M41.2,4.2c5.4-6.1,12.8-5.1,17.6,0
			l2.9,3.3c1,1.1,2.4,1.7,3.9,1.5l5.1-1.5c7-1.5,13.3,3.7,13.3,11.8v3.1c0.1,1.7,1.6,2.8,3.1,3.5l4.6,1.9c6.7,3.3,8.4,11,3.5,17.6
			l-1.4,1.8c-1.2,1.7-1,3.9,0.2,5.6l1.4,1.9c5.1,6.2,2.2,14.7-4.9,17.7l-4,1.7c-1.5,0.6-2.1,1.7-2.4,3.3l-0.3,5.2
			c-1,7.2-7.3,10.4-12.4,9.7l-6.1-1.6c-1.5-0.2-3.3,0.3-4.2,1.8l-2.2,3c-5.4,6.1-12.8,5.1-16.5,1.5l-4-4.9c-1.1-1-2.4-1.9-4-1.3
			l-6.1,1.7c-5,0.7-11-3.2-11.9-8.2l-0.7-7.3c-0.3-1.5-1.3-2.8-2.7-3.4l-4.3-1.5c-6.5-3-8.6-10.3-4.9-16.4l2.4-3.3
			c1-1.6,0.9-3.6-0.1-5.2l-1.8-2.6c-5.1-7.3-1.6-15.4,6-17.8l1.7-0.5c1.8-0.6,3.6-2.1,3.8-4.1l0.4-4.7c0.6-7.6,7.5-12,14.8-9.7
			l2.4,0.7c2.3,0.9,4.1,0.1,5.3-1.2L41.2,4.2z"/>
		
			<radialGradient id="SVGID_00000000907133654240620460000015514860666901156753_" cx="-109.8623" cy="278.8172" r="1" gradientTransform="matrix(10.7438 5.0735 6.132 -12.9854 -529.1321 4212.5503)" gradientUnits="userSpaceOnUse">
			<stop  offset="0" style="stop-color:#F0851D"/>
			<stop  offset="1" style="stop-color:#F0851D;stop-opacity:0"/>
		</radialGradient>
		<path style="fill:url(#SVGID_00000000907133654240620460000015514860666901156753_);" d="M41.2,4.2c5.4-6.1,12.8-5.1,17.6,0
			l2.9,3.3c1,1.1,2.4,1.7,3.9,1.5l5.1-1.5c7-1.5,13.3,3.7,13.3,11.8v3.1c0.1,1.7,1.6,2.8,3.1,3.5l4.6,1.9c6.7,3.3,8.4,11,3.5,17.6
			l-1.4,1.8c-1.2,1.7-1,3.9,0.2,5.6l1.4,1.9c5.1,6.2,2.2,14.7-4.9,17.7l-4,1.7c-1.5,0.6-2.1,1.7-2.4,3.3l-0.3,5.2
			c-1,7.2-7.3,10.4-12.4,9.7l-6.1-1.6c-1.5-0.2-3.3,0.3-4.2,1.8l-2.2,3c-5.4,6.1-12.8,5.1-16.5,1.5l-4-4.9c-1.1-1-2.4-1.9-4-1.3
			l-6.1,1.7c-5,0.7-11-3.2-11.9-8.2l-0.7-7.3c-0.3-1.5-1.3-2.8-2.7-3.4l-4.3-1.5c-6.5-3-8.6-10.3-4.9-16.4l2.4-3.3
			c1-1.6,0.9-3.6-0.1-5.2l-1.8-2.6c-5.1-7.3-1.6-15.4,6-17.8l1.7-0.5c1.8-0.6,3.6-2.1,3.8-4.1l0.4-4.7c0.6-7.6,7.5-12,14.8-9.7
			l2.4,0.7c2.3,0.9,4.1,0.1,5.3-1.2L41.2,4.2z"/>
		
			<radialGradient id="SVGID_00000017490963758428426320000010164960513125324470_" cx="-290.9387" cy="318.9344" r="1" gradientTransform="matrix(-10.9881 -8.4354 -7.9581 10.3663 -587.5963 -5665.6724)" gradientUnits="userSpaceOnUse">
			<stop  offset="0.3366" style="stop-color:#E3745B"/>
			<stop  offset="1" style="stop-color:#E3745B;stop-opacity:0"/>
		</radialGradient>
		<path style="fill:url(#SVGID_00000017490963758428426320000010164960513125324470_);" d="M41.2,4.2c5.4-6.1,12.8-5.1,17.6,0
			l2.9,3.3c1,1.1,2.4,1.7,3.9,1.5l5.1-1.5c7-1.5,13.3,3.7,13.3,11.8v3.1c0.1,1.7,1.6,2.8,3.1,3.5l4.6,1.9c6.7,3.3,8.4,11,3.5,17.6
			l-1.4,1.8c-1.2,1.7-1,3.9,0.2,5.6l1.4,1.9c5.1,6.2,2.2,14.7-4.9,17.7l-4,1.7c-1.5,0.6-2.1,1.7-2.4,3.3l-0.3,5.2
			c-1,7.2-7.3,10.4-12.4,9.7l-6.1-1.6c-1.5-0.2-3.3,0.3-4.2,1.8l-2.2,3c-5.4,6.1-12.8,5.1-16.5,1.5l-4-4.9c-1.1-1-2.4-1.9-4-1.3
			l-6.1,1.7c-5,0.7-11-3.2-11.9-8.2l-0.7-7.3c-0.3-1.5-1.3-2.8-2.7-3.4l-4.3-1.5c-6.5-3-8.6-10.3-4.9-16.4l2.4-3.3
			c1-1.6,0.9-3.6-0.1-5.2l-1.8-2.6c-5.1-7.3-1.6-15.4,6-17.8l1.7-0.5c1.8-0.6,3.6-2.1,3.8-4.1l0.4-4.7c0.6-7.6,7.5-12,14.8-9.7
			l2.4,0.7c2.3,0.9,4.1,0.1,5.3-1.2L41.2,4.2z"/>
	</g>
	<g>
		
			<radialGradient id="SVGID_00000027590754400937237630000009345798804825150132_" cx="-199.7742" cy="320.6384" r="1" gradientTransform="matrix(-31.6903 60.2614 74.417 39.1345 -30120.207 -481.5378)" gradientUnits="userSpaceOnUse">
			<stop  offset="0.1718" style="stop-color:#FFD13D"/>
			<stop  offset="1" style="stop-color:#DCA21C"/>
			<stop  offset="1" style="stop-color:#D89A29"/>
		</radialGradient>
		<path style="fill:url(#SVGID_00000027590754400937237630000009345798804825150132_);" d="M50,88.1c21.1,0,38.2-17.1,38.2-38.2
			c0-21.1-17.1-38.2-38.2-38.2c-21.1,0-38.2,17.1-38.2,38.2C11.8,71,28.9,88.1,50,88.1z"/>
	</g>
</g>
</svg>
