<?xml version="1.0" encoding="utf-8"?>
<!-- Generator: Adobe Illustrator 27.3.1, SVG Export Plug-In . SVG Version: 6.00 Build 0)  -->
<svg version="1.1" id="Layer_1" xmlns="http://www.w3.org/2000/svg" xmlns:xlink="http://www.w3.org/1999/xlink" x="0px" y="0px"
	 viewBox="0 0 100 100" style="enable-background:new 0 0 100 100;" xml:space="preserve">
<style type="text/css">
	.st0{fill:url(#SVGID_1_);}
	.st1{fill:url(#SVGID_00000091010322174868454190000003630066842891536791_);}
	.st2{fill:url(#SVGID_00000118356987641070900150000011693727474210844306_);}
	.st3{fill:url(#SVGID_00000117675410279395361050000016969984321102585228_);}
	.st4{fill:url(#SVGID_00000144299988957689632660000014751389198008450217_);}
	.st5{fill:url(#SVGID_00000116222175280649505760000008466141313951661490_);}
	.st6{fill:url(#SVGID_00000074415257855456049760000012593962837442379408_);}
	.st7{fill:none;stroke:url(#SVGID_00000105415542316816071660000012830613768384577461_);stroke-width:0.2;}
	.st8{fill:url(#SVGID_00000045603165981487160430000017644062066464494481_);}
	.st9{fill:url(#SVGID_00000023991606080481284080000004539700283706212504_);}
	.st10{fill:url(#SVGID_00000163756220108900892050000016005448373528658313_);}
	.st11{fill:none;stroke:url(#SVGID_00000149363141166169320980000006821186569891617684_);stroke-width:0.2;}
	.st12{fill:url(#SVGID_00000027579746471996802980000001130773891150468536_);}
	.st13{fill:url(#SVGID_00000060015624645357995060000013892921053501118135_);}
	.st14{fill:url(#SVGID_00000084492994486975958540000008247567022371898521_);}
	.st15{fill:url(#SVGID_00000054970162322745134960000012549140444861765780_);}
	.st16{fill:none;stroke:url(#SVGID_00000125597395692134837370000010689796317081236142_);stroke-width:0.2;}
	.st17{fill:url(#SVGID_00000004508570211342666480000017968409371334703543_);}
	.st18{fill:url(#SVGID_00000020389008574396946370000001926398015994239136_);}
	.st19{fill:url(#SVGID_00000013913119182707384620000013952772766179044233_);}
	.st20{fill:url(#SVGID_00000000191817460297778460000002856031615308648100_);}
	.st21{fill:none;stroke:url(#SVGID_00000074423389406468445240000012432983256300623013_);stroke-width:0.2;}
	.st22{fill:url(#SVGID_00000026874692715570088910000007955125788111443866_);}
	.st23{fill:url(#SVGID_00000064311713819150288610000003083589758897072808_);}
	.st24{fill:url(#SVGID_00000108302105466265113940000001364159012275208366_);}
	.st25{fill:none;stroke:url(#SVGID_00000155122515294869116990000010049520022750977967_);stroke-width:0.3;}
	.st26{fill:url(#SVGID_00000083808084118802845280000010459599793154014648_);}
	.st27{fill:url(#SVGID_00000093867278121878326040000008750461975901361805_);}
	.st28{fill:url(#SVGID_00000073709661841826496040000017150669972940311743_);}
	.st29{fill-rule:evenodd;clip-rule:evenodd;fill:#AA7E32;}
	.st30{fill-rule:evenodd;clip-rule:evenodd;fill:#443452;}
	.st31{fill-rule:evenodd;clip-rule:evenodd;fill:#885F1F;}
	.st32{fill:none;stroke:#E9B15A;stroke-width:0.4;stroke-linecap:round;stroke-linejoin:round;stroke-miterlimit:10;}
	.st33{fill-rule:evenodd;clip-rule:evenodd;fill:url(#SVGID_00000182525635233224191990000013466480210731773862_);}
	.st34{fill-rule:evenodd;clip-rule:evenodd;fill:url(#SVGID_00000099656047296155673930000005330689864819134908_);}
	.st35{fill-rule:evenodd;clip-rule:evenodd;fill:url(#SVGID_00000075854990524194221110000017515321414973291940_);}
	.st36{fill-rule:evenodd;clip-rule:evenodd;fill:url(#SVGID_00000180366750964068582720000010221086094948137893_);}
	.st37{fill-rule:evenodd;clip-rule:evenodd;fill:url(#SVGID_00000079450933929520590850000000263014167659618711_);}
	.st38{fill-rule:evenodd;clip-rule:evenodd;fill:url(#SVGID_00000007416117679161366660000012969438770356616341_);}
	.st39{fill:none;stroke:url(#SVGID_00000054263832867300143110000017458251020393174181_);stroke-width:0.5;stroke-linecap:round;}
	.st40{fill:none;stroke:url(#SVGID_00000098900054686453107150000017730458242528226213_);stroke-width:0.5;stroke-linecap:round;}
	.st41{fill:none;stroke:url(#SVGID_00000132778565520886569070000007817664234896390842_);stroke-width:0.5;stroke-linecap:round;}
	.st42{fill:none;stroke:url(#SVGID_00000127748196847904671630000002532520479574387631_);stroke-width:0.5;stroke-linecap:round;}
	.st43{fill:none;stroke:url(#SVGID_00000136412471195198117480000003390727712583818902_);stroke-width:0.5;stroke-linecap:round;}
	.st44{fill:none;stroke:url(#SVGID_00000018196611198204168890000013951267068825925000_);stroke-width:0.25;stroke-linecap:round;}
	.st45{fill:none;stroke:url(#SVGID_00000108270416484063137890000016296287676413627582_);stroke-width:0.25;stroke-linecap:round;}
	.st46{fill:none;stroke:url(#SVGID_00000062896668323077405360000000806560875700894594_);stroke-width:0.25;stroke-linecap:round;}
	.st47{fill:none;stroke:url(#SVGID_00000080910314015485511530000014983085532533986481_);stroke-width:0.25;stroke-linecap:round;}
</style>
<g>
	
		<radialGradient id="SVGID_1_" cx="-205.2566" cy="320.8242" r="1" gradientTransform="matrix(-56.1113 54.277 60.7051 62.7567 -30912.1016 -8966.0684)" gradientUnits="userSpaceOnUse">
		<stop  offset="0" style="stop-color:#FFF6A6"/>
		<stop  offset="0.87" style="stop-color:#F6B246"/>
	</radialGradient>
	<circle class="st0" cx="50" cy="50" r="50"/>
	
		<radialGradient id="SVGID_00000086683703274288537730000000357864925954466222_" cx="-218.8839" cy="311.3225" r="1" gradientTransform="matrix(-74.086 -34.0961 -40.4854 87.969 -3535.3159 -34786.8438)" gradientUnits="userSpaceOnUse">
		<stop  offset="0.6832" style="stop-color:#BA9D76;stop-opacity:0"/>
		<stop  offset="1" style="stop-color:#BA9D76"/>
	</radialGradient>
	<circle style="fill:url(#SVGID_00000086683703274288537730000000357864925954466222_);" cx="50" cy="50" r="50"/>
	
		<radialGradient id="SVGID_00000016760021480306203440000000438012284191328944_" cx="-209.012" cy="294.2806" r="1" gradientTransform="matrix(28.6241 -39.9895 -76.139 -54.4995 28412.8535 7772.3223)" gradientUnits="userSpaceOnUse">
		<stop  offset="0" style="stop-color:#CA7044"/>
		<stop  offset="1" style="stop-color:#CA7044;stop-opacity:0"/>
	</radialGradient>
	<circle style="fill:url(#SVGID_00000016760021480306203440000000438012284191328944_);" cx="50" cy="50" r="50"/>
	
		<radialGradient id="SVGID_00000000220197530773409240000003965866597962230675_" cx="-193.9485" cy="322.2699" r="1" gradientTransform="matrix(-10.7147 62.0558 63.6558 10.9909 -22536.8496 8533.2256)" gradientUnits="userSpaceOnUse">
		<stop  offset="0.8639" style="stop-color:#C07583;stop-opacity:0"/>
		<stop  offset="1" style="stop-color:#C07583"/>
	</radialGradient>
	<circle style="fill:url(#SVGID_00000000220197530773409240000003965866597962230675_);" cx="50" cy="50" r="50"/>
	
		<radialGradient id="SVGID_00000052823762219443267950000010790870518822975653_" cx="-181.472" cy="338.0753" r="1" gradientTransform="matrix(-4.2412 30.68 30.68 4.2412 -11065.9092 4203.0293)" gradientUnits="userSpaceOnUse">
		<stop  offset="0" style="stop-color:#FFC94E"/>
		<stop  offset="1" style="stop-color:#FFC94E;stop-opacity:0"/>
	</radialGradient>
	<circle style="fill:url(#SVGID_00000052823762219443267950000010790870518822975653_);" cx="50" cy="50" r="50"/>
	
		<radialGradient id="SVGID_00000155117561008795051740000006619763161325409172_" cx="-137.3648" cy="308.7943" r="1" gradientTransform="matrix(12.2772 12.9469 12.9469 -12.2772 -2288.9248 5616.8027)" gradientUnits="userSpaceOnUse">
		<stop  offset="0" style="stop-color:#EB7F4D"/>
		<stop  offset="0.9599" style="stop-color:#EB7F4D;stop-opacity:0"/>
	</radialGradient>
	<circle style="fill:url(#SVGID_00000155117561008795051740000006619763161325409172_);" cx="50" cy="50" r="50"/>
	
		<radialGradient id="SVGID_00000170974936172189100180000011196809532816205221_" cx="-170.8068" cy="382.5812" r="1" gradientTransform="matrix(-5.1341 13.6165 13.6165 5.1341 -6011.1528 409.9146)" gradientUnits="userSpaceOnUse">
		<stop  offset="0" style="stop-color:#FFA95E"/>
		<stop  offset="1" style="stop-color:#FFB370;stop-opacity:0"/>
	</radialGradient>
	<circle style="fill:url(#SVGID_00000170974936172189100180000011196809532816205221_);" cx="50" cy="50" r="50"/>
	<g>
		
			<linearGradient id="SVGID_00000160896939060009413390000000914512003626138532_" gradientUnits="userSpaceOnUse" x1="95.6008" y1="49.45" x2="90.1749" y2="31.1104" gradientTransform="matrix(1 0 0 -1 0 102)">
			<stop  offset="0" style="stop-color:#F2BE70"/>
			<stop  offset="1" style="stop-color:#FFEC98"/>
		</linearGradient>
		<path style="fill:none;stroke:url(#SVGID_00000160896939060009413390000000914512003626138532_);stroke-width:0.2;" d="M98.9,53.8
			c-0.5-0.1-1-0.1-1.5-0.1c-4.9,0-8.9,4-8.9,8.9c0,4,2.6,7.3,6.2,8.5"/>
	</g>
	
		<radialGradient id="SVGID_00000158004436636385847540000010686110518428102075_" cx="-64.0304" cy="269.7582" r="1" gradientTransform="matrix(7.1526 1.8798 4.154 -15.8061 -575.545 4443.6992)" gradientUnits="userSpaceOnUse">
		<stop  offset="0" style="stop-color:#FFE486"/>
		<stop  offset="1" style="stop-color:#FFD68B"/>
	</radialGradient>
	<path style="fill:url(#SVGID_00000158004436636385847540000010686110518428102075_);" d="M99.8,54c-0.5,6.1-2.1,11.9-4.6,17.2
		c-3.9-1-6.7-4.5-6.7-8.6c0-4.9,4-8.9,8.9-8.9C98.3,53.7,99.1,53.8,99.8,54z"/>
	
		<radialGradient id="SVGID_00000030483738574877136940000010214152808559231133_" cx="-314.6292" cy="267.4701" r="1" gradientTransform="matrix(-3.9474 -9.3989 -10.6463 4.4714 1702.5853 -4089.6863)" gradientUnits="userSpaceOnUse">
		<stop  offset="0.7953" style="stop-color:#E3B065;stop-opacity:0"/>
		<stop  offset="0.944" style="stop-color:#E3B065"/>
	</radialGradient>
	<path style="fill:url(#SVGID_00000030483738574877136940000010214152808559231133_);" d="M99.8,54c-0.5,6.1-2.1,11.9-4.6,17.2
		c-3.9-1-6.7-4.5-6.7-8.6c0-4.9,4-8.9,8.9-8.9C98.3,53.7,99.1,53.8,99.8,54z"/>
	
		<radialGradient id="SVGID_00000070085455921073602260000010820923944386763432_" cx="-179.7282" cy="408.4243" r="1" gradientTransform="matrix(-6.4188 11.6704 10.0155 5.5086 -5145.6807 -93.4812)" gradientUnits="userSpaceOnUse">
		<stop  offset="0.8464" style="stop-color:#FFF1A6;stop-opacity:0"/>
		<stop  offset="1" style="stop-color:#FFF1A6"/>
	</radialGradient>
	<path style="fill:url(#SVGID_00000070085455921073602260000010820923944386763432_);" d="M99.8,54c-0.5,6.1-2.1,11.9-4.6,17.2
		c-3.9-1-6.7-4.5-6.7-8.6c0-4.9,4-8.9,8.9-8.9C98.3,53.7,99.1,53.8,99.8,54z"/>
	<g>
		
			<linearGradient id="SVGID_00000068650701755773797730000002654731400340678550_" gradientUnits="userSpaceOnUse" x1="80.2575" y1="22.3459" x2="60.7125" y2="7.5103" gradientTransform="matrix(1 0 0 -1 0 102)">
			<stop  offset="0" style="stop-color:#DFA055"/>
			<stop  offset="1" style="stop-color:#E1945D"/>
		</linearGradient>
		<path style="fill:none;stroke:url(#SVGID_00000068650701755773797730000002654731400340678550_);stroke-width:0.2;" d="M63.5,96.9
			c-0.7-1.6-1.1-3.3-1.1-5.1c0-7.2,5.8-13,13-13c4.1,0,7.8,1.9,10.2,4.9"/>
	</g>
	
		<radialGradient id="SVGID_00000010281080510818706480000005570527239090599860_" cx="-165.2925" cy="338.9473" r="1" gradientTransform="matrix(-1.817 19.3037 28.9774 2.7275 -10047.7607 2344.9795)" gradientUnits="userSpaceOnUse">
		<stop  offset="0" style="stop-color:#FEB862"/>
		<stop  offset="1" style="stop-color:#D78B6C"/>
	</radialGradient>
	<path style="fill:url(#SVGID_00000010281080510818706480000005570527239090599860_);" d="M86.3,84.4C80.3,90.7,72.6,95.5,64,98
		c-1-1.9-1.6-4-1.6-6.3c0-7.2,5.8-13,13-13C80,78.7,83.9,81,86.3,84.4z"/>
	
		<radialGradient id="SVGID_00000103953511617493322110000001683341112663542701_" cx="-134.5021" cy="315.0508" r="1" gradientTransform="matrix(7.7955 14.4373 37.7648 -20.3912 -10779.2705 8444.8252)" gradientUnits="userSpaceOnUse">
		<stop  offset="0.727" style="stop-color:#D8A294;stop-opacity:0"/>
		<stop  offset="1" style="stop-color:#D8A294"/>
	</radialGradient>
	<path style="fill:url(#SVGID_00000103953511617493322110000001683341112663542701_);" d="M86.3,84.4C80.3,90.7,72.6,95.5,64,98
		c-1-1.9-1.6-4-1.6-6.3c0-7.2,5.8-13,13-13C80,78.7,83.9,81,86.3,84.4z"/>
	
		<radialGradient id="SVGID_00000050665461349034452210000004411569982828772527_" cx="-231.781" cy="387.6866" r="1" gradientTransform="matrix(-14.4214 6.55 5.7926 12.7537 -5511.4341 -3334.8218)" gradientUnits="userSpaceOnUse">
		<stop  offset="0.6622" style="stop-color:#EFA970;stop-opacity:0"/>
		<stop  offset="0.9785" style="stop-color:#EFA970"/>
	</radialGradient>
	<path style="fill:url(#SVGID_00000050665461349034452210000004411569982828772527_);" d="M86.3,84.4C80.3,90.7,72.6,95.5,64,98
		c-1-1.9-1.6-4-1.6-6.3c0-7.2,5.8-13,13-13C80,78.7,83.9,81,86.3,84.4z"/>
	
		<radialGradient id="SVGID_00000000945599157329180910000009148136980349137301_" cx="-231.2398" cy="247.2247" r="1" gradientTransform="matrix(6.7347 -16.6432 -17.2366 -6.9748 5892.3652 -2029.3296)" gradientUnits="userSpaceOnUse">
		<stop  offset="0.778" style="stop-color:#C17967;stop-opacity:0"/>
		<stop  offset="0.9508" style="stop-color:#C17967"/>
	</radialGradient>
	<path style="fill:url(#SVGID_00000000945599157329180910000009148136980349137301_);" d="M86.3,84.4C80.3,90.7,72.6,95.5,64,98
		c-1-1.9-1.6-4-1.6-6.3c0-7.2,5.8-13,13-13C80,78.7,83.9,81,86.3,84.4z"/>
	<g>
		
			<linearGradient id="SVGID_00000085251811645882503260000002407115454106008750_" gradientUnits="userSpaceOnUse" x1="45.5807" y1="27.727" x2="36.6445" y2="17.1242" gradientTransform="matrix(1 0 0 -1 0 102)">
			<stop  offset="0" style="stop-color:#D47C4B"/>
			<stop  offset="1" style="stop-color:#E28050"/>
		</linearGradient>
		<path style="fill:none;stroke:url(#SVGID_00000085251811645882503260000002407115454106008750_);stroke-width:0.2;" d="M45.7,73.7
			c3.8,2.9,4.8,7.9,2.3,11.1c-2.5,3.2-7.6,3.4-11.3,0.4s-4.8-7.9-2.3-11.1C36.9,71,41.9,70.8,45.7,73.7z"/>
	</g>
	
		<radialGradient id="SVGID_00000174577958311103222520000006022155539954670235_" cx="-154.14" cy="376.5286" r="1" gradientTransform="matrix(-2.3438 13.4512 13.9915 2.438 -5587.1812 1229.2886)" gradientUnits="userSpaceOnUse">
		<stop  offset="0" style="stop-color:#D97C5E"/>
		<stop  offset="1" style="stop-color:#F79965"/>
	</radialGradient>
	<path style="fill:url(#SVGID_00000174577958311103222520000006022155539954670235_);" d="M45.7,73.7c3.8,2.9,4.8,7.9,2.3,11.1
		c-2.5,3.2-7.6,3.4-11.3,0.4s-4.8-7.9-2.3-11.1C36.9,71,41.9,70.8,45.7,73.7z"/>
	
		<radialGradient id="SVGID_00000026855841148127927950000008844938011082955679_" cx="-166.8339" cy="403.45" r="1" gradientTransform="matrix(-4.5797 12.4722 10.6624 3.9152 -5022.1426 576.0707)" gradientUnits="userSpaceOnUse">
		<stop  offset="0.7424" style="stop-color:#FFA969;stop-opacity:0"/>
		<stop  offset="1" style="stop-color:#FFA969"/>
	</radialGradient>
	<path style="fill:url(#SVGID_00000026855841148127927950000008844938011082955679_);" d="M45.7,73.7c3.8,2.9,4.8,7.9,2.3,11.1
		c-2.5,3.2-7.6,3.4-11.3,0.4s-4.8-7.9-2.3-11.1C36.9,71,41.9,70.8,45.7,73.7z"/>
	
		<radialGradient id="SVGID_00000042716104932039925700000013381175233020875689_" cx="-288.8497" cy="255.4933" r="1" gradientTransform="matrix(-3.2057 -12.0379 -11.3539 3.0236 2014.762 -4167.5063)" gradientUnits="userSpaceOnUse">
		<stop  offset="0.6255" style="stop-color:#C16653;stop-opacity:0"/>
		<stop  offset="1" style="stop-color:#C16653"/>
	</radialGradient>
	<path style="fill:url(#SVGID_00000042716104932039925700000013381175233020875689_);" d="M45.7,73.7c3.8,2.9,4.8,7.9,2.3,11.1
		c-2.5,3.2-7.6,3.4-11.3,0.4s-4.8-7.9-2.3-11.1C36.9,71,41.9,70.8,45.7,73.7z"/>
	
		<radialGradient id="SVGID_00000033329929570879833480000011738763198349452186_" cx="-331.3374" cy="359.0448" r="1" gradientTransform="matrix(-8.1545 -3.2626 -3.3936 8.4821 -1434.1129 -4040.1172)" gradientUnits="userSpaceOnUse">
		<stop  offset="0" style="stop-color:#CE8050"/>
		<stop  offset="1" style="stop-color:#CE8050;stop-opacity:0"/>
	</radialGradient>
	<path style="fill:url(#SVGID_00000033329929570879833480000011738763198349452186_);" d="M45.7,73.7c3.8,2.9,4.8,7.9,2.3,11.1
		c-2.5,3.2-7.6,3.4-11.3,0.4s-4.8-7.9-2.3-11.1C36.9,71,41.9,70.8,45.7,73.7z"/>
	<g>
		
			<linearGradient id="SVGID_00000160892781649932287310000016512988895444127367_" gradientUnits="userSpaceOnUse" x1="9.1622" y1="55.1984" x2="9.1622" y2="29.802" gradientTransform="matrix(1 0 0 -1 0 102)">
			<stop  offset="0" style="stop-color:#A2723B"/>
			<stop  offset="1" style="stop-color:#AC6E43"/>
		</linearGradient>
		<path style="fill:none;stroke:url(#SVGID_00000160892781649932287310000016512988895444127367_);stroke-width:0.2;" d="M1.1,46.9
			c1-0.2,1.9-0.3,3-0.3c7.2,0,13,5.8,13,13c0,6.4-4.7,11.8-10.8,12.9"/>
	</g>
	
		<radialGradient id="SVGID_00000041982896745555270120000007935660850173933452_" cx="-163.0948" cy="322.4781" r="1" gradientTransform="matrix(14.5579 23.9094 15.7351 -9.5808 -2701.2817 7037.7432)" gradientUnits="userSpaceOnUse">
		<stop  offset="0" style="stop-color:#A98861"/>
		<stop  offset="1" style="stop-color:#B1724D"/>
	</radialGradient>
	<path style="fill:url(#SVGID_00000041982896745555270120000007935660850173933452_);" d="M0.1,47.2c1.3-0.4,2.6-0.6,4-0.6
		c7.2,0,13,5.8,13,13c0,6.8-5.2,12.3-11.8,13C1.9,65.8,0,58.1,0,50C0,49.1,0,48.1,0.1,47.2z"/>
	
		<radialGradient id="SVGID_00000017500105790655839570000016554281632621300384_" cx="-221.1096" cy="235.1598" r="1" gradientTransform="matrix(9.2468 -15.2474 -13.9555 -8.4633 5329.4946 -1319.3096)" gradientUnits="userSpaceOnUse">
		<stop  offset="0.6957" style="stop-color:#9C6544;stop-opacity:0"/>
		<stop  offset="1" style="stop-color:#9C6544"/>
	</radialGradient>
	<path style="fill:url(#SVGID_00000017500105790655839570000016554281632621300384_);" d="M0.1,47.2c1.3-0.4,2.6-0.6,4-0.6
		c7.2,0,13,5.8,13,13c0,6.8-5.2,12.3-11.8,13C1.9,65.8,0,58.1,0,50C0,49.1,0,48.1,0.1,47.2z"/>
	
		<radialGradient id="SVGID_00000031901843510939416890000001486314020703484043_" cx="-157.5909" cy="379.0351" r="1" gradientTransform="matrix(1.102534e-15 18.0058 11.8498 -7.255920e-16 -4482.9346 2892.106)" gradientUnits="userSpaceOnUse">
		<stop  offset="0.8213" style="stop-color:#AF7D6F;stop-opacity:0"/>
		<stop  offset="1" style="stop-color:#AF7D6F"/>
	</radialGradient>
	<path style="fill:url(#SVGID_00000031901843510939416890000001486314020703484043_);" d="M0.1,47.2c1.3-0.4,2.6-0.6,4-0.6
		c7.2,0,13,5.8,13,13c0,6.8-5.2,12.3-11.8,13C1.9,65.8,0,58.1,0,50C0,49.1,0,48.1,0.1,47.2z"/>
	<g>
		
			<linearGradient id="SVGID_00000070829415471029519900000007007969797761947574_" gradientUnits="userSpaceOnUse" x1="45.6942" y1="89.3669" x2="56.7432" y2="89.3669" gradientTransform="matrix(1 0 0 -1 0 102)">
			<stop  offset="0" style="stop-color:#FFE27E"/>
			<stop  offset="1" style="stop-color:#F1B966"/>
		</linearGradient>
		<path style="fill:none;stroke:url(#SVGID_00000070829415471029519900000007007969797761947574_);stroke-width:0.3;" d="M48.2,21.6
			c4.9,0,8.9-4,8.9-8.9c0-4.9-4-8.9-8.9-8.9s-8.9,4-8.9,8.9C39.3,17.6,43.3,21.6,48.2,21.6z"/>
	</g>
	
		<linearGradient id="SVGID_00000138564629979623980220000016393189786662505381_" gradientUnits="userSpaceOnUse" x1="58.0378" y1="89.3669" x2="39.2714" y2="89.3669" gradientTransform="matrix(1 0 0 -1 0 102)">
		<stop  offset="0" style="stop-color:#FFC770"/>
		<stop  offset="1" style="stop-color:#FFDF81"/>
	</linearGradient>
	<path style="fill:url(#SVGID_00000138564629979623980220000016393189786662505381_);" d="M48.2,21.6c4.9,0,8.9-4,8.9-8.9
		c0-4.9-4-8.9-8.9-8.9s-8.9,4-8.9,8.9C39.3,17.6,43.3,21.6,48.2,21.6z"/>
	
		<radialGradient id="SVGID_00000059293331766269233420000004147747981490025389_" cx="-132.1619" cy="246.4552" r="1" gradientTransform="matrix(11.7192 0 0 -14.0993 1594.8109 3487.4675)" gradientUnits="userSpaceOnUse">
		<stop  offset="0.6" style="stop-color:#C59853;stop-opacity:0"/>
		<stop  offset="1" style="stop-color:#C59853"/>
	</radialGradient>
	<path style="fill:url(#SVGID_00000059293331766269233420000004147747981490025389_);" d="M48.2,21.6c4.9,0,8.9-4,8.9-8.9
		c0-4.9-4-8.9-8.9-8.9s-8.9,4-8.9,8.9C39.3,17.6,43.3,21.6,48.2,21.6z"/>
	
		<radialGradient id="SVGID_00000121982791600781482560000011008294641809840801_" cx="-252.8597" cy="370.1572" r="1" gradientTransform="matrix(-17.8355 0 0 13.5161 -4452.7793 -4990.4316)" gradientUnits="userSpaceOnUse">
		<stop  offset="0.899" style="stop-color:#FFF4A4;stop-opacity:0"/>
		<stop  offset="1" style="stop-color:#FFF4A4"/>
	</radialGradient>
	<path style="fill:url(#SVGID_00000121982791600781482560000011008294641809840801_);" d="M48.2,21.6c4.9,0,8.9-4,8.9-8.9
		c0-4.9-4-8.9-8.9-8.9s-8.9,4-8.9,8.9C39.3,17.6,43.3,21.6,48.2,21.6z"/>
	<g>
		<path class="st29" d="M30.1,22.8c-4.9,0-8.9,4-8.9,8.9c0,1-0.8,1.8-1.8,1.8s-1.8-0.8-1.8-1.8c0-6.9,5.6-12.4,12.4-12.4
			c1,0,1.8,0.8,1.8,1.8C31.9,22,31.1,22.8,30.1,22.8z"/>
	</g>
	<g>
		<path class="st30" d="M31,21.7c-4.9,0-8.9,4-8.9,8.9c0,1-0.8,1.8-1.8,1.8c-1,0-1.8-0.8-1.8-1.8c0-6.9,5.6-12.4,12.4-12.4
			c1,0,1.8,0.8,1.8,1.8S32,21.7,31,21.7z"/>
	</g>
	<g>
		<path class="st31" d="M67.2,20.8c0-0.7,0.6-1.3,1.3-1.3c4.9,0,9.8,5.4,9.8,10.4c0,0.7-0.6,1.3-1.3,1.3s-1.3-0.6-1.3-1.3
			c0-3.5-3.7-7.8-7.3-7.8C67.8,22.1,67.2,21.5,67.2,20.8z"/>
		<path class="st32" d="M68.5,18.8c-1.1,0-2,0.9-2,2c0,1.1,0.9,2,2,2c1.5,0,3.1,0.9,4.4,2.3c1.3,1.4,2.1,3.2,2.1,4.8
			c0,1.1,0.9,2,2,2c1.1,0,2-0.9,2-2c0-2.7-1.3-5.5-3.3-7.5C73.9,20.3,71.2,18.8,68.5,18.8z"/>
	</g>
	<g>
		<path class="st30" d="M66.3,19.9c0-1,0.8-1.8,1.8-1.8c6.8,0,12.4,5.5,12.4,12.4c0,1-0.8,1.8-1.8,1.8c-1,0-1.8-0.8-1.8-1.8
			c0-4.9-4-8.9-8.9-8.9C67.1,21.7,66.3,20.9,66.3,19.9z"/>
	</g>
	<g>
		
			<linearGradient id="SVGID_00000093856143821457637830000003004554197600409776_" gradientUnits="userSpaceOnUse" x1="27.2961" y1="63.0092" x2="38.1967" y2="67.9598" gradientTransform="matrix(1 0 0 -1 0 102)">
			<stop  offset="0" style="stop-color:#C06E3F"/>
			<stop  offset="1" style="stop-color:#9B672E"/>
		</linearGradient>
		<path style="fill-rule:evenodd;clip-rule:evenodd;fill:url(#SVGID_00000093856143821457637830000003004554197600409776_);" d="
			M32.9,35.2c-2.1,0-3.9,1.3-4.6,3.1c-0.5,1.4-2.1,2.1-3.5,1.5c-1.4-0.5-2.1-2.1-1.5-3.5c1.5-3.8,5.2-6.5,9.6-6.5
			c4.5,0,8.4,3,9.8,7.1c0.5,1.4-0.3,2.9-1.7,3.4s-2.9-0.3-3.4-1.7C37,36.6,35.1,35.2,32.9,35.2z"/>
	</g>
	<g>
		
			<linearGradient id="SVGID_00000008131694167371893540000006329294396631974792_" gradientUnits="userSpaceOnUse" x1="72.9833" y1="67.7877" x2="61.1443" y2="65.7491" gradientTransform="matrix(1 0 0 -1 0 102)">
			<stop  offset="0" style="stop-color:#C06E3F"/>
			<stop  offset="1" style="stop-color:#9B672E"/>
		</linearGradient>
		<path style="fill-rule:evenodd;clip-rule:evenodd;fill:url(#SVGID_00000008131694167371893540000006329294396631974792_);" d="
			M64.2,35.2c-2.1,0-3.9,1.3-4.6,3.1c-0.5,1.4-2.1,2.1-3.5,1.5c-1.4-0.5-2.1-2.1-1.5-3.5c1.5-3.8,5.2-6.5,9.6-6.5
			c4.5,0,8.4,3,9.8,7.1c0.5,1.4-0.3,2.9-1.7,3.4c-1.4,0.5-2.9-0.3-3.4-1.7C68.2,36.6,66.3,35.2,64.2,35.2z"/>
	</g>
	
		<radialGradient id="SVGID_00000127743214000823250020000014156917365378720693_" cx="-199.3681" cy="182.4595" r="1" gradientTransform="matrix(8.3708 -7.5337 -6.4755 -7.195 2878.2346 -150.7926)" gradientUnits="userSpaceOnUse">
		<stop  offset="0" style="stop-color:#3A2D43"/>
		<stop  offset="1" style="stop-color:#342D3A"/>
	</radialGradient>
	<path style="fill-rule:evenodd;clip-rule:evenodd;fill:url(#SVGID_00000127743214000823250020000014156917365378720693_);" d="
		M34.3,34.1c-2.1,0-3.9,1.3-4.6,3.1c-0.5,1.4-2.1,2.1-3.5,1.5c-1.4-0.5-2.1-2.1-1.5-3.5c1.5-3.8,5.2-6.5,9.6-6.5
		c4.5,0,8.4,3,9.8,7.1c0.5,1.4-0.3,2.9-1.7,3.4c-1.4,0.5-2.9-0.3-3.4-1.7C38.3,35.5,36.4,34.1,34.3,34.1z"/>
	
		<radialGradient id="SVGID_00000099630738537013801060000008850502135198857858_" cx="-391.0012" cy="218.1785" r="1" gradientTransform="matrix(2.810205e-16 -4.5894 -9.6103 -5.884616e-16 2161.1453 -1758.7091)" gradientUnits="userSpaceOnUse">
		<stop  offset="0" style="stop-color:#3E294C"/>
		<stop  offset="1" style="stop-color:#483C4E"/>
	</radialGradient>
	<path style="fill-rule:evenodd;clip-rule:evenodd;fill:url(#SVGID_00000099630738537013801060000008850502135198857858_);" d="
		M65,34.1c-2.1,0-3.9,1.3-4.6,3.1c-0.5,1.4-2.1,2.1-3.5,1.5c-1.4-0.5-2.1-2.1-1.5-3.5c1.5-3.8,5.2-6.5,9.6-6.5c4.5,0,8.4,3,9.8,7.1
		c0.5,1.4-0.3,2.9-1.7,3.4c-1.4,0.5-2.9-0.3-3.4-1.7C69.1,35.5,67.2,34.1,65,34.1z"/>
	<g>
		
			<linearGradient id="SVGID_00000163046754374355864920000011936730929069681058_" gradientUnits="userSpaceOnUse" x1="32.3615" y1="52.8729" x2="50.8801" y2="44.578" gradientTransform="matrix(1 0 0 -1 0 102)">
			<stop  offset="0" style="stop-color:#B2673E"/>
			<stop  offset="1" style="stop-color:#BA6E47"/>
		</linearGradient>
		<path style="fill-rule:evenodd;clip-rule:evenodd;fill:url(#SVGID_00000163046754374355864920000011936730929069681058_);" d="
			M30,53.3c1-1,2.7-1,3.8,0c7.7,7.7,20.2,7.7,27.9,0c1-1,2.7-1,3.8,0c1,1,1,2.7,0,3.8c-9.8,9.8-25.7,9.8-35.5,0
			C29,56.1,29,54.4,30,53.3z"/>
	</g>
	
		<linearGradient id="SVGID_00000032644277201348064450000007309133287300427672_" gradientUnits="userSpaceOnUse" x1="49.5552" y1="45.4826" x2="49.5552" y2="38.671" gradientTransform="matrix(1 0 0 -1 0 102)">
		<stop  offset="0" style="stop-color:#4A393E"/>
		<stop  offset="1" style="stop-color:#391E47"/>
	</linearGradient>
	<path style="fill-rule:evenodd;clip-rule:evenodd;fill:url(#SVGID_00000032644277201348064450000007309133287300427672_);" d="
		M31.8,52.2c1-1,2.7-1,3.8,0c7.7,7.7,20.2,7.7,27.9,0c1-1,2.7-1,3.8,0c1,1,1,2.7,0,3.8c-9.8,9.8-25.7,9.8-35.5,0
		C30.8,54.9,30.8,53.2,31.8,52.2z"/>
	<g>
		
			<linearGradient id="SVGID_00000098178583364128491900000003482014007655234215_" gradientUnits="userSpaceOnUse" x1="40.8412" y1="63.0951" x2="32.527" y2="68.1867" gradientTransform="matrix(1 0 0 -1 0 102)">
			<stop  offset="0" style="stop-color:#51495A"/>
			<stop  offset="1" style="stop-color:#51495A;stop-opacity:0"/>
		</linearGradient>
		
			<path style="fill:none;stroke:url(#SVGID_00000098178583364128491900000003482014007655234215_);stroke-width:0.5;stroke-linecap:round;" d="
			M27,36.2c0.4-1.4,2-4.3,5.9-5.2c4.8-1.1,8.3,2.3,9.4,5.2"/>
		
			<linearGradient id="SVGID_00000040562363171622670920000003546192604879554456_" gradientUnits="userSpaceOnUse" x1="33.1281" y1="62.4078" x2="34.7483" y2="66.143" gradientTransform="matrix(1 0 0 -1 0 102)">
			<stop  offset="0" style="stop-color:#51495A"/>
			<stop  offset="1" style="stop-color:#51495A;stop-opacity:0"/>
		</linearGradient>
		
			<path style="fill:none;stroke:url(#SVGID_00000040562363171622670920000003546192604879554456_);stroke-width:0.5;stroke-linecap:round;" d="
			M27,36.2c0.4-1.4,2-4.3,5.9-5.2c4.8-1.1,8.3,2.3,9.4,5.2"/>
	</g>
	<g>
		
			<linearGradient id="SVGID_00000093151164574829528950000017970419066977191086_" gradientUnits="userSpaceOnUse" x1="71.5819" y1="63.0753" x2="63.0956" y2="67.9914" gradientTransform="matrix(1 0 0 -1 0 102)">
			<stop  offset="0.1849" style="stop-color:#564A62"/>
			<stop  offset="1" style="stop-color:#564A62;stop-opacity:0"/>
		</linearGradient>
		
			<path style="fill:none;stroke:url(#SVGID_00000093151164574829528950000017970419066977191086_);stroke-width:0.5;stroke-linecap:round;" d="
			M57.5,36.3c0.6-1.7,2.7-5.3,6.8-5.3c5.7,0,8.3,3.5,8.3,5.6"/>
		
			<linearGradient id="SVGID_00000056397130923911319030000009106017127410177444_" gradientUnits="userSpaceOnUse" x1="60.5141" y1="61.6455" x2="68.4605" y2="69.4446" gradientTransform="matrix(1 0 0 -1 0 102)">
			<stop  offset="0" style="stop-color:#5F4C6F"/>
			<stop  offset="1" style="stop-color:#5F4C6F;stop-opacity:0"/>
		</linearGradient>
		
			<path style="fill:none;stroke:url(#SVGID_00000056397130923911319030000009106017127410177444_);stroke-width:0.5;stroke-linecap:round;" d="
			M57.5,36.3c0.6-1.7,2.7-5.3,6.8-5.3c5.7,0,8.3,3.5,8.3,5.6"/>
	</g>
	<g>
		
			<linearGradient id="SVGID_00000095334874121316463420000005889159033852672943_" gradientUnits="userSpaceOnUse" x1="40.3585" y1="47.6554" x2="55.5828" y2="44.6535" gradientTransform="matrix(1 0 0 -1 0 102)">
			<stop  offset="0" style="stop-color:#463E4C"/>
			<stop  offset="1" style="stop-color:#4F425A"/>
		</linearGradient>
		
			<path style="fill:none;stroke:url(#SVGID_00000095334874121316463420000005889159033852672943_);stroke-width:0.5;stroke-linecap:round;" d="
			M34.4,54.6c2.2,2.2,7.2,5.8,15.3,5.8c8.1,0,14.2-3.9,15.6-5.8"/>
	</g>
	<g>
		
			<linearGradient id="SVGID_00000036230082560732142680000016606367749362445224_" gradientUnits="userSpaceOnUse" x1="69.1755" y1="80.5237" x2="77.6694" y2="75.404" gradientTransform="matrix(1 0 0 -1 0 102)">
			<stop  offset="0" style="stop-color:#594C63"/>
			<stop  offset="1" style="stop-color:#594C63;stop-opacity:0"/>
		</linearGradient>
		
			<path style="fill:none;stroke:url(#SVGID_00000036230082560732142680000016606367749362445224_);stroke-width:0.25;stroke-linecap:round;" d="
			M68.4,19.8c4,0,10.1,2.2,10.5,10.8"/>
		
			<linearGradient id="SVGID_00000051351443410470566810000003655375611562350987_" gradientUnits="userSpaceOnUse" x1="73.9628" y1="71.5258" x2="73.6177" y2="78.1386" gradientTransform="matrix(1 0 0 -1 0 102)">
			<stop  offset="0" style="stop-color:#594C63"/>
			<stop  offset="1" style="stop-color:#594C63;stop-opacity:0"/>
		</linearGradient>
		
			<path style="fill:none;stroke:url(#SVGID_00000051351443410470566810000003655375611562350987_);stroke-width:0.25;stroke-linecap:round;" d="
			M68.4,19.8c4,0,10.1,2.2,10.5,10.8"/>
	</g>
	<g>
		
			<linearGradient id="SVGID_00000140706429517045836010000008843198957655624870_" gradientUnits="userSpaceOnUse" x1="32.3654" y1="80.1691" x2="25.2233" y2="77.1207" gradientTransform="matrix(1 0 0 -1 0 102)">
			<stop  offset="0" style="stop-color:#594C63"/>
			<stop  offset="1" style="stop-color:#594C63;stop-opacity:0"/>
		</linearGradient>
		
			<path style="fill:none;stroke:url(#SVGID_00000140706429517045836010000008843198957655624870_);stroke-width:0.25;stroke-linecap:round;" d="
			M31,19.8c-4,0-10.1,2.2-10.5,10.8"/>
		
			<linearGradient id="SVGID_00000160908493510615076390000008971186928370356415_" gradientUnits="userSpaceOnUse" x1="22.4531" y1="71.1366" x2="26.3102" y2="79.3317" gradientTransform="matrix(1 0 0 -1 0 102)">
			<stop  offset="0" style="stop-color:#594C63"/>
			<stop  offset="1" style="stop-color:#594C63;stop-opacity:0"/>
		</linearGradient>
		
			<path style="fill:none;stroke:url(#SVGID_00000160908493510615076390000008971186928370356415_);stroke-width:0.25;stroke-linecap:round;" d="
			M31,19.8c-4,0-10.1,2.2-10.5,10.8"/>
	</g>
</g>
</svg>
