<?xml version="1.0" encoding="utf-8"?>
<!-- Generator: Adobe Illustrator 27.3.1, SVG Export Plug-In . SVG Version: 6.00 Build 0)  -->
<svg version="1.1" id="Layer_1" xmlns="http://www.w3.org/2000/svg" xmlns:xlink="http://www.w3.org/1999/xlink" x="0px" y="0px"
	 viewBox="0 0 100 100" style="enable-background:new 0 0 100 100;" xml:space="preserve">
<style type="text/css">
	.st0{fill:url(#SVGID_1_);}
	.st1{fill:url(#SVGID_00000015325343886275491490000000989488937797772425_);}
	.st2{fill:url(#SVGID_00000008130809268467962920000000577475729726786719_);}
	.st3{fill:url(#SVGID_00000085234151333619966670000000136110533924017028_);}
	.st4{fill:url(#SVGID_00000083084090380499275490000004045128536022849933_);}
	.st5{fill:url(#SVGID_00000164490452604543513780000004892447293828404149_);}
	.st6{fill:url(#SVGID_00000037682532240687014100000002459492545497554596_);}
	.st7{fill:url(#SVGID_00000021823812648379251080000013182214209842334092_);}
	.st8{fill:url(#SVGID_00000042003117653763342460000007974592586547835820_);}
	.st9{fill:url(#SVGID_00000014632163938172912260000011797159673312682676_);}
	.st10{fill:url(#SVGID_00000019643332239276154260000007087972441177414075_);}
	.st11{fill:url(#SVGID_00000137844497165380002830000015666031603116843167_);}
	.st12{fill:url(#SVGID_00000165928845822055246200000001130103899044844936_);}
	.st13{fill:url(#SVGID_00000012440467191691236050000017216833733409234065_);}
	.st14{fill:url(#SVGID_00000151518108595993520550000018253916714114951355_);}
	.st15{fill:url(#SVGID_00000031177956743265358260000010088768418337623957_);}
	.st16{fill:url(#SVGID_00000049917137251286038030000017227013813602352266_);}
	.st17{fill:url(#SVGID_00000075125804863053333930000000837810171379942798_);}
	.st18{fill:url(#SVGID_00000126309527396102605510000015377688647303915936_);}
	.st19{fill:url(#SVGID_00000145055357011007898320000009659715429818592952_);}
	.st20{fill:url(#SVGID_00000016795854354479271550000004346677065159506827_);}
	.st21{fill:url(#SVGID_00000142158703810580488390000002382936552052760239_);}
	.st22{fill:#EAE0FF;}
</style>
<g>
	
		<linearGradient id="SVGID_1_" gradientUnits="userSpaceOnUse" x1="44.029" y1="86.4745" x2="13.7686" y2="47.8663" gradientTransform="matrix(1 0 0 -1 0 102)">
		<stop  offset="0" style="stop-color:#FC8B23"/>
		<stop  offset="1" style="stop-color:#E67639"/>
	</linearGradient>
	<path class="st0" d="M23.9,9.5c3-3.4,7.1-2.9,9.7,0l1.6,1.9c0.6,0.6,1.4,0.9,2.2,0.8l2.8-0.8c3.9-0.8,7.4,2.1,7.4,6.6v1.7
		c0.1,0.9,0.9,1.6,1.7,2l2.6,1.1c3.7,1.8,4.7,6.1,1.9,9.7l-0.8,1c-0.7,0.9-0.5,2.2,0.1,3.1l0.8,1.1c2.8,3.4,1.2,8.2-2.7,9.8
		l-2.2,0.9c-0.8,0.3-1.2,0.9-1.3,1.8l-0.2,2.9c-0.5,4-4.1,5.8-6.9,5.4l-3.4-0.9c-0.8-0.1-1.8,0.2-2.4,1l-1.2,1.7
		c-3,3.4-7.1,2.8-9.1,0.8l-2.2-2.7c-0.6-0.6-1.3-1.1-2.2-0.7l-3.4,0.9C14,59,10.7,56.8,10.2,54l-0.4-4c-0.2-0.8-0.7-1.5-1.5-1.9
		l-2.4-0.8c-3.6-1.7-4.8-5.7-2.7-9.1l1.3-1.9c0.5-0.9,0.5-2-0.1-2.9l-1-1.4c-2.8-4-0.9-8.5,3.3-9.9l0.9-0.3c1-0.3,2-1.2,2.1-2.2
		L10,17c0.3-4.2,4.2-6.6,8.2-5.4l1.3,0.4c1.3,0.5,2.3,0.1,2.9-0.7L23.9,9.5z"/>
	
		<radialGradient id="SVGID_00000048480265011199602050000003649989146508458938_" cx="-214.1638" cy="491.3437" r="1" gradientTransform="matrix(-5.5492 4.9694 4.3846 4.8962 -3308.8752 -1331.6879)" gradientUnits="userSpaceOnUse">
		<stop  offset="0.3002" style="stop-color:#FFA13A"/>
		<stop  offset="1" style="stop-color:#FFA13A;stop-opacity:0"/>
	</radialGradient>
	<path style="fill:url(#SVGID_00000048480265011199602050000003649989146508458938_);" d="M23.9,9.5c3-3.4,7.1-2.9,9.7,0l1.6,1.9
		c0.6,0.6,1.4,0.9,2.2,0.8l2.8-0.8c3.9-0.8,7.4,2.1,7.4,6.6v1.7c0.1,0.9,0.9,1.6,1.7,2l2.6,1.1c3.7,1.8,4.7,6.1,1.9,9.7l-0.8,1
		c-0.7,0.9-0.5,2.2,0.1,3.1l0.8,1.1c2.8,3.4,1.2,8.2-2.7,9.8l-2.2,0.9c-0.8,0.3-1.2,0.9-1.3,1.8l-0.2,2.9c-0.5,4-4.1,5.8-6.9,5.4
		l-3.4-0.9c-0.8-0.1-1.8,0.2-2.4,1l-1.2,1.7c-3,3.4-7.1,2.8-9.1,0.8l-2.2-2.7c-0.6-0.6-1.3-1.1-2.2-0.7l-3.4,0.9
		C14,59,10.7,56.8,10.2,54l-0.4-4c-0.2-0.8-0.7-1.5-1.5-1.9l-2.4-0.8c-3.6-1.7-4.8-5.7-2.7-9.1l1.3-1.9c0.5-0.9,0.5-2-0.1-2.9
		l-1-1.4c-2.8-4-0.9-8.5,3.3-9.9l0.9-0.3c1-0.3,2-1.2,2.1-2.2L10,17c0.3-4.2,4.2-6.6,8.2-5.4l1.3,0.4c1.3,0.5,2.3,0.1,2.9-0.7
		L23.9,9.5z"/>
	
		<radialGradient id="SVGID_00000110462616321744730200000011933494037795380137_" cx="-110.5905" cy="352.156" r="1" gradientTransform="matrix(4.4725 10.9653 9.6748 -3.9462 -2897.8936 2609.7095)" gradientUnits="userSpaceOnUse">
		<stop  offset="0.3002" style="stop-color:#FF942A"/>
		<stop  offset="1" style="stop-color:#FF942A;stop-opacity:0"/>
	</radialGradient>
	<path style="fill:url(#SVGID_00000110462616321744730200000011933494037795380137_);" d="M23.9,9.5c3-3.4,7.1-2.9,9.7,0l1.6,1.9
		c0.6,0.6,1.4,0.9,2.2,0.8l2.8-0.8c3.9-0.8,7.4,2.1,7.4,6.6v1.7c0.1,0.9,0.9,1.6,1.7,2l2.6,1.1c3.7,1.8,4.7,6.1,1.9,9.7l-0.8,1
		c-0.7,0.9-0.5,2.2,0.1,3.1l0.8,1.1c2.8,3.4,1.2,8.2-2.7,9.8l-2.2,0.9c-0.8,0.3-1.2,0.9-1.3,1.8l-0.2,2.9c-0.5,4-4.1,5.8-6.9,5.4
		l-3.4-0.9c-0.8-0.1-1.8,0.2-2.4,1l-1.2,1.7c-3,3.4-7.1,2.8-9.1,0.8l-2.2-2.7c-0.6-0.6-1.3-1.1-2.2-0.7l-3.4,0.9
		C14,59,10.7,56.8,10.2,54l-0.4-4c-0.2-0.8-0.7-1.5-1.5-1.9l-2.4-0.8c-3.6-1.7-4.8-5.7-2.7-9.1l1.3-1.9c0.5-0.9,0.5-2-0.1-2.9
		l-1-1.4c-2.8-4-0.9-8.5,3.3-9.9l0.9-0.3c1-0.3,2-1.2,2.1-2.2L10,17c0.3-4.2,4.2-6.6,8.2-5.4l1.3,0.4c1.3,0.5,2.3,0.1,2.9-0.7
		L23.9,9.5z"/>
	
		<radialGradient id="SVGID_00000026124480262181370970000018010142706354950331_" cx="-428.2994" cy="398.8944" r="1" gradientTransform="matrix(-4.5553 -1.2424 -1.7202 6.3075 -1218.5245 -3029.6804)" gradientUnits="userSpaceOnUse">
		<stop  offset="0.3002" style="stop-color:#FFA13D"/>
		<stop  offset="1" style="stop-color:#FFA13D;stop-opacity:0"/>
	</radialGradient>
	<path style="fill:url(#SVGID_00000026124480262181370970000018010142706354950331_);" d="M23.9,9.5c3-3.4,7.1-2.9,9.7,0l1.6,1.9
		c0.6,0.6,1.4,0.9,2.2,0.8l2.8-0.8c3.9-0.8,7.4,2.1,7.4,6.6v1.7c0.1,0.9,0.9,1.6,1.7,2l2.6,1.1c3.7,1.8,4.7,6.1,1.9,9.7l-0.8,1
		c-0.7,0.9-0.5,2.2,0.1,3.1l0.8,1.1c2.8,3.4,1.2,8.2-2.7,9.8l-2.2,0.9c-0.8,0.3-1.2,0.9-1.3,1.8l-0.2,2.9c-0.5,4-4.1,5.8-6.9,5.4
		l-3.4-0.9c-0.8-0.1-1.8,0.2-2.4,1l-1.2,1.7c-3,3.4-7.1,2.8-9.1,0.8l-2.2-2.7c-0.6-0.6-1.3-1.1-2.2-0.7l-3.4,0.9
		C14,59,10.7,56.8,10.2,54l-0.4-4c-0.2-0.8-0.7-1.5-1.5-1.9l-2.4-0.8c-3.6-1.7-4.8-5.7-2.7-9.1l1.3-1.9c0.5-0.9,0.5-2-0.1-2.9
		l-1-1.4c-2.8-4-0.9-8.5,3.3-9.9l0.9-0.3c1-0.3,2-1.2,2.1-2.2L10,17c0.3-4.2,4.2-6.6,8.2-5.4l1.3,0.4c1.3,0.5,2.3,0.1,2.9-0.7
		L23.9,9.5z"/>
	
		<radialGradient id="SVGID_00000093172599876472628800000011449085055076949919_" cx="-252.8243" cy="492.2702" r="1" gradientTransform="matrix(-7.537 3.6443 2.6916 5.5666 -3174.6672 -1793.5879)" gradientUnits="userSpaceOnUse">
		<stop  offset="0.3002" style="stop-color:#FFA13D"/>
		<stop  offset="1" style="stop-color:#FFA13D;stop-opacity:0"/>
	</radialGradient>
	<path style="fill:url(#SVGID_00000093172599876472628800000011449085055076949919_);" d="M23.9,9.5c3-3.4,7.1-2.9,9.7,0l1.6,1.9
		c0.6,0.6,1.4,0.9,2.2,0.8l2.8-0.8c3.9-0.8,7.4,2.1,7.4,6.6v1.7c0.1,0.9,0.9,1.6,1.7,2l2.6,1.1c3.7,1.8,4.7,6.1,1.9,9.7l-0.8,1
		c-0.7,0.9-0.5,2.2,0.1,3.1l0.8,1.1c2.8,3.4,1.2,8.2-2.7,9.8l-2.2,0.9c-0.8,0.3-1.2,0.9-1.3,1.8l-0.2,2.9c-0.5,4-4.1,5.8-6.9,5.4
		l-3.4-0.9c-0.8-0.1-1.8,0.2-2.4,1l-1.2,1.7c-3,3.4-7.1,2.8-9.1,0.8l-2.2-2.7c-0.6-0.6-1.3-1.1-2.2-0.7l-3.4,0.9
		C14,59,10.7,56.8,10.2,54l-0.4-4c-0.2-0.8-0.7-1.5-1.5-1.9l-2.4-0.8c-3.6-1.7-4.8-5.7-2.7-9.1l1.3-1.9c0.5-0.9,0.5-2-0.1-2.9
		l-1-1.4c-2.8-4-0.9-8.5,3.3-9.9l0.9-0.3c1-0.3,2-1.2,2.1-2.2L10,17c0.3-4.2,4.2-6.6,8.2-5.4l1.3,0.4c1.3,0.5,2.3,0.1,2.9-0.7
		L23.9,9.5z"/>
	
		<radialGradient id="SVGID_00000178894786246914138220000012221856025290943146_" cx="-306.9651" cy="449.9445" r="1" gradientTransform="matrix(-9.2763 -1.0768 -0.6068 5.2275 -2516.8035 -2643.1533)" gradientUnits="userSpaceOnUse">
		<stop  offset="0.3002" style="stop-color:#FFA13D"/>
		<stop  offset="1" style="stop-color:#FFA13D;stop-opacity:0"/>
	</radialGradient>
	<path style="fill:url(#SVGID_00000178894786246914138220000012221856025290943146_);" d="M23.9,9.5c3-3.4,7.1-2.9,9.7,0l1.6,1.9
		c0.6,0.6,1.4,0.9,2.2,0.8l2.8-0.8c3.9-0.8,7.4,2.1,7.4,6.6v1.7c0.1,0.9,0.9,1.6,1.7,2l2.6,1.1c3.7,1.8,4.7,6.1,1.9,9.7l-0.8,1
		c-0.7,0.9-0.5,2.2,0.1,3.1l0.8,1.1c2.8,3.4,1.2,8.2-2.7,9.8l-2.2,0.9c-0.8,0.3-1.2,0.9-1.3,1.8l-0.2,2.9c-0.5,4-4.1,5.8-6.9,5.4
		l-3.4-0.9c-0.8-0.1-1.8,0.2-2.4,1l-1.2,1.7c-3,3.4-7.1,2.8-9.1,0.8l-2.2-2.7c-0.6-0.6-1.3-1.1-2.2-0.7l-3.4,0.9
		C14,59,10.7,56.8,10.2,54l-0.4-4c-0.2-0.8-0.7-1.5-1.5-1.9l-2.4-0.8c-3.6-1.7-4.8-5.7-2.7-9.1l1.3-1.9c0.5-0.9,0.5-2-0.1-2.9
		l-1-1.4c-2.8-4-0.9-8.5,3.3-9.9l0.9-0.3c1-0.3,2-1.2,2.1-2.2L10,17c0.3-4.2,4.2-6.6,8.2-5.4l1.3,0.4c1.3,0.5,2.3,0.1,2.9-0.7
		L23.9,9.5z"/>
	
		<radialGradient id="SVGID_00000064327900173468856780000012434457964231287743_" cx="-202.2354" cy="158.3255" r="1" gradientTransform="matrix(6.0971 -5.8805 -5.6652 -5.8739 2179.3225 -208.9434)" gradientUnits="userSpaceOnUse">
		<stop  offset="0" style="stop-color:#E0762A"/>
		<stop  offset="1" style="stop-color:#E0762A;stop-opacity:0"/>
	</radialGradient>
	<path style="fill:url(#SVGID_00000064327900173468856780000012434457964231287743_);" d="M23.9,9.5c3-3.4,7.1-2.9,9.7,0l1.6,1.9
		c0.6,0.6,1.4,0.9,2.2,0.8l2.8-0.8c3.9-0.8,7.4,2.1,7.4,6.6v1.7c0.1,0.9,0.9,1.6,1.7,2l2.6,1.1c3.7,1.8,4.7,6.1,1.9,9.7l-0.8,1
		c-0.7,0.9-0.5,2.2,0.1,3.1l0.8,1.1c2.8,3.4,1.2,8.2-2.7,9.8l-2.2,0.9c-0.8,0.3-1.2,0.9-1.3,1.8l-0.2,2.9c-0.5,4-4.1,5.8-6.9,5.4
		l-3.4-0.9c-0.8-0.1-1.8,0.2-2.4,1l-1.2,1.7c-3,3.4-7.1,2.8-9.1,0.8l-2.2-2.7c-0.6-0.6-1.3-1.1-2.2-0.7l-3.4,0.9
		C14,59,10.7,56.8,10.2,54l-0.4-4c-0.2-0.8-0.7-1.5-1.5-1.9l-2.4-0.8c-3.6-1.7-4.8-5.7-2.7-9.1l1.3-1.9c0.5-0.9,0.5-2-0.1-2.9
		l-1-1.4c-2.8-4-0.9-8.5,3.3-9.9l0.9-0.3c1-0.3,2-1.2,2.1-2.2L10,17c0.3-4.2,4.2-6.6,8.2-5.4l1.3,0.4c1.3,0.5,2.3,0.1,2.9-0.7
		L23.9,9.5z"/>
	
		<radialGradient id="SVGID_00000112614393135658713590000012228633409094450561_" cx="-390.3369" cy="282.2779" r="1" gradientTransform="matrix(-3.9756 -5.1351 -4.9471 3.83 -145.314 -3037.2109)" gradientUnits="userSpaceOnUse">
		<stop  offset="0" style="stop-color:#E0762A"/>
		<stop  offset="1" style="stop-color:#E0762A;stop-opacity:0"/>
	</radialGradient>
	<path style="fill:url(#SVGID_00000112614393135658713590000012228633409094450561_);" d="M23.9,9.5c3-3.4,7.1-2.9,9.7,0l1.6,1.9
		c0.6,0.6,1.4,0.9,2.2,0.8l2.8-0.8c3.9-0.8,7.4,2.1,7.4,6.6v1.7c0.1,0.9,0.9,1.6,1.7,2l2.6,1.1c3.7,1.8,4.7,6.1,1.9,9.7l-0.8,1
		c-0.7,0.9-0.5,2.2,0.1,3.1l0.8,1.1c2.8,3.4,1.2,8.2-2.7,9.8l-2.2,0.9c-0.8,0.3-1.2,0.9-1.3,1.8l-0.2,2.9c-0.5,4-4.1,5.8-6.9,5.4
		l-3.4-0.9c-0.8-0.1-1.8,0.2-2.4,1l-1.2,1.7c-3,3.4-7.1,2.8-9.1,0.8l-2.2-2.7c-0.6-0.6-1.3-1.1-2.2-0.7l-3.4,0.9
		C14,59,10.7,56.8,10.2,54l-0.4-4c-0.2-0.8-0.7-1.5-1.5-1.9l-2.4-0.8c-3.6-1.7-4.8-5.7-2.7-9.1l1.3-1.9c0.5-0.9,0.5-2-0.1-2.9
		l-1-1.4c-2.8-4-0.9-8.5,3.3-9.9l0.9-0.3c1-0.3,2-1.2,2.1-2.2L10,17c0.3-4.2,4.2-6.6,8.2-5.4l1.3,0.4c1.3,0.5,2.3,0.1,2.9-0.7
		L23.9,9.5z"/>
	
		<radialGradient id="SVGID_00000036234029597873393110000007250371002602709149_" cx="-31.7087" cy="255.7975" r="1" gradientTransform="matrix(5.9634 2.816 3.4036 -7.2076 -680.3336 1959.3549)" gradientUnits="userSpaceOnUse">
		<stop  offset="0" style="stop-color:#F0851D"/>
		<stop  offset="1" style="stop-color:#F0851D;stop-opacity:0"/>
	</radialGradient>
	<path style="fill:url(#SVGID_00000036234029597873393110000007250371002602709149_);" d="M23.9,9.5c3-3.4,7.1-2.9,9.7,0l1.6,1.9
		c0.6,0.6,1.4,0.9,2.2,0.8l2.8-0.8c3.9-0.8,7.4,2.1,7.4,6.6v1.7c0.1,0.9,0.9,1.6,1.7,2l2.6,1.1c3.7,1.8,4.7,6.1,1.9,9.7l-0.8,1
		c-0.7,0.9-0.5,2.2,0.1,3.1l0.8,1.1c2.8,3.4,1.2,8.2-2.7,9.8l-2.2,0.9c-0.8,0.3-1.2,0.9-1.3,1.8l-0.2,2.9c-0.5,4-4.1,5.8-6.9,5.4
		l-3.4-0.9c-0.8-0.1-1.8,0.2-2.4,1l-1.2,1.7c-3,3.4-7.1,2.8-9.1,0.8l-2.2-2.7c-0.6-0.6-1.3-1.1-2.2-0.7l-3.4,0.9
		C14,59,10.7,56.8,10.2,54l-0.4-4c-0.2-0.8-0.7-1.5-1.5-1.9l-2.4-0.8c-3.6-1.7-4.8-5.7-2.7-9.1l1.3-1.9c0.5-0.9,0.5-2-0.1-2.9
		l-1-1.4c-2.8-4-0.9-8.5,3.3-9.9l0.9-0.3c1-0.3,2-1.2,2.1-2.2L10,17c0.3-4.2,4.2-6.6,8.2-5.4l1.3,0.4c1.3,0.5,2.3,0.1,2.9-0.7
		L23.9,9.5z"/>
	
		<radialGradient id="SVGID_00000023275900564303524860000008697548959276817306_" cx="-361.5068" cy="328.5968" r="1" gradientTransform="matrix(-6.0989 -4.6821 -4.4171 5.7538 -712.7764 -3523.5542)" gradientUnits="userSpaceOnUse">
		<stop  offset="0.3366" style="stop-color:#E3745B"/>
		<stop  offset="1" style="stop-color:#E3745B;stop-opacity:0"/>
	</radialGradient>
	<path style="fill:url(#SVGID_00000023275900564303524860000008697548959276817306_);" d="M23.9,9.5c3-3.4,7.1-2.9,9.7,0l1.6,1.9
		c0.6,0.6,1.4,0.9,2.2,0.8l2.8-0.8c3.9-0.8,7.4,2.1,7.4,6.6v1.7c0.1,0.9,0.9,1.6,1.7,2l2.6,1.1c3.7,1.8,4.7,6.1,1.9,9.7l-0.8,1
		c-0.7,0.9-0.5,2.2,0.1,3.1l0.8,1.1c2.8,3.4,1.2,8.2-2.7,9.8l-2.2,0.9c-0.8,0.3-1.2,0.9-1.3,1.8l-0.2,2.9c-0.5,4-4.1,5.8-6.9,5.4
		l-3.4-0.9c-0.8-0.1-1.8,0.2-2.4,1l-1.2,1.7c-3,3.4-7.1,2.8-9.1,0.8l-2.2-2.7c-0.6-0.6-1.3-1.1-2.2-0.7l-3.4,0.9
		C14,59,10.7,56.8,10.2,54l-0.4-4c-0.2-0.8-0.7-1.5-1.5-1.9l-2.4-0.8c-3.6-1.7-4.8-5.7-2.7-9.1l1.3-1.9c0.5-0.9,0.5-2-0.1-2.9
		l-1-1.4c-2.8-4-0.9-8.5,3.3-9.9l0.9-0.3c1-0.3,2-1.2,2.1-2.2L10,17c0.3-4.2,4.2-6.6,8.2-5.4l1.3,0.4c1.3,0.5,2.3,0.1,2.9-0.7
		L23.9,9.5z"/>
	<g>
		
			<radialGradient id="SVGID_00000046313973719916315160000015702673958919831717_" cx="-195.5092" cy="331.8411" r="1" gradientTransform="matrix(-17.5897 33.448 41.3052 21.7216 -17104.8613 -646.1112)" gradientUnits="userSpaceOnUse">
			<stop  offset="0.1718" style="stop-color:#FFD13D"/>
			<stop  offset="1" style="stop-color:#DCA21C"/>
			<stop  offset="1" style="stop-color:#D89A29"/>
		</radialGradient>
		<path style="fill:url(#SVGID_00000046313973719916315160000015702673958919831717_);" d="M28.8,56.1c11.7,0,21.2-9.5,21.2-21.2
			c0-11.7-9.5-21.2-21.2-21.2c-11.7,0-21.2,9.5-21.2,21.2C7.6,46.6,17.1,56.1,28.8,56.1z"/>
		
			<radialGradient id="SVGID_00000077296737320314240620000004688345385716661394_" cx="-296.6154" cy="317.5657" r="1" gradientTransform="matrix(-10.1918 -8.3624 -7.0603 8.6048 -759.6431 -5165.9189)" gradientUnits="userSpaceOnUse">
			<stop  offset="0.3407" style="stop-color:#DCA225"/>
			<stop  offset="1" style="stop-color:#DCA225;stop-opacity:0"/>
		</radialGradient>
		<path style="fill:url(#SVGID_00000077296737320314240620000004688345385716661394_);" d="M28.8,56.1c11.7,0,21.2-9.5,21.2-21.2
			c0-11.7-9.5-21.2-21.2-21.2c-11.7,0-21.2,9.5-21.2,21.2C7.6,46.6,17.1,56.1,28.8,56.1z"/>
		
			<radialGradient id="SVGID_00000141425929559984395400000010531709643317039782_" cx="-219.7992" cy="333.6158" r="0.9995" gradientTransform="matrix(-44.164 9.1467 7.7225 37.2874 -12237.4326 -10397.915)" gradientUnits="userSpaceOnUse">
			<stop  offset="0.6204" style="stop-color:#DCA225;stop-opacity:0"/>
			<stop  offset="1" style="stop-color:#DCA225"/>
		</radialGradient>
		<path style="fill:url(#SVGID_00000141425929559984395400000010531709643317039782_);" d="M28.8,56.1c11.7,0,21.2-9.5,21.2-21.2
			c0-11.7-9.5-21.2-21.2-21.2c-11.7,0-21.2,9.5-21.2,21.2C7.6,46.6,17.1,56.1,28.8,56.1z"/>
	</g>
	
		<radialGradient id="SVGID_00000111183818224075459660000014959604116148470430_" cx="-221.7445" cy="325.7754" r="1" gradientTransform="matrix(-48.1548 2.812 2.812 48.1548 -11530.2051 -15033.6123)" gradientUnits="userSpaceOnUse">
		<stop  offset="0.2105" style="stop-color:#F0EFF1"/>
		<stop  offset="1" style="stop-color:#C9C7CC"/>
	</radialGradient>
	<path style="fill:url(#SVGID_00000111183818224075459660000014959604116148470430_);" d="M44.6,72.7C59.2,72.7,71,60.8,71,46.2
		c0-14.6-11.8-26.4-26.4-26.4c-14.6,0-26.4,11.8-26.4,26.4C18.1,60.8,29.9,72.7,44.6,72.7z"/>
	
		<radialGradient id="SVGID_00000016061714634276685200000015998360989061458834_" cx="-263.395" cy="293.4913" r="1" gradientTransform="matrix(-9.1387 -17.5748 -24.0933 12.5283 4705.8877 -8255.8838)" gradientUnits="userSpaceOnUse">
		<stop  offset="0" style="stop-color:#CDCDCE"/>
		<stop  offset="1" style="stop-color:#CDCDCE;stop-opacity:0"/>
	</radialGradient>
	<path style="fill:url(#SVGID_00000016061714634276685200000015998360989061458834_);" d="M44.6,72.7C59.2,72.7,71,60.8,71,46.2
		c0-14.6-11.8-26.4-26.4-26.4c-14.6,0-26.4,11.8-26.4,26.4C18.1,60.8,29.9,72.7,44.6,72.7z"/>
	<g>
		
			<linearGradient id="SVGID_00000031174064908933006320000000543975841462832529_" gradientUnits="userSpaceOnUse" x1="50" y1="73.4633" x2="50" y2="9.1776" gradientTransform="matrix(1 0 0 -1 0 102)">
			<stop  offset="0" style="stop-color:#C7C6C6"/>
			<stop  offset="1" style="stop-color:#D5D4DA"/>
		</linearGradient>
		<path style="fill:url(#SVGID_00000031174064908933006320000000543975841462832529_);" d="M90.3,37.7c-12.7-12.4-33-12.2-45.4,0.5
			c-3.3,3.4-5.7,7.3-7.2,11.5c-0.2,0.6-0.9,0.8-1.4,0.5c-1.1-0.7-2.3-1.4-3.5-1.9c-2.9-1.4-6.2-2.1-9.6-2.1C10.3,46.1,0,56.5,0,69.2
			c0,5.4,1.9,10.4,5,14.4c4.3,5.6,11,9.2,18.5,9.2c9.1,0,35.2,0,45.4,0c10.1,0,19-5,24.4-12.6C103.1,67.5,102.1,49.2,90.3,37.7z"/>
		
			<linearGradient id="SVGID_00000070077517389566859070000004200939290324073888_" gradientUnits="userSpaceOnUse" x1="50" y1="12.6342" x2="50" y2="39.4659" gradientTransform="matrix(1 0 0 -1 0 102)">
			<stop  offset="0" style="stop-color:#DED7FA"/>
			<stop  offset="1" style="stop-color:#DED7FA;stop-opacity:0"/>
		</linearGradient>
		<path style="fill:url(#SVGID_00000070077517389566859070000004200939290324073888_);" d="M90.3,37.7c-12.7-12.4-33-12.2-45.4,0.5
			c-3.3,3.4-5.7,7.3-7.2,11.5c-0.2,0.6-0.9,0.8-1.4,0.5c-1.1-0.7-2.3-1.4-3.5-1.9c-2.9-1.4-6.2-2.1-9.6-2.1C10.3,46.1,0,56.5,0,69.2
			c0,5.4,1.9,10.4,5,14.4c4.3,5.6,11,9.2,18.5,9.2c9.1,0,35.2,0,45.4,0c10.1,0,19-5,24.4-12.6C103.1,67.5,102.1,49.2,90.3,37.7z"/>
		
			<radialGradient id="SVGID_00000029038137255315350890000007404070141693213323_" cx="-228.177" cy="300.9866" r="1" gradientTransform="matrix(-25.1331 -43.8228 -45.9996 26.3815 8178.0952 -17850.1211)" gradientUnits="userSpaceOnUse">
			<stop  offset="0" style="stop-color:#D5CBFF"/>
			<stop  offset="1" style="stop-color:#D5CBFF;stop-opacity:0"/>
		</radialGradient>
		<path style="fill:url(#SVGID_00000029038137255315350890000007404070141693213323_);" d="M90.3,37.7c-12.7-12.4-33-12.2-45.4,0.5
			c-3.3,3.4-5.7,7.3-7.2,11.5c-0.2,0.6-0.9,0.8-1.4,0.5c-1.1-0.7-2.3-1.4-3.5-1.9c-2.9-1.4-6.2-2.1-9.6-2.1C10.3,46.1,0,56.5,0,69.2
			c0,5.4,1.9,10.4,5,14.4c4.3,5.6,11,9.2,18.5,9.2c9.1,0,35.2,0,45.4,0c10.1,0,19-5,24.4-12.6C103.1,67.5,102.1,49.2,90.3,37.7z"/>
	</g>
	
		<radialGradient id="SVGID_00000059271553746392624120000013552610180915930534_" cx="-209.1877" cy="331.9393" r="1" gradientTransform="matrix(-36.1765 26.451 28.3741 38.8066 -16899.0898 -7298.0615)" gradientUnits="userSpaceOnUse">
		<stop  offset="0.1789" style="stop-color:#FCFBFE"/>
		<stop  offset="1" style="stop-color:#FCFBFE;stop-opacity:0"/>
	</radialGradient>
	<path style="fill:url(#SVGID_00000059271553746392624120000013552610180915930534_);" d="M90.3,37.7c-12.7-12.4-33-12.2-45.4,0.5
		c-3.3,3.4-5.7,7.3-7.2,11.5c-0.2,0.6-0.9,0.8-1.4,0.5c-1.1-0.7-2.3-1.4-3.5-1.9c-2.9-1.4-6.2-2.1-9.6-2.1C10.3,46.1,0,56.5,0,69.2
		c0,5.4,1.9,10.4,5,14.4c4.3,5.6,11,9.2,18.5,9.2c9.1,0,35.2,0,45.4,0c10.1,0,19-5,24.4-12.6C103.1,67.5,102.1,49.2,90.3,37.7z"/>
	
		<radialGradient id="SVGID_00000103970956870757630410000001758052716977814459_" cx="-213.2071" cy="353.7354" r="1" gradientTransform="matrix(-19.8824 14.2113 14.8913 20.8337 -9482.8555 -4274.2485)" gradientUnits="userSpaceOnUse">
		<stop  offset="0" style="stop-color:#FCFBFE"/>
		<stop  offset="1" style="stop-color:#FCFBFE;stop-opacity:0"/>
	</radialGradient>
	<path style="fill:url(#SVGID_00000103970956870757630410000001758052716977814459_);" d="M90.3,37.7c-12.7-12.4-33-12.2-45.4,0.5
		c-3.3,3.4-5.7,7.3-7.2,11.5c-0.2,0.6-0.9,0.8-1.4,0.5c-1.1-0.7-2.3-1.4-3.5-1.9c-2.9-1.4-6.2-2.1-9.6-2.1C10.3,46.1,0,56.5,0,69.2
		c0,5.4,1.9,10.4,5,14.4c4.3,5.6,11,9.2,18.5,9.2c9.1,0,35.2,0,45.4,0c10.1,0,19-5,24.4-12.6C103.1,67.5,102.1,49.2,90.3,37.7z"/>
	
		<radialGradient id="SVGID_00000148642641572999058880000009797409068903822762_" cx="-212.4888" cy="322.3825" r="1" gradientTransform="matrix(-82.9047 19.6681 15.4893 65.2902 -22526.9062 -16810.3867)" gradientUnits="userSpaceOnUse">
		<stop  offset="0.8154" style="stop-color:#CECCD7;stop-opacity:0"/>
		<stop  offset="1" style="stop-color:#CECCD7"/>
	</radialGradient>
	<path style="fill:url(#SVGID_00000148642641572999058880000009797409068903822762_);" d="M90.3,37.7c-12.7-12.4-33-12.2-45.4,0.5
		c-3.3,3.4-5.7,7.3-7.2,11.5c-0.2,0.6-0.9,0.8-1.4,0.5c-1.1-0.7-2.3-1.4-3.5-1.9c-2.9-1.4-6.2-2.1-9.6-2.1C10.3,46.1,0,56.5,0,69.2
		c0,5.4,1.9,10.4,5,14.4c4.3,5.6,11,9.2,18.5,9.2c9.1,0,35.2,0,45.4,0c10.1,0,19-5,24.4-12.6C103.1,67.5,102.1,49.2,90.3,37.7z"/>
	
		<radialGradient id="SVGID_00000163760725479923115490000008595617894136535943_" cx="-208.7001" cy="277.5915" r="1" gradientTransform="matrix(19.0293 -22.9038 -31.6077 -26.2608 12758.4541 2606.2136)" gradientUnits="userSpaceOnUse">
		<stop  offset="0" style="stop-color:#D0C9EE"/>
		<stop  offset="1" style="stop-color:#D0C9EE;stop-opacity:0"/>
	</radialGradient>
	<path style="fill:url(#SVGID_00000163760725479923115490000008595617894136535943_);" d="M90.3,37.7c-12.7-12.4-33-12.2-45.4,0.5
		c-3.3,3.4-5.7,7.3-7.2,11.5c-0.2,0.6-0.9,0.8-1.4,0.5c-1.1-0.7-2.3-1.4-3.5-1.9c-2.9-1.4-6.2-2.1-9.6-2.1C10.3,46.1,0,56.5,0,69.2
		c0,5.4,1.9,10.4,5,14.4c4.3,5.6,11,9.2,18.5,9.2c9.1,0,35.2,0,45.4,0c10.1,0,19-5,24.4-12.6C103.1,67.5,102.1,49.2,90.3,37.7z"/>
	<g>
		<path class="st22" d="M46,77.8c-2.8,4.3-6.6,7.8-8.2,9.1h16.5C51.1,84.9,47.5,80,46,77.8z"/>
	</g>
</g>
</svg>
