<?xml version="1.0" encoding="utf-8"?>
<!-- Generator: Adobe Illustrator 27.3.1, SVG Export Plug-In . SVG Version: 6.00 Build 0)  -->
<svg version="1.1" id="Layer_1" xmlns="http://www.w3.org/2000/svg" xmlns:xlink="http://www.w3.org/1999/xlink" x="0px" y="0px"
	 viewBox="0 0 100 100" style="enable-background:new 0 0 100 100;" xml:space="preserve">
<style type="text/css">
	.st0{fill:url(#SVGID_1_);}
	.st1{fill:url(#SVGID_00000039123371162856782060000010158571468959927725_);}
	.st2{fill:url(#SVGID_00000122710375276803348000000004700209780990293132_);}
	.st3{fill:url(#SVGID_00000114064226555119783370000007811575502319904134_);}
	.st4{fill:url(#SVGID_00000106106018424063977650000001497659225405643920_);}
	.st5{fill:url(#SVGID_00000007401353874244556900000011393474394529881995_);}
	.st6{fill:url(#SVGID_00000106124947531167232340000015894948578952994713_);}
	.st7{fill:url(#SVGID_00000033370896263373555930000016131178126337845151_);}
	.st8{fill:url(#SVGID_00000074433806467120927020000003381055775900913318_);}
	.st9{fill:url(#SVGID_00000044137057005832719440000011905456650871109272_);}
	.st10{fill:url(#SVGID_00000152249897850097908220000008220973328058146214_);}
	.st11{fill:url(#SVGID_00000023986792603437273350000013193976859704733093_);}
	.st12{fill:url(#SVGID_00000163069982795560535220000004292076898519343272_);}
	.st13{fill:url(#SVGID_00000049925786947566841350000015305880730294555292_);}
	.st14{fill:url(#SVGID_00000157289486337513297840000007281738757671411871_);}
	.st15{fill:#D5D4DA;}
	.st16{fill:url(#SVGID_00000018211312137428480390000002844834855069150883_);}
	.st17{fill:url(#SVGID_00000158718062264000224040000010950215726937932975_);}
	.st18{fill:url(#SVGID_00000000927874541453909210000003066010363859932560_);}
	.st19{fill:url(#SVGID_00000082331977757844014360000004017705481667516830_);}
	.st20{fill:url(#SVGID_00000113335755543494141620000013290457139620307641_);}
</style>
<g>
	
		<linearGradient id="SVGID_1_" gradientUnits="userSpaceOnUse" x1="69.3798" y1="85.2796" x2="19.2598" y2="21.333" gradientTransform="matrix(1 0 0 -1 0 102)">
		<stop  offset="0" style="stop-color:#FC8B23"/>
		<stop  offset="1" style="stop-color:#E67639"/>
	</linearGradient>
	<path class="st0" d="M36.1,6.8c5-5.6,11.8-4.7,16.1,0l2.7,3.1c0.9,1,2.2,1.5,3.6,1.4l4.7-1.4c6.4-1.4,12.3,3.4,12.3,10.9v2.8
		c0.1,1.5,1.5,2.6,2.9,3.2l4.3,1.8c6.2,3,7.7,10.2,3.2,16.1l-1.3,1.7c-1.1,1.5-0.9,3.6,0.2,5.1l1.3,1.8c4.6,5.7,2,13.6-4.5,16.3
		l-3.7,1.5c-1.4,0.6-1.9,1.6-2.2,3L75.4,79c-0.9,6.6-6.7,9.6-11.4,8.9l-5.6-1.5c-1.3-0.2-3,0.3-3.9,1.7l-2,2.8
		c-5,5.6-11.7,4.7-15.2,1.4l-3.7-4.5c-1-0.9-2.2-1.7-3.7-1.2L24.3,88c-4.6,0.7-10.1-2.9-11-7.5l-0.6-6.7c-0.3-1.4-1.2-2.6-2.5-3.2
		l-3.9-1.4c-5.9-2.8-7.9-9.5-4.5-15L4,51.2c0.9-1.5,0.9-3.3-0.1-4.7l-1.7-2.3C-2.5,37.4,0.8,30,7.7,27.7l1.5-0.5
		c1.7-0.5,3.3-2,3.5-3.7l0.3-4.3c0.6-7,6.9-11,13.6-9l2.2,0.7c2.1,0.8,3.7,0.1,4.9-1.1L36.1,6.8z"/>
	
		<radialGradient id="SVGID_00000019649977897625080520000011903321917628169104_" cx="-216.9862" cy="410.338" r="3.5727" gradientTransform="matrix(-2.5726 2.3038 2.0327 2.2698 -1339.6786 -424.3701)" gradientUnits="userSpaceOnUse">
		<stop  offset="0.3002" style="stop-color:#FFA13A"/>
		<stop  offset="1" style="stop-color:#FFA13A;stop-opacity:0"/>
	</radialGradient>
	<path style="fill:url(#SVGID_00000019649977897625080520000011903321917628169104_);" d="M36.1,6.8c5-5.6,11.8-4.7,16.1,0l2.7,3.1
		c0.9,1,2.2,1.5,3.6,1.4l4.7-1.4c6.4-1.4,12.3,3.4,12.3,10.9v2.8c0.1,1.5,1.5,2.6,2.9,3.2l4.3,1.8c6.2,3,7.7,10.2,3.2,16.1l-1.3,1.7
		c-1.1,1.5-0.9,3.6,0.2,5.1l1.3,1.8c4.6,5.7,2,13.6-4.5,16.3l-3.7,1.5c-1.4,0.6-1.9,1.6-2.2,3L75.4,79c-0.9,6.6-6.7,9.6-11.4,8.9
		l-5.6-1.5c-1.3-0.2-3,0.3-3.9,1.7l-2,2.8c-5,5.6-11.7,4.7-15.2,1.4l-3.7-4.5c-1-0.9-2.2-1.7-3.7-1.2L24.3,88
		c-4.6,0.7-10.1-2.9-11-7.5l-0.6-6.7c-0.3-1.4-1.2-2.6-2.5-3.2l-3.9-1.4c-5.9-2.8-7.9-9.5-4.5-15L4,51.2c0.9-1.5,0.9-3.3-0.1-4.7
		l-1.7-2.3C-2.5,37.4,0.8,30,7.7,27.7l1.5-0.5c1.7-0.5,3.3-2,3.5-3.7l0.3-4.3c0.6-7,6.9-11,13.6-9l2.2,0.7c2.1,0.8,3.7,0.1,4.9-1.1
		L36.1,6.8z"/>
	
		<radialGradient id="SVGID_00000054983817853533600590000007169662033298280836_" cx="-155.5891" cy="332.7118" r="3.5727" gradientTransform="matrix(2.0734 5.0835 4.4852 -1.8294 -1149.1478 1402.8455)" gradientUnits="userSpaceOnUse">
		<stop  offset="0.3002" style="stop-color:#FF942A"/>
		<stop  offset="1" style="stop-color:#FF942A;stop-opacity:0"/>
	</radialGradient>
	<path style="fill:url(#SVGID_00000054983817853533600590000007169662033298280836_);" d="M36.1,6.8c5-5.6,11.8-4.7,16.1,0l2.7,3.1
		c0.9,1,2.2,1.5,3.6,1.4l4.7-1.4c6.4-1.4,12.3,3.4,12.3,10.9v2.8c0.1,1.5,1.5,2.6,2.9,3.2l4.3,1.8c6.2,3,7.7,10.2,3.2,16.1l-1.3,1.7
		c-1.1,1.5-0.9,3.6,0.2,5.1l1.3,1.8c4.6,5.7,2,13.6-4.5,16.3l-3.7,1.5c-1.4,0.6-1.9,1.6-2.2,3L75.4,79c-0.9,6.6-6.7,9.6-11.4,8.9
		l-5.6-1.5c-1.3-0.2-3,0.3-3.9,1.7l-2,2.8c-5,5.6-11.7,4.7-15.2,1.4l-3.7-4.5c-1-0.9-2.2-1.7-3.7-1.2L24.3,88
		c-4.6,0.7-10.1-2.9-11-7.5l-0.6-6.7c-0.3-1.4-1.2-2.6-2.5-3.2l-3.9-1.4c-5.9-2.8-7.9-9.5-4.5-15L4,51.2c0.9-1.5,0.9-3.3-0.1-4.7
		l-1.7-2.3C-2.5,37.4,0.8,30,7.7,27.7l1.5-0.5c1.7-0.5,3.3-2,3.5-3.7l0.3-4.3c0.6-7,6.9-11,13.6-9l2.2,0.7c2.1,0.8,3.7,0.1,4.9-1.1
		L36.1,6.8z"/>
	
		<radialGradient id="SVGID_00000078738938486978256860000000960006019302452357_" cx="-343.8218" cy="353.9763" r="3.5727" gradientTransform="matrix(-2.1118 -0.576 -0.7975 2.9241 -370.5995 -1211.5577)" gradientUnits="userSpaceOnUse">
		<stop  offset="0.3002" style="stop-color:#FFA13D"/>
		<stop  offset="1" style="stop-color:#FFA13D;stop-opacity:0"/>
	</radialGradient>
	<path style="fill:url(#SVGID_00000078738938486978256860000000960006019302452357_);" d="M36.1,6.8c5-5.6,11.8-4.7,16.1,0l2.7,3.1
		c0.9,1,2.2,1.5,3.6,1.4l4.7-1.4c6.4-1.4,12.3,3.4,12.3,10.9v2.8c0.1,1.5,1.5,2.6,2.9,3.2l4.3,1.8c6.2,3,7.7,10.2,3.2,16.1l-1.3,1.7
		c-1.1,1.5-0.9,3.6,0.2,5.1l1.3,1.8c4.6,5.7,2,13.6-4.5,16.3l-3.7,1.5c-1.4,0.6-1.9,1.6-2.2,3L75.4,79c-0.9,6.6-6.7,9.6-11.4,8.9
		l-5.6-1.5c-1.3-0.2-3,0.3-3.9,1.7l-2,2.8c-5,5.6-11.7,4.7-15.2,1.4l-3.7-4.5c-1-0.9-2.2-1.7-3.7-1.2L24.3,88
		c-4.6,0.7-10.1-2.9-11-7.5l-0.6-6.7c-0.3-1.4-1.2-2.6-2.5-3.2l-3.9-1.4c-5.9-2.8-7.9-9.5-4.5-15L4,51.2c0.9-1.5,0.9-3.3-0.1-4.7
		l-1.7-2.3C-2.5,37.4,0.8,30,7.7,27.7l1.5-0.5c1.7-0.5,3.3-2,3.5-3.7l0.3-4.3c0.6-7,6.9-11,13.6-9l2.2,0.7c2.1,0.8,3.7,0.1,4.9-1.1
		L36.1,6.8z"/>
	
		<radialGradient id="SVGID_00000103253956139345383060000011462605169910641591_" cx="-241.6554" cy="418.385" r="3.5727" gradientTransform="matrix(-3.4941 1.6895 1.2478 2.5807 -1277.4596 -638.5107)" gradientUnits="userSpaceOnUse">
		<stop  offset="0.3002" style="stop-color:#FFA13D"/>
		<stop  offset="1" style="stop-color:#FFA13D;stop-opacity:0"/>
	</radialGradient>
	<path style="fill:url(#SVGID_00000103253956139345383060000011462605169910641591_);" d="M36.1,6.8c5-5.6,11.8-4.7,16.1,0l2.7,3.1
		c0.9,1,2.2,1.5,3.6,1.4l4.7-1.4c6.4-1.4,12.3,3.4,12.3,10.9v2.8c0.1,1.5,1.5,2.6,2.9,3.2l4.3,1.8c6.2,3,7.7,10.2,3.2,16.1l-1.3,1.7
		c-1.1,1.5-0.9,3.6,0.2,5.1l1.3,1.8c4.6,5.7,2,13.6-4.5,16.3l-3.7,1.5c-1.4,0.6-1.9,1.6-2.2,3L75.4,79c-0.9,6.6-6.7,9.6-11.4,8.9
		l-5.6-1.5c-1.3-0.2-3,0.3-3.9,1.7l-2,2.8c-5,5.6-11.7,4.7-15.2,1.4l-3.7-4.5c-1-0.9-2.2-1.7-3.7-1.2L24.3,88
		c-4.6,0.7-10.1-2.9-11-7.5l-0.6-6.7c-0.3-1.4-1.2-2.6-2.5-3.2l-3.9-1.4c-5.9-2.8-7.9-9.5-4.5-15L4,51.2c0.9-1.5,0.9-3.3-0.1-4.7
		l-1.7-2.3C-2.5,37.4,0.8,30,7.7,27.7l1.5-0.5c1.7-0.5,3.3-2,3.5-3.7l0.3-4.3c0.6-7,6.9-11,13.6-9l2.2,0.7c2.1,0.8,3.7,0.1,4.9-1.1
		L36.1,6.8z"/>
	
		<radialGradient id="SVGID_00000019637632050543615250000002367550326648398464_" cx="-273.2307" cy="392.9721" r="3.5727" gradientTransform="matrix(-4.3005 -0.4992 -0.2813 2.4235 -972.4756 -1032.3654)" gradientUnits="userSpaceOnUse">
		<stop  offset="0.3002" style="stop-color:#FFA13D"/>
		<stop  offset="1" style="stop-color:#FFA13D;stop-opacity:0"/>
	</radialGradient>
	<path style="fill:url(#SVGID_00000019637632050543615250000002367550326648398464_);" d="M36.1,6.8c5-5.6,11.8-4.7,16.1,0l2.7,3.1
		c0.9,1,2.2,1.5,3.6,1.4l4.7-1.4c6.4-1.4,12.3,3.4,12.3,10.9v2.8c0.1,1.5,1.5,2.6,2.9,3.2l4.3,1.8c6.2,3,7.7,10.2,3.2,16.1l-1.3,1.7
		c-1.1,1.5-0.9,3.6,0.2,5.1l1.3,1.8c4.6,5.7,2,13.6-4.5,16.3l-3.7,1.5c-1.4,0.6-1.9,1.6-2.2,3L75.4,79c-0.9,6.6-6.7,9.6-11.4,8.9
		l-5.6-1.5c-1.3-0.2-3,0.3-3.9,1.7l-2,2.8c-5,5.6-11.7,4.7-15.2,1.4l-3.7-4.5c-1-0.9-2.2-1.7-3.7-1.2L24.3,88
		c-4.6,0.7-10.1-2.9-11-7.5l-0.6-6.7c-0.3-1.4-1.2-2.6-2.5-3.2l-3.9-1.4c-5.9-2.8-7.9-9.5-4.5-15L4,51.2c0.9-1.5,0.9-3.3-0.1-4.7
		l-1.7-2.3C-2.5,37.4,0.8,30,7.7,27.7l1.5-0.5c1.7-0.5,3.3-2,3.5-3.7l0.3-4.3c0.6-7,6.9-11,13.6-9l2.2,0.7c2.1,0.8,3.7,0.1,4.9-1.1
		L36.1,6.8z"/>
	
		<radialGradient id="SVGID_00000101065048410657630840000017867071454517519509_" cx="-202.6202" cy="210.846" r="3.5727" gradientTransform="matrix(2.8266 -2.7262 -2.6264 -2.7231 1204.6371 96.1282)" gradientUnits="userSpaceOnUse">
		<stop  offset="0" style="stop-color:#E0762A"/>
		<stop  offset="1" style="stop-color:#E0762A;stop-opacity:0"/>
	</radialGradient>
	<path style="fill:url(#SVGID_00000101065048410657630840000017867071454517519509_);" d="M36.1,6.8c5-5.6,11.8-4.7,16.1,0l2.7,3.1
		c0.9,1,2.2,1.5,3.6,1.4l4.7-1.4c6.4-1.4,12.3,3.4,12.3,10.9v2.8c0.1,1.5,1.5,2.6,2.9,3.2l4.3,1.8c6.2,3,7.7,10.2,3.2,16.1l-1.3,1.7
		c-1.1,1.5-0.9,3.6,0.2,5.1l1.3,1.8c4.6,5.7,2,13.6-4.5,16.3l-3.7,1.5c-1.4,0.6-1.9,1.6-2.2,3L75.4,79c-0.9,6.6-6.7,9.6-11.4,8.9
		l-5.6-1.5c-1.3-0.2-3,0.3-3.9,1.7l-2,2.8c-5,5.6-11.7,4.7-15.2,1.4l-3.7-4.5c-1-0.9-2.2-1.7-3.7-1.2L24.3,88
		c-4.6,0.7-10.1-2.9-11-7.5l-0.6-6.7c-0.3-1.4-1.2-2.6-2.5-3.2l-3.9-1.4c-5.9-2.8-7.9-9.5-4.5-15L4,51.2c0.9-1.5,0.9-3.3-0.1-4.7
		l-1.7-2.3C-2.5,37.4,0.8,30,7.7,27.7l1.5-0.5c1.7-0.5,3.3-2,3.5-3.7l0.3-4.3c0.6-7,6.9-11,13.6-9l2.2,0.7c2.1,0.8,3.7,0.1,4.9-1.1
		L36.1,6.8z"/>
	
		<radialGradient id="SVGID_00000057868156491026532160000007010105289389135787_" cx="-314.6383" cy="302.4792" r="3.5727" gradientTransform="matrix(-1.8431 -2.3806 -2.2934 1.7756 126.9418 -1215.0516)" gradientUnits="userSpaceOnUse">
		<stop  offset="0" style="stop-color:#E0762A"/>
		<stop  offset="1" style="stop-color:#E0762A;stop-opacity:0"/>
	</radialGradient>
	<path style="fill:url(#SVGID_00000057868156491026532160000007010105289389135787_);" d="M36.1,6.8c5-5.6,11.8-4.7,16.1,0l2.7,3.1
		c0.9,1,2.2,1.5,3.6,1.4l4.7-1.4c6.4-1.4,12.3,3.4,12.3,10.9v2.8c0.1,1.5,1.5,2.6,2.9,3.2l4.3,1.8c6.2,3,7.7,10.2,3.2,16.1l-1.3,1.7
		c-1.1,1.5-0.9,3.6,0.2,5.1l1.3,1.8c4.6,5.7,2,13.6-4.5,16.3l-3.7,1.5c-1.4,0.6-1.9,1.6-2.2,3L75.4,79c-0.9,6.6-6.7,9.6-11.4,8.9
		l-5.6-1.5c-1.3-0.2-3,0.3-3.9,1.7l-2,2.8c-5,5.6-11.7,4.7-15.2,1.4l-3.7-4.5c-1-0.9-2.2-1.7-3.7-1.2L24.3,88
		c-4.6,0.7-10.1-2.9-11-7.5l-0.6-6.7c-0.3-1.4-1.2-2.6-2.5-3.2l-3.9-1.4c-5.9-2.8-7.9-9.5-4.5-15L4,51.2c0.9-1.5,0.9-3.3-0.1-4.7
		l-1.7-2.3C-2.5,37.4,0.8,30,7.7,27.7l1.5-0.5c1.7-0.5,3.3-2,3.5-3.7l0.3-4.3c0.6-7,6.9-11,13.6-9l2.2,0.7c2.1,0.8,3.7,0.1,4.9-1.1
		L36.1,6.8z"/>
	
		<radialGradient id="SVGID_00000109020397199762600920000007759161866715596170_" cx="-113.6178" cy="274.8271" r="3.5727" gradientTransform="matrix(2.7646 1.3055 1.5779 -3.3414 -121.0942 1101.3446)" gradientUnits="userSpaceOnUse">
		<stop  offset="0" style="stop-color:#F0851D"/>
		<stop  offset="1" style="stop-color:#F0851D;stop-opacity:0"/>
	</radialGradient>
	<path style="fill:url(#SVGID_00000109020397199762600920000007759161866715596170_);" d="M36.1,6.8c5-5.6,11.8-4.7,16.1,0l2.7,3.1
		c0.9,1,2.2,1.5,3.6,1.4l4.7-1.4c6.4-1.4,12.3,3.4,12.3,10.9v2.8c0.1,1.5,1.5,2.6,2.9,3.2l4.3,1.8c6.2,3,7.7,10.2,3.2,16.1l-1.3,1.7
		c-1.1,1.5-0.9,3.6,0.2,5.1l1.3,1.8c4.6,5.7,2,13.6-4.5,16.3l-3.7,1.5c-1.4,0.6-1.9,1.6-2.2,3L75.4,79c-0.9,6.6-6.7,9.6-11.4,8.9
		l-5.6-1.5c-1.3-0.2-3,0.3-3.9,1.7l-2,2.8c-5,5.6-11.7,4.7-15.2,1.4l-3.7-4.5c-1-0.9-2.2-1.7-3.7-1.2L24.3,88
		c-4.6,0.7-10.1-2.9-11-7.5l-0.6-6.7c-0.3-1.4-1.2-2.6-2.5-3.2l-3.9-1.4c-5.9-2.8-7.9-9.5-4.5-15L4,51.2c0.9-1.5,0.9-3.3-0.1-4.7
		l-1.7-2.3C-2.5,37.4,0.8,30,7.7,27.7l1.5-0.5c1.7-0.5,3.3-2,3.5-3.7l0.3-4.3c0.6-7,6.9-11,13.6-9l2.2,0.7c2.1,0.8,3.7,0.1,4.9-1.1
		L36.1,6.8z"/>
	
		<radialGradient id="SVGID_00000119076627761024219340000006639896230072855942_" cx="-305.9089" cy="324.821" r="3.5727" gradientTransform="matrix(-2.8274 -2.1706 -2.0478 2.6674 -136.1366 -1440.5159)" gradientUnits="userSpaceOnUse">
		<stop  offset="0.3366" style="stop-color:#E3745B"/>
		<stop  offset="1" style="stop-color:#E3745B;stop-opacity:0"/>
	</radialGradient>
	<path style="fill:url(#SVGID_00000119076627761024219340000006639896230072855942_);" d="M36.1,6.8c5-5.6,11.8-4.7,16.1,0l2.7,3.1
		c0.9,1,2.2,1.5,3.6,1.4l4.7-1.4c6.4-1.4,12.3,3.4,12.3,10.9v2.8c0.1,1.5,1.5,2.6,2.9,3.2l4.3,1.8c6.2,3,7.7,10.2,3.2,16.1l-1.3,1.7
		c-1.1,1.5-0.9,3.6,0.2,5.1l1.3,1.8c4.6,5.7,2,13.6-4.5,16.3l-3.7,1.5c-1.4,0.6-1.9,1.6-2.2,3L75.4,79c-0.9,6.6-6.7,9.6-11.4,8.9
		l-5.6-1.5c-1.3-0.2-3,0.3-3.9,1.7l-2,2.8c-5,5.6-11.7,4.7-15.2,1.4l-3.7-4.5c-1-0.9-2.2-1.7-3.7-1.2L24.3,88
		c-4.6,0.7-10.1-2.9-11-7.5l-0.6-6.7c-0.3-1.4-1.2-2.6-2.5-3.2l-3.9-1.4c-5.9-2.8-7.9-9.5-4.5-15L4,51.2c0.9-1.5,0.9-3.3-0.1-4.7
		l-1.7-2.3C-2.5,37.4,0.8,30,7.7,27.7l1.5-0.5c1.7-0.5,3.3-2,3.5-3.7l0.3-4.3c0.6-7,6.9-11,13.6-9l2.2,0.7c2.1,0.8,3.7,0.1,4.9-1.1
		L36.1,6.8z"/>
	<g>
		
			<radialGradient id="SVGID_00000103222570636386139630000014377997345697366166_" cx="-200.3887" cy="321.9747" r="3.5727" gradientTransform="matrix(-8.1545 15.5065 19.1489 10.07 -7735.4448 -106.5213)" gradientUnits="userSpaceOnUse">
			<stop  offset="0.1718" style="stop-color:#FFD13D"/>
			<stop  offset="1" style="stop-color:#DCA21C"/>
			<stop  offset="1" style="stop-color:#D89A29"/>
		</radialGradient>
		<path style="fill:url(#SVGID_00000103222570636386139630000014377997345697366166_);" d="M44.2,83.9c19.4,0,35.1-15.7,35.1-35.1
			S63.6,13.7,44.2,13.7c-19.4,0-35.1,15.7-35.1,35.1S24.8,83.9,44.2,83.9z"/>
		
			<radialGradient id="SVGID_00000122686254113246710270000014092209324655201679_" cx="-259.6655" cy="316.9148" r="3.5727" gradientTransform="matrix(-4.7249 -3.8768 -3.2731 3.9892 -157.86 -2201.915)" gradientUnits="userSpaceOnUse">
			<stop  offset="0.3407" style="stop-color:#DCA225"/>
			<stop  offset="1" style="stop-color:#DCA225;stop-opacity:0"/>
		</radialGradient>
		<path style="fill:url(#SVGID_00000122686254113246710270000014092209324655201679_);" d="M44.2,83.9c19.4,0,35.1-15.7,35.1-35.1
			S63.6,13.7,44.2,13.7c-19.4,0-35.1,15.7-35.1,35.1S24.8,83.9,44.2,83.9z"/>
		
			<radialGradient id="SVGID_00000109719394607188670520000007701416868093013932_" cx="-214.7069" cy="322.8412" r="3.571" gradientTransform="matrix(-20.4743 4.2404 3.5801 17.2863 -5478.9316 -4627.4326)" gradientUnits="userSpaceOnUse">
			<stop  offset="0.6204" style="stop-color:#DCA225;stop-opacity:0"/>
			<stop  offset="1" style="stop-color:#DCA225"/>
		</radialGradient>
		<path style="fill:url(#SVGID_00000109719394607188670520000007701416868093013932_);" d="M44.2,83.9c19.4,0,35.1-15.7,35.1-35.1
			S63.6,13.7,44.2,13.7c-19.4,0-35.1,15.7-35.1,35.1S24.8,83.9,44.2,83.9z"/>
	</g>
	
		<radialGradient id="SVGID_00000144331404278607934880000016981809842451273131_" cx="-270.8339" cy="358.1504" r="3.5727" gradientTransform="matrix(-4.1237 -0.5456 -0.5456 4.1237 -865.0729 -1562.1261)" gradientUnits="userSpaceOnUse">
		<stop  offset="0.3088" style="stop-color:#E8E8E9"/>
		<stop  offset="1" style="stop-color:#D2D2D2"/>
	</radialGradient>
	<path style="fill:url(#SVGID_00000144331404278607934880000016981809842451273131_);" d="M52.5,77.4c6,0,10.8-4.8,10.8-10.8
		c0-6-4.8-10.8-10.8-10.8c-6,0-10.8,4.8-10.8,10.8C41.6,72.5,46.5,77.4,52.5,77.4z"/>
	
		<radialGradient id="SVGID_00000108289647520089582520000012366068864303853998_" cx="-357.4836" cy="327.7775" r="3.5727" gradientTransform="matrix(-1.7609 -1.4137 -1.2952 1.6134 -151.3273 -968.5395)" gradientUnits="userSpaceOnUse">
		<stop  offset="0" style="stop-color:#CDCDCE"/>
		<stop  offset="1" style="stop-color:#CDCDCE;stop-opacity:0"/>
	</radialGradient>
	<path style="fill:url(#SVGID_00000108289647520089582520000012366068864303853998_);" d="M52.5,77.4c6,0,10.8-4.8,10.8-10.8
		c0-6-4.8-10.8-10.8-10.8c-6,0-10.8,4.8-10.8,10.8C41.6,72.5,46.5,77.4,52.5,77.4z"/>
	<g>
		<path class="st15" d="M92.7,55.7c-9.5-9.3-24.8-9.1-34.1,0.4c-2.4,2.5-4.2,5.3-5.3,8.3c-0.2,0.6-0.9,0.8-1.4,0.5
			c-0.8-0.5-1.6-0.9-2.4-1.3c-2.2-1-4.6-1.6-7.2-1.6c-9.6,0-17.3,7.8-17.3,17.3c0,4.1,1.4,7.8,3.8,10.8c3.2,4.2,8.2,6.9,13.9,6.9
			c6.8,0,26.4,0,34.1,0c7.6,0,14.3-3.7,18.3-9.5C102.4,78.1,101.6,64.3,92.7,55.7z"/>
		
			<linearGradient id="SVGID_00000134216633049066917370000003554938706767303839_" gradientUnits="userSpaceOnUse" x1="62.4752" y1="7.488" x2="62.4752" y2="27.6254" gradientTransform="matrix(1 0 0 -1 0 102)">
			<stop  offset="0" style="stop-color:#DED7FA"/>
			<stop  offset="1" style="stop-color:#DED7FA;stop-opacity:0"/>
		</linearGradient>
		<path style="fill:url(#SVGID_00000134216633049066917370000003554938706767303839_);" d="M92.7,55.7c-9.5-9.3-24.8-9.1-34.1,0.4
			c-2.4,2.5-4.2,5.3-5.3,8.3c-0.2,0.6-0.9,0.8-1.4,0.5c-0.8-0.5-1.6-0.9-2.4-1.3c-2.2-1-4.6-1.6-7.2-1.6c-9.6,0-17.3,7.8-17.3,17.3
			c0,4.1,1.4,7.8,3.8,10.8c3.2,4.2,8.2,6.9,13.9,6.9c6.8,0,26.4,0,34.1,0c7.6,0,14.3-3.7,18.3-9.5C102.4,78.1,101.6,64.3,92.7,55.7z
			"/>
	</g>
	
		<radialGradient id="SVGID_00000039837208176851915310000015300463802329941381_" cx="-207.7753" cy="347.6462" r="3.5727" gradientTransform="matrix(-6.07 5.7602 6.179 6.5113 -3319.0374 -1001.7216)" gradientUnits="userSpaceOnUse">
		<stop  offset="0.1789" style="stop-color:#FCFBFE"/>
		<stop  offset="1" style="stop-color:#FCFBFE;stop-opacity:0"/>
	</radialGradient>
	<path style="fill:url(#SVGID_00000039837208176851915310000015300463802329941381_);" d="M92.7,55.7c-9.5-9.3-24.8-9.1-34.1,0.4
		c-2.4,2.5-4.2,5.3-5.3,8.3c-0.2,0.6-0.9,0.8-1.4,0.5c-0.8-0.5-1.6-0.9-2.4-1.3c-2.2-1-4.6-1.6-7.2-1.6c-9.6,0-17.3,7.8-17.3,17.3
		c0,4.1,1.4,7.8,3.8,10.8c3.2,4.2,8.2,6.9,13.9,6.9c6.8,0,26.4,0,34.1,0c7.6,0,14.3-3.7,18.3-9.5C102.4,78.1,101.6,64.3,92.7,55.7z"
		/>
	
		<radialGradient id="SVGID_00000111880720332727556710000002111021050262021309_" cx="-212.9494" cy="371.13" r="3.5727" gradientTransform="matrix(-4.1766 2.9853 3.1281 4.3764 -2007.5496 -911.9634)" gradientUnits="userSpaceOnUse">
		<stop  offset="0" style="stop-color:#FCFBFE"/>
		<stop  offset="1" style="stop-color:#FCFBFE;stop-opacity:0"/>
	</radialGradient>
	<path style="fill:url(#SVGID_00000111880720332727556710000002111021050262021309_);" d="M92.7,55.7c-9.5-9.3-24.8-9.1-34.1,0.4
		c-2.4,2.5-4.2,5.3-5.3,8.3c-0.2,0.6-0.9,0.8-1.4,0.5c-0.8-0.5-1.6-0.9-2.4-1.3c-2.2-1-4.6-1.6-7.2-1.6c-9.6,0-17.3,7.8-17.3,17.3
		c0,4.1,1.4,7.8,3.8,10.8c3.2,4.2,8.2,6.9,13.9,6.9c6.8,0,26.4,0,34.1,0c7.6,0,14.3-3.7,18.3-9.5C102.4,78.1,101.6,64.3,92.7,55.7z"
		/>
	
		<radialGradient id="SVGID_00000172399044943823006090000004161784557031913380_" cx="-216.1799" cy="328.8389" r="3.5727" gradientTransform="matrix(-17.4154 4.1316 3.2538 13.7152 -4747.6597 -3545.3789)" gradientUnits="userSpaceOnUse">
		<stop  offset="0.8154" style="stop-color:#CECCD7;stop-opacity:0"/>
		<stop  offset="1" style="stop-color:#CECCD7"/>
	</radialGradient>
	<path style="fill:url(#SVGID_00000172399044943823006090000004161784557031913380_);" d="M92.7,55.7c-9.5-9.3-24.8-9.1-34.1,0.4
		c-2.4,2.5-4.2,5.3-5.3,8.3c-0.2,0.6-0.9,0.8-1.4,0.5c-0.8-0.5-1.6-0.9-2.4-1.3c-2.2-1-4.6-1.6-7.2-1.6c-9.6,0-17.3,7.8-17.3,17.3
		c0,4.1,1.4,7.8,3.8,10.8c3.2,4.2,8.2,6.9,13.9,6.9c6.8,0,26.4,0,34.1,0c7.6,0,14.3-3.7,18.3-9.5C102.4,78.1,101.6,64.3,92.7,55.7z"
		/>
	
		<radialGradient id="SVGID_00000052818952588109454250000017491790614908169614_" cx="-213.9474" cy="254.1649" r="3.5727" gradientTransform="matrix(3.3201 -3.5343 -4.8774 -4.5818 1984.6927 508.2157)" gradientUnits="userSpaceOnUse">
		<stop  offset="0" style="stop-color:#D0C9EE"/>
		<stop  offset="1" style="stop-color:#D0C9EE;stop-opacity:0"/>
	</radialGradient>
	<path style="fill:url(#SVGID_00000052818952588109454250000017491790614908169614_);" d="M92.7,55.7c-9.5-9.3-24.8-9.1-34.1,0.4
		c-2.4,2.5-4.2,5.3-5.3,8.3c-0.2,0.6-0.9,0.8-1.4,0.5c-0.8-0.5-1.6-0.9-2.4-1.3c-2.2-1-4.6-1.6-7.2-1.6c-9.6,0-17.3,7.8-17.3,17.3
		c0,4.1,1.4,7.8,3.8,10.8c3.2,4.2,8.2,6.9,13.9,6.9c6.8,0,26.4,0,34.1,0c7.6,0,14.3-3.7,18.3-9.5C102.4,78.1,101.6,64.3,92.7,55.7z"
		/>
</g>
</svg>
