<?xml version="1.0" encoding="utf-8"?>
<!-- Generator: Adobe Illustrator 27.3.1, SVG Export Plug-In . SVG Version: 6.00 Build 0)  -->
<svg version="1.1" id="Layer_1" xmlns="http://www.w3.org/2000/svg" xmlns:xlink="http://www.w3.org/1999/xlink" x="0px" y="0px"
	 viewBox="0 0 32 32" style="enable-background:new 0 0 32 32;" xml:space="preserve">
<style type="text/css">
	.st0{fill:url(#SVGID_1_);}
	.st1{fill:url(#SVGID_00000017482571078910171780000010383056410480096680_);}
	.st2{fill:url(#SVGID_00000160178363651565900430000005701100614294623163_);}
	.st3{fill:url(#SVGID_00000021829191168754594390000017762874154290226056_);}
	.st4{fill:url(#SVGID_00000168796113684588458790000008974725491004325533_);}
	.st5{fill:url(#SVGID_00000049940249533602732510000017082562092104859824_);}
	.st6{fill:none;stroke:url(#SVGID_00000021833897900273815490000002499094517931831729_);stroke-width:0.75;stroke-linecap:round;}
	.st7{fill:#3D2A5B;}
	.st8{fill:none;stroke:url(#SVGID_00000112631995861898220940000007841046251095804290_);stroke-width:0.75;stroke-linecap:round;}
</style>
<g>
	<g>
		
			<linearGradient id="SVGID_1_" gradientUnits="userSpaceOnUse" x1="12.3601" y1="15.1146" x2="19.197" y2="22.419" gradientTransform="matrix(1 0 0 -1 0 34)">
			<stop  offset="2.083330e-02" style="stop-color:#A8D2FF"/>
			<stop  offset="1" style="stop-color:#B1DFFF"/>
		</linearGradient>
		<path class="st0" d="M22.6,16.1L7.8,1.4C6-0.4,3.2-0.4,1.4,1.4c-1.8,1.8-1.8,4.7,0,6.5l14.8,14.8c-0.4,2.5,0.3,5.1,2.2,7.1
			c3.1,3.1,8.2,3.1,11.3,0c3.1-3.1,3.1-8.2,0-11.3C27.8,16.4,25.1,15.7,22.6,16.1z"/>
	</g>
	
		<radialGradient id="SVGID_00000114796462999877313780000017601455839159130245_" cx="-255.5448" cy="312.1155" r="1.1442" gradientTransform="matrix(-7.4039 3.0132 3.0132 7.4039 -2805.6931 -1518.8638)" gradientUnits="userSpaceOnUse">
		<stop  offset="0.5522" style="stop-color:#FF285E"/>
		<stop  offset="1" style="stop-color:#BC2238"/>
	</radialGradient>
	<path style="fill:url(#SVGID_00000114796462999877313780000017601455839159130245_);" d="M24,29.7c3.2,0,5.7-2.6,5.7-5.7
		s-2.6-5.7-5.7-5.7s-5.7,2.6-5.7,5.7S20.9,29.7,24,29.7z"/>
	
		<radialGradient id="SVGID_00000013878876770031728470000005122903933503184807_" cx="-37.3158" cy="274.2903" r="1.1442" gradientTransform="matrix(1.1746 1.2002 2.0374 -1.994 -494.7524 611.5608)" gradientUnits="userSpaceOnUse">
		<stop  offset="0.4058" style="stop-color:#F12D4A"/>
		<stop  offset="1" style="stop-color:#F12D4A;stop-opacity:0"/>
	</radialGradient>
	<path style="fill:url(#SVGID_00000013878876770031728470000005122903933503184807_);" d="M24,29.7c3.2,0,5.7-2.6,5.7-5.7
		s-2.6-5.7-5.7-5.7s-5.7,2.6-5.7,5.7S20.9,29.7,24,29.7z"/>
	
		<linearGradient id="SVGID_00000034076523102149593430000016612204162808094098_" gradientUnits="userSpaceOnUse" x1="10.054" y1="20.7558" x2="13.2902" y2="23.992" gradientTransform="matrix(1 0 0 -1 0 34)">
		<stop  offset="0" style="stop-color:#C81871"/>
		<stop  offset="1" style="stop-color:#FF389D"/>
	</linearGradient>
	<path style="fill:url(#SVGID_00000034076523102149593430000016612204162808094098_);" d="M3,3C2.1,3.9,2.1,5.3,3,6.2l15.7,15.7
		l3.2-3.2L6.2,3C5.3,2.1,3.9,2.1,3,3z"/>
	
		<radialGradient id="SVGID_00000011031106948084004710000004519874901512061857_" cx="-291.018" cy="296.2213" r="1.1442" gradientTransform="matrix(-4.9539 -0.4086 -0.7756 9.4034 -1190.5074 -2883.5168)" gradientUnits="userSpaceOnUse">
		<stop  offset="0" style="stop-color:#FF3262"/>
		<stop  offset="1" style="stop-color:#FF3262;stop-opacity:0"/>
	</radialGradient>
	<path style="fill:url(#SVGID_00000011031106948084004710000004519874901512061857_);" d="M3,3C2.1,3.9,2.1,5.3,3,6.2l15.7,15.7
		l3.2-3.2L6.2,3C5.3,2.1,3.9,2.1,3,3z"/>
	
		<linearGradient id="SVGID_00000072971092152253310230000017569941652890486658_" gradientUnits="userSpaceOnUse" x1="25.8545" y1="13.2884" x2="25.8545" y2="7.708" gradientTransform="matrix(1 0 0 -1 0 34)">
		<stop  offset="0" style="stop-color:#FFFFFF"/>
		<stop  offset="0.7333" style="stop-color:#FFFFFF;stop-opacity:0.1"/>
	</linearGradient>
	<path style="fill:url(#SVGID_00000072971092152253310230000017569941652890486658_);" d="M25.9,26.3c1.5,0,2.8-1.2,2.8-2.8
		c0-1.5-1.2-2.8-2.8-2.8s-2.8,1.2-2.8,2.8C23.1,25,24.3,26.3,25.9,26.3z"/>
	<g>
		
			<linearGradient id="SVGID_00000003797268331964512520000000388331881855177911_" gradientUnits="userSpaceOnUse" x1="9.8416" y1="36.7353" x2="16.3754" y2="14.3288" gradientTransform="matrix(1 0 0 -1 0 34)">
			<stop  offset="0" style="stop-color:#C8F6FF;stop-opacity:0"/>
			<stop  offset="0.3218" style="stop-color:#C8F6FF"/>
		</linearGradient>
		
			<path style="fill:none;stroke:url(#SVGID_00000003797268331964512520000000388331881855177911_);stroke-width:0.75;stroke-linecap:round;" d="
			M4.7,1.3c0.4-0.1,1.5-0.1,2.6,1S17.6,12.7,22,17.2"/>
	</g>
	<path class="st7" d="M16.7,15.1l2.4-2.4l1.6,1.6l-2.4,2.4c-0.4,0.4-1.2,0.4-1.6,0C16.3,16.3,16.3,15.6,16.7,15.1z"/>
	<path class="st7" d="M11.9,10.3l2.4-2.4l1.6,1.6l-2.4,2.4c-0.4,0.4-1.2,0.4-1.6,0C11.4,11.4,11.4,10.7,11.9,10.3z"/>
	<path class="st7" d="M7,5.4L9.5,3l1.6,1.6L8.6,7C8.2,7.5,7.5,7.5,7,7C6.6,6.6,6.6,5.8,7,5.4z"/>
	<g>
		
			<linearGradient id="SVGID_00000135680748253795788940000006804455825494504579_" gradientUnits="userSpaceOnUse" x1="25.998" y1="10.0091" x2="31.1208" y2="10.0102" gradientTransform="matrix(1 0 0 -1 0 34)">
			<stop  offset="0" style="stop-color:#C8F6FF;stop-opacity:0"/>
			<stop  offset="0.9898" style="stop-color:#C8F6FF"/>
		</linearGradient>
		
			<path style="fill:none;stroke:url(#SVGID_00000135680748253795788940000006804455825494504579_);stroke-width:0.75;stroke-linecap:round;" d="
			M24,30.7c3.7,0,6.7-3,6.7-6.7c0-3.7-3-6.7-6.7-6.7"/>
	</g>
</g>
</svg>
