<?xml version="1.0" encoding="utf-8"?>
<!-- Generator: Adobe Illustrator 27.3.1, SVG Export Plug-In . SVG Version: 6.00 Build 0)  -->
<svg version="1.1" id="Layer_1" xmlns="http://www.w3.org/2000/svg" xmlns:xlink="http://www.w3.org/1999/xlink" x="0px" y="0px"
	 viewBox="0 0 512 512" style="enable-background:new 0 0 512 512;" xml:space="preserve">
<style type="text/css">
	.st0{fill:#E5B765;}
	.st1{fill:url(#SVGID_1_);}
	.st2{fill:url(#SVGID_00000075128087906408047940000009528046780070825893_);}
	.st3{fill:url(#SVGID_00000163037194047199215760000014265642901662978437_);}
	.st4{fill:url(#SVGID_00000125564590837694364340000002030042001647766714_);}
	.st5{fill:url(#SVGID_00000037666415947731235160000005824561380782020499_);}
	.st6{fill:url(#SVGID_00000137128646412024998140000016419046459449460397_);}
	.st7{fill:url(#SVGID_00000087385300953303880830000018091712218220551810_);}
	.st8{fill:url(#SVGID_00000126313024159939263550000014073290653691569322_);}
	.st9{fill:url(#SVGID_00000070800663177928599590000002362786191506938815_);}
	.st10{fill:url(#SVGID_00000065782385917423434830000001986928483986460298_);}
	.st11{fill:url(#SVGID_00000046302431715288953850000007107848826258966160_);}
	.st12{fill:url(#SVGID_00000121277841438413660900000016019930153225902780_);}
	.st13{fill:url(#SVGID_00000036229289659291579280000002400935496673227688_);}
	.st14{fill:url(#SVGID_00000087374038747818903720000017845978651264726432_);}
	.st15{fill:url(#SVGID_00000098217657826508370880000011015648331110155174_);}
	.st16{fill:url(#SVGID_00000056412775504175177210000007129627556813134468_);}
	.st17{fill:url(#SVGID_00000039127287695587685580000008066877356366826928_);}
	.st18{fill:url(#SVGID_00000157276522589815124590000006948143433517902483_);}
	.st19{fill:url(#SVGID_00000125572381456997699760000017131611085167662505_);}
	.st20{fill:url(#SVGID_00000106136023903181517360000016148259033391361180_);}
	.st21{fill:url(#SVGID_00000016069913280979990800000011487808031570499768_);}
	.st22{fill:url(#SVGID_00000129928220783000541190000017526936834860862378_);}
	.st23{fill:url(#SVGID_00000069358906022544006530000003613823043345805963_);}
	.st24{fill:url(#SVGID_00000124854752957144334550000009095025415572137110_);}
	.st25{fill:url(#SVGID_00000149351969679680745010000010872894771191335317_);}
	.st26{fill:url(#SVGID_00000012469255777640766690000009923871586446356136_);}
	.st27{fill:url(#SVGID_00000071539288842554691510000007113632279952852136_);}
	.st28{fill:url(#SVGID_00000162320157457689081640000002218290588204358030_);}
	.st29{fill:url(#SVGID_00000073685978515284427830000009396122761866406833_);}
	.st30{fill-rule:evenodd;clip-rule:evenodd;fill:#AA7E32;}
	.st31{fill-rule:evenodd;clip-rule:evenodd;fill:#443452;}
	.st32{fill-rule:evenodd;clip-rule:evenodd;fill:#885F1F;}
	.st33{fill:#E9B15A;}
	.st34{fill-rule:evenodd;clip-rule:evenodd;fill:url(#SVGID_00000039848968218820358290000012378615561609782150_);}
	.st35{fill-rule:evenodd;clip-rule:evenodd;fill:url(#SVGID_00000070830648631792749440000007026664327991309995_);}
	.st36{fill-rule:evenodd;clip-rule:evenodd;fill:url(#SVGID_00000074425268882404907730000010197581003100544395_);}
	.st37{fill-rule:evenodd;clip-rule:evenodd;fill:url(#SVGID_00000124120003490739348770000017349654165602090653_);}
	.st38{fill:url(#SVGID_00000168799521322733347210000010737708792969355177_);}
	.st39{fill:url(#SVGID_00000137123596240918962100000006043489288812601269_);}
	.st40{fill:url(#SVGID_00000069355553543601131780000015853840175694021009_);}
	.st41{fill:url(#SVGID_00000062907402149138685360000009701092316499599781_);}
	.st42{fill:url(#SVGID_00000183955604706324825420000012617541113632078261_);}
	.st43{fill:url(#SVGID_00000057140996623531737340000001448565746345665713_);}
	.st44{fill:url(#SVGID_00000041984765393637005330000017387629085392531647_);}
	.st45{fill:url(#SVGID_00000134210723594209154030000002923245627035254448_);}
	.st46{fill:#FFFFFF;}
	.st47{fill:url(#SVGID_00000040543758009345856570000018117931983302389934_);}
</style>
<g>
	<rect class="st0" width="512" height="512"/>
	<g>
		
			<radialGradient id="SVGID_1_" cx="-212.9052" cy="179.3423" r="18.2866" gradientTransform="matrix(-15.7106 15.197 -16.9968 -17.5713 116.9896 6525.4468)" gradientUnits="userSpaceOnUse">
			<stop  offset="0" style="stop-color:#FFF6A6"/>
			<stop  offset="0.87" style="stop-color:#F6B246"/>
		</radialGradient>
		<circle class="st1" cx="256" cy="256" r="256"/>
		
			<radialGradient id="SVGID_00000040544940575544209590000010478006894201688995_" cx="-236.1181" cy="197.8773" r="18.2866" gradientTransform="matrix(-20.7433 -9.5466 11.3355 -24.6304 -6747.2212 2941.9485)" gradientUnits="userSpaceOnUse">
			<stop  offset="0.6832" style="stop-color:#BA9D76;stop-opacity:0"/>
			<stop  offset="1" style="stop-color:#BA9D76"/>
		</radialGradient>
		<circle style="fill:url(#SVGID_00000040544940575544209590000010478006894201688995_);" cx="256" cy="256" r="256"/>
		
			<radialGradient id="SVGID_00000005238937281215137610000005852296545896607397_" cx="-228.9254" cy="230.2682" r="18.2866" gradientTransform="matrix(8.0144 -11.1967 21.3181 15.2593 -2951.8853 -5603.6763)" gradientUnits="userSpaceOnUse">
			<stop  offset="0" style="stop-color:#CA7044"/>
			<stop  offset="1" style="stop-color:#CA7044;stop-opacity:0"/>
		</radialGradient>
		<circle style="fill:url(#SVGID_00000005238937281215137610000005852296545896607397_);" cx="256" cy="256" r="256"/>
		
			<radialGradient id="SVGID_00000016039775519914505040000011812009303669977757_" cx="-186.547" cy="176.6336" r="18.2866" gradientTransform="matrix(-3 17.375 -17.823 -3.0773 2873.1062 3987.4734)" gradientUnits="userSpaceOnUse">
			<stop  offset="0.8639" style="stop-color:#C07583;stop-opacity:0"/>
			<stop  offset="1" style="stop-color:#C07583"/>
		</radialGradient>
		<circle style="fill:url(#SVGID_00000016039775519914505040000011812009303669977757_);" cx="256" cy="256" r="256"/>
		
			<radialGradient id="SVGID_00000008146299756625977720000008986677348744446601_" cx="-151.6077" cy="132.4766" r="18.2866" gradientTransform="matrix(-1.1875 8.5901 -8.5901 -1.1875 1346.5654 1814.3793)" gradientUnits="userSpaceOnUse">
			<stop  offset="0" style="stop-color:#FFC94E"/>
			<stop  offset="1" style="stop-color:#FFC94E;stop-opacity:0"/>
		</radialGradient>
		<circle style="fill:url(#SVGID_00000008146299756625977720000008986677348744446601_);" cx="256" cy="256" r="256"/>
		
			<radialGradient id="SVGID_00000109020931119781996100000012559659608843191735_" cx="-98.632" cy="220.0931" r="18.2866" gradientTransform="matrix(3.4375 3.625 -3.625 3.4375 1252.3115 -157.4382)" gradientUnits="userSpaceOnUse">
			<stop  offset="0" style="stop-color:#EB7F4D"/>
			<stop  offset="0.9599" style="stop-color:#EB7F4D;stop-opacity:0"/>
		</radialGradient>
		<circle style="fill:url(#SVGID_00000109020931119781996100000012559659608843191735_);" cx="256" cy="256" r="256"/>
		
			<radialGradient id="SVGID_00000140728421332170423220000005339707141192955035_" cx="-152.9371" cy="38.2631" r="18.2866" gradientTransform="matrix(-1.4375 3.8125 -3.8125 -1.4375 311.1875 885.3727)" gradientUnits="userSpaceOnUse">
			<stop  offset="0" style="stop-color:#FFA95E"/>
			<stop  offset="1" style="stop-color:#FFB370;stop-opacity:0"/>
		</radialGradient>
		<circle style="fill:url(#SVGID_00000140728421332170423220000005339707141192955035_);" cx="256" cy="256" r="256"/>
		<g>
			
				<linearGradient id="SVGID_00000147197950264219736890000002654700502104244398_" gradientUnits="userSpaceOnUse" x1="489.3233" y1="677.4458" x2="460.7527" y2="774.0162" gradientTransform="matrix(1 0 0 1 0 -410)">
				<stop  offset="0" style="stop-color:#F2BE70"/>
				<stop  offset="1" style="stop-color:#FFEC98"/>
			</linearGradient>
			<path style="fill:url(#SVGID_00000147197950264219736890000002654700502104244398_);" d="M484.4,365.6
				c-19.5-6.1-32.8-24.6-32.8-45.1c0-26.1,21.5-47.6,47.6-47.6c2.6,0,5.1,0,7.7,0.5l-0.5,3.6c-2.6-0.5-4.6-0.5-7.2-0.5
				c-24.1,0-44,19.5-44,44c0,18.9,12.3,35.8,30.2,41.5L484.4,365.6z"/>
		</g>
		
			<radialGradient id="SVGID_00000041268825272352995530000001529997864560001445_" cx="147.2589" cy="274.9461" r="18.2866" gradientTransform="matrix(2.0027 0.5263 -1.1631 4.4255 470.5209 -989.6406)" gradientUnits="userSpaceOnUse">
			<stop  offset="0" style="stop-color:#FFE486"/>
			<stop  offset="1" style="stop-color:#FFD68B"/>
		</radialGradient>
		<path style="fill:url(#SVGID_00000041268825272352995530000001529997864560001445_);" d="M511,276.5
			c-2.6,31.2-10.8,60.9-23.6,88.1c-20-5.1-34.3-23-34.3-44c0-25.1,20.5-45.6,45.6-45.6C503.3,274.9,507.4,275.5,511,276.5z"/>
		
			<radialGradient id="SVGID_00000000189892693419181510000005169557393728500905_" cx="-459.4338" cy="336.515" r="18.2866" gradientTransform="matrix(-1.1052 -2.6316 2.9809 -1.2519 -1014.3895 -463.2392)" gradientUnits="userSpaceOnUse">
			<stop  offset="0.7953" style="stop-color:#E3B065;stop-opacity:0"/>
			<stop  offset="0.944" style="stop-color:#E3B065"/>
		</radialGradient>
		<path style="fill:url(#SVGID_00000000189892693419181510000005169557393728500905_);" d="M511,276.5
			c-2.6,31.2-10.8,60.9-23.6,88.1c-20-5.1-34.3-23-34.3-44c0-25.1,20.5-45.6,45.6-45.6C503.3,274.9,507.4,275.5,511,276.5z"/>
		
			<radialGradient id="SVGID_00000015345484767649922670000004728885200396649347_" cx="-177.3905" cy="-53.1343" r="18.2866" gradientTransform="matrix(-1.7972 3.2676 -2.8042 -1.5423 36.6128 798.7342)" gradientUnits="userSpaceOnUse">
			<stop  offset="0.8464" style="stop-color:#FFF1A6;stop-opacity:0"/>
			<stop  offset="1" style="stop-color:#FFF1A6"/>
		</radialGradient>
		<path style="fill:url(#SVGID_00000015345484767649922670000004728885200396649347_);" d="M511,276.5
			c-2.6,31.2-10.8,60.9-23.6,88.1c-20-5.1-34.3-23-34.3-44c0-25.1,20.5-45.6,45.6-45.6C503.3,274.9,507.4,275.5,511,276.5z"/>
		<g>
			
				<linearGradient id="SVGID_00000146481236505411015890000005598985144450177420_" gradientUnits="userSpaceOnUse" x1="411.4077" y1="816.4744" x2="309.3856" y2="893.9134" gradientTransform="matrix(1 0 0 1 0 -410)">
				<stop  offset="0" style="stop-color:#DFA055"/>
				<stop  offset="1" style="stop-color:#E1945D"/>
			</linearGradient>
			<path style="fill:url(#SVGID_00000146481236505411015890000005598985144450177420_);" d="M323.6,496.6
				c-3.6-8.7-5.6-17.9-5.6-27.1c0-37.9,30.7-68.6,68.6-68.6c21,0,40.4,9.2,53.8,25.6l-3.1,2C425,413.2,406.5,404,386.6,404
				c-35.8,0-65,29.2-65,65c0,8.7,1.5,17.4,5.1,25.6L323.6,496.6z"/>
		</g>
		
			<radialGradient id="SVGID_00000005976314684147553630000001706722826830796471_" cx="-106.8145" cy="130.6447" r="18.2866" gradientTransform="matrix(-0.5087 5.4048 -8.1134 -0.7637 1386.4106 1079.9198)" gradientUnits="userSpaceOnUse">
			<stop  offset="0" style="stop-color:#FEB862"/>
			<stop  offset="1" style="stop-color:#D78B6C"/>
		</radialGradient>
		<path style="fill:url(#SVGID_00000005976314684147553630000001706722826830796471_);" d="M441.9,432.1
			c-30.7,32.3-70.1,56.8-114.2,69.6c-5.1-9.7-8.2-20.5-8.2-32.3c0-36.9,29.7-66.6,66.6-66.6C409.6,402.9,429.6,414.2,441.9,432.1z"
			/>
		
			<radialGradient id="SVGID_00000092450174091264520540000015460952495894269870_" cx="-36.4127" cy="189.4254" r="18.2866" gradientTransform="matrix(2.1827 4.0423 -10.5738 5.7093 2441.0891 -531.4708)" gradientUnits="userSpaceOnUse">
			<stop  offset="0.727" style="stop-color:#D8A294;stop-opacity:0"/>
			<stop  offset="1" style="stop-color:#D8A294"/>
		</radialGradient>
		<path style="fill:url(#SVGID_00000092450174091264520540000015460952495894269870_);" d="M441.9,432.1
			c-30.7,32.3-70.1,56.8-114.2,69.6c-5.1-9.7-8.2-20.5-8.2-32.3c0-36.9,29.7-66.6,66.6-66.6C409.6,402.9,429.6,414.2,441.9,432.1z"
			/>
		
			<radialGradient id="SVGID_00000050625837873507326450000013992930940676520599_" cx="-261.7629" cy="-4.1507" r="18.2866" gradientTransform="matrix(-4.0378 1.8339 -1.6219 -3.5709 -670.0737 933.2968)" gradientUnits="userSpaceOnUse">
			<stop  offset="0.6622" style="stop-color:#EFA970;stop-opacity:0"/>
			<stop  offset="0.9785" style="stop-color:#EFA970"/>
		</radialGradient>
		<path style="fill:url(#SVGID_00000050625837873507326450000013992930940676520599_);" d="M441.9,432.1
			c-30.7,32.3-70.1,56.8-114.2,69.6c-5.1-9.7-8.2-20.5-8.2-32.3c0-36.9,29.7-66.6,66.6-66.6C409.6,402.9,429.6,414.2,441.9,432.1z"
			/>
		
			<radialGradient id="SVGID_00000119111135984384188180000012649256537967639177_" cx="-284.222" cy="353.1229" r="18.2866" gradientTransform="matrix(1.8857 -4.6599 4.8261 1.9529 -790.8715 -1528.394)" gradientUnits="userSpaceOnUse">
			<stop  offset="0.778" style="stop-color:#C17967;stop-opacity:0"/>
			<stop  offset="0.9508" style="stop-color:#C17967"/>
		</radialGradient>
		<path style="fill:url(#SVGID_00000119111135984384188180000012649256537967639177_);" d="M441.9,432.1
			c-30.7,32.3-70.1,56.8-114.2,69.6c-5.1-9.7-8.2-20.5-8.2-32.3c0-36.9,29.7-66.6,66.6-66.6C409.6,402.9,429.6,414.2,441.9,432.1z"
			/>
		<g>
			
				<linearGradient id="SVGID_00000052826980029893324960000003587755409892287934_" gradientUnits="userSpaceOnUse" x1="234.5856" y1="789.5363" x2="187.2435" y2="845.7078" gradientTransform="matrix(1 0 0 1 0 -410)">
				<stop  offset="0" style="stop-color:#D47C4B"/>
				<stop  offset="1" style="stop-color:#E28050"/>
			</linearGradient>
			<path style="fill:url(#SVGID_00000052826980029893324960000003587755409892287934_);" d="M217.6,449c-10.2,0-21.5-3.6-30.7-10.8
				c-9.7-7.7-16.4-17.9-18.4-29.2c-2.6-11.3,0-22,6.7-30.2c13.3-16.9,40.4-18.4,60.4-2.6l0,0c9.7,7.7,16.4,17.9,18.4,29.2
				c2.6,11.3,0,22-6.7,30.2C240.1,444.4,228.9,449,217.6,449z M204.3,368.6c-10.8,0-20.5,4.1-26.6,12.3c-5.6,7.7-7.7,17.4-5.6,27.1
				c2,10.2,8.2,20,17.4,26.6c18.4,14.3,43,13.3,55.3-2c5.6-7.7,7.7-17.4,5.6-27.1c-2-10.2-8.2-20-17.4-26.6l0,0
				C223.7,372.2,214,368.6,204.3,368.6z"/>
		</g>
		
			<radialGradient id="SVGID_00000047050432815717153600000015873246808750197139_" cx="-78.0834" cy="81.0842" r="18.2866" gradientTransform="matrix(-0.6562 3.7662 -3.9175 -0.6826 482.979 727.5718)" gradientUnits="userSpaceOnUse">
			<stop  offset="0" style="stop-color:#D97C5E"/>
			<stop  offset="1" style="stop-color:#F79965"/>
		</radialGradient>
		<path style="fill:url(#SVGID_00000047050432815717153600000015873246808750197139_);" d="M234,377.3
			c19.5,14.8,24.6,40.4,11.8,56.8c-12.8,16.4-38.9,17.4-57.9,2c-19.5-14.8-24.6-40.4-11.8-56.8C188.9,363.5,214.5,362.5,234,377.3z"
			/>
		
			<radialGradient id="SVGID_00000036934774452739462040000014174780507551549101_" cx="-99.9342" cy="22.8133" r="18.2866" gradientTransform="matrix(-1.2823 3.4921 -2.9854 -1.0962 163.6429 757.1283)" gradientUnits="userSpaceOnUse">
			<stop  offset="0.7424" style="stop-color:#FFA969;stop-opacity:0"/>
			<stop  offset="1" style="stop-color:#FFA969"/>
		</radialGradient>
		<path style="fill:url(#SVGID_00000036934774452739462040000014174780507551549101_);" d="M234,377.3
			c19.5,14.8,24.6,40.4,11.8,56.8c-12.8,16.4-38.9,17.4-57.9,2c-19.5-14.8-24.6-40.4-11.8-56.8C188.9,363.5,214.5,362.5,234,377.3z"
			/>
		
			<radialGradient id="SVGID_00000123443644729382823710000016504932204764461489_" cx="-399.2204" cy="275.1477" r="18.2866" gradientTransform="matrix(-0.8976 -3.3705 3.179 -0.8466 -1028.816 -692.2081)" gradientUnits="userSpaceOnUse">
			<stop  offset="0.6255" style="stop-color:#C16653;stop-opacity:0"/>
			<stop  offset="1" style="stop-color:#C16653"/>
		</radialGradient>
		<path style="fill:url(#SVGID_00000123443644729382823710000016504932204764461489_);" d="M234,377.3
			c19.5,14.8,24.6,40.4,11.8,56.8c-12.8,16.4-38.9,17.4-57.9,2c-19.5-14.8-24.6-40.4-11.8-56.8C188.9,363.5,214.5,362.5,234,377.3z"
			/>
		
			<radialGradient id="SVGID_00000025431888320337396320000014280188846382363020_" cx="-464.0207" cy="45.0173" r="18.2866" gradientTransform="matrix(-2.2832 -0.9135 0.9502 -2.3749 -849.7065 125.0206)" gradientUnits="userSpaceOnUse">
			<stop  offset="0" style="stop-color:#CE8050"/>
			<stop  offset="1" style="stop-color:#CE8050;stop-opacity:0"/>
		</radialGradient>
		<path style="fill:url(#SVGID_00000025431888320337396320000014280188846382363020_);" d="M234,377.3
			c19.5,14.8,24.6,40.4,11.8,56.8c-12.8,16.4-38.9,17.4-57.9,2c-19.5-14.8-24.6-40.4-11.8-56.8C188.9,363.5,214.5,362.5,234,377.3z"
			/>
		<g>
			
				<linearGradient id="SVGID_00000169527085248672330350000006488811495662048688_" gradientUnits="userSpaceOnUse" x1="47.108" y1="648.1645" x2="47.108" y2="780.7448" gradientTransform="matrix(1 0 0 1 0 -410)">
				<stop  offset="0" style="stop-color:#A2723B"/>
				<stop  offset="1" style="stop-color:#AC6E43"/>
			</linearGradient>
			<path style="fill:url(#SVGID_00000169527085248672330350000006488811495662048688_);" d="M32.8,372.7l-0.5-3.6
				c31.2-5.1,53.8-32.3,53.8-64c0-35.8-29.2-65-65-65c-5.1,0-9.7,0.5-14.8,1.5l-1-3.6c5.1-1,10.2-1.5,15.4-1.5
				c37.9,0,68.6,30.7,68.6,68.6C89.6,338.4,65.5,367.1,32.8,372.7z"/>
		</g>
		
			<radialGradient id="SVGID_00000136371980458886444480000015940911898029853315_" cx="-143.3754" cy="217.7596" r="18.2866" gradientTransform="matrix(4.0761 6.6944 -4.4057 2.6825 1536.7164 624.6567)" gradientUnits="userSpaceOnUse">
			<stop  offset="0" style="stop-color:#A98861"/>
			<stop  offset="1" style="stop-color:#B1724D"/>
		</radialGradient>
		<path style="fill:url(#SVGID_00000136371980458886444480000015940911898029853315_);" d="M0.5,241.2c6.7-2,13.3-3.1,20.5-3.1
			c36.9,0,66.6,29.7,66.6,66.6c0,34.8-26.6,63-60.4,66.6C9.7,336.9,0,297.5,0,256C0,250.9,0,246.3,0.5,241.2z"/>
		
			<radialGradient id="SVGID_00000076571960750125163590000016548607615253670541_" cx="-267.2272" cy="303.5147" r="18.2866" gradientTransform="matrix(2.589 -4.2691 3.9074 2.3696 -477.8798 -1543.7535)" gradientUnits="userSpaceOnUse">
			<stop  offset="0.6957" style="stop-color:#9C6544;stop-opacity:0"/>
			<stop  offset="1" style="stop-color:#9C6544"/>
		</radialGradient>
		<path style="fill:url(#SVGID_00000076571960750125163590000016548607615253670541_);" d="M0.5,241.2c6.7-2,13.3-3.1,20.5-3.1
			c36.9,0,66.6,29.7,66.6,66.6c0,34.8-26.6,63-60.4,66.6C9.7,336.9,0,297.5,0,256C0,250.9,0,246.3,0.5,241.2z"/>
		
			<radialGradient id="SVGID_00000160889243168992013880000013707990998367952268_" cx="-111.5727" cy="132.6417" r="18.2871" gradientTransform="matrix(3.086986e-16 5.0414 -3.3178 2.031585e-16 483.8547 841.6951)" gradientUnits="userSpaceOnUse">
			<stop  offset="0.8213" style="stop-color:#AF7D6F;stop-opacity:0"/>
			<stop  offset="1" style="stop-color:#AF7D6F"/>
		</radialGradient>
		<path style="fill:url(#SVGID_00000160889243168992013880000013707990998367952268_);" d="M0.5,241.2c6.7-2,13.3-3.1,20.5-3.1
			c36.9,0,66.6,29.7,66.6,66.6c0,34.8-26.6,63-60.4,66.6C9.7,336.9,0,297.5,0,256C0,250.9,0,246.3,0.5,241.2z"/>
		<g>
			
				<linearGradient id="SVGID_00000150096735534460482590000017952476486524634276_" gradientUnits="userSpaceOnUse" x1="233.4111" y1="474.512" x2="292.3904" y2="474.512" gradientTransform="matrix(1 0 0 1 0 -410)">
				<stop  offset="0" style="stop-color:#FFE27E"/>
				<stop  offset="1" style="stop-color:#F1B966"/>
			</linearGradient>
			<path style="fill:url(#SVGID_00000150096735534460482590000017952476486524634276_);" d="M246.8,113.2
				c-26.6,0-48.6-21.5-48.6-48.6s21.5-48.6,48.6-48.6c27.1,0,48.6,21.5,48.6,48.6S273.4,113.2,246.8,113.2z M246.8,21.5
				c-23.6,0-43,19.5-43,43s19.5,43,43,43s43-19.5,43-43S270.3,21.5,246.8,21.5z"/>
		</g>
		
			<linearGradient id="SVGID_00000181078015347236638190000016476666174974408600_" gradientUnits="userSpaceOnUse" x1="297.1515" y1="474.512" x2="201.0665" y2="474.512" gradientTransform="matrix(1 0 0 1 0 -410)">
			<stop  offset="0" style="stop-color:#FFC770"/>
			<stop  offset="1" style="stop-color:#FFDF81"/>
		</linearGradient>
		<path style="fill:url(#SVGID_00000181078015347236638190000016476666174974408600_);" d="M246.8,110.1c25.1,0,45.6-20.5,45.6-45.6
			s-20.5-45.6-45.6-45.6s-45.6,20.5-45.6,45.6C201.2,89.6,221.7,110.1,246.8,110.1z"/>
		
			<radialGradient id="SVGID_00000049194070220332402860000011096786596105632183_" cx="-74.6013" cy="272.6211" r="18.2935" gradientTransform="matrix(3.2812 0 0 3.9476 480.25 -1011.6869)" gradientUnits="userSpaceOnUse">
			<stop  offset="0.6" style="stop-color:#C59853;stop-opacity:0"/>
			<stop  offset="1" style="stop-color:#C59853"/>
		</radialGradient>
		<path style="fill:url(#SVGID_00000049194070220332402860000011096786596105632183_);" d="M246.8,110.1c25.1,0,45.6-20.5,45.6-45.6
			s-20.5-45.6-45.6-45.6s-45.6,20.5-45.6,45.6C201.2,89.6,221.7,110.1,246.8,110.1z"/>
		
			<radialGradient id="SVGID_00000121273854316544857850000015926840291468884656_" cx="-299.8049" cy="136.5051" r="18.2785" gradientTransform="matrix(-4.9938 0 0 -3.7844 -1204.7397 581.1019)" gradientUnits="userSpaceOnUse">
			<stop  offset="0.899" style="stop-color:#FFF4A4;stop-opacity:0"/>
			<stop  offset="1" style="stop-color:#FFF4A4"/>
		</radialGradient>
		<path style="fill:url(#SVGID_00000121273854316544857850000015926840291468884656_);" d="M246.8,110.1c25.1,0,45.6-20.5,45.6-45.6
			s-20.5-45.6-45.6-45.6s-45.6,20.5-45.6,45.6C201.2,89.6,221.7,110.1,246.8,110.1z"/>
		<g>
			<path class="st30" d="M154.1,116.7c-25.1,0-45.6,20.5-45.6,45.6c0,5.1-4.1,9.2-9.2,9.2c-5.1,0-9.2-4.1-9.2-9.2
				c0-35.3,28.7-63.5,63.5-63.5c5.1,0,9.2,4.1,9.2,9.2C163.3,112.6,159.2,116.7,154.1,116.7z"/>
		</g>
		<g>
			<path class="st31" d="M158.7,111.1c-25.1,0-45.6,20.5-45.6,45.6c0,5.1-4.1,9.2-9.2,9.2c-5.1,0-9.2-4.1-9.2-9.2
				c0-35.3,28.7-63.5,63.5-63.5c5.1,0,9.2,4.1,9.2,9.2C167.9,107,163.8,111.1,158.7,111.1z"/>
		</g>
		<g>
			<path class="st32" d="M344.1,106c0-3.6,3.1-6.7,6.7-6.7c25.1,0,50.2,27.6,50.2,53.2c0,3.6-3.1,6.7-6.7,6.7
				c-3.6,0-6.7-3.1-6.7-6.7c0-17.9-18.9-39.9-37.4-39.9C347.1,112.6,344.1,109.6,344.1,106z"/>
			<path class="st33" d="M394.8,166.9c-7.7,0-13.8-6.1-13.8-13.8c0-6.7-3.6-15.4-9.7-22c-6.1-6.7-13.8-10.8-20-10.8
				c-7.7,0-13.8-6.1-13.8-13.8s5.6-14.3,13.3-14.3c13.8,0,28.7,7.2,39.9,19.5s17.4,27.1,17.4,41
				C408.6,160.3,402.4,166.9,394.8,166.9z M350.7,99.3c-3.6,0-6.7,3.1-6.7,6.7s3.1,6.7,6.7,6.7c8.7,0,17.9,4.6,25.6,13.3
				c7.2,8.2,11.8,17.9,11.8,26.6c0,3.6,3.1,6.7,6.7,6.7c3.6,0,6.7-3.1,6.7-6.7c0-12.3-5.6-25.6-15.9-36.4
				C375.3,106,362.5,99.3,350.7,99.3z"/>
		</g>
		<g>
			<path class="st31" d="M339.5,101.9c0-5.1,4.1-9.2,9.2-9.2c34.8,0,63.5,28.2,63.5,63.5c0,5.1-4.1,9.2-9.2,9.2s-9.2-4.1-9.2-9.2
				c0-25.1-20.5-45.6-45.6-45.6C343.6,111.1,339.5,107,339.5,101.9z"/>
		</g>
		<g>
			
				<linearGradient id="SVGID_00000129188448554490785410000014533585997010647449_" gradientUnits="userSpaceOnUse" x1="373.6719" y1="584.9837" x2="313.0557" y2="595.4219" gradientTransform="matrix(1 0 0 1 0 -410)">
				<stop  offset="0" style="stop-color:#C06E3F"/>
				<stop  offset="1" style="stop-color:#9B672E"/>
			</linearGradient>
			<path style="fill-rule:evenodd;clip-rule:evenodd;fill:url(#SVGID_00000129188448554490785410000014533585997010647449_);" d="
				M328.7,180.2c-10.8,0-20,6.7-23.6,15.9c-2.6,7.2-10.8,10.8-17.9,7.7c-7.2-2.6-10.8-10.8-7.7-17.9c7.7-19.5,26.6-33.3,49.2-33.3
				c23,0,43,15.4,50.2,36.4c2.6,7.2-1.5,14.8-8.7,17.4c-7.2,2.6-14.8-1.5-17.4-8.7C349.2,187.4,339.5,180.2,328.7,180.2z"/>
		</g>
		
			<radialGradient id="SVGID_00000085960295476796700550000000202319518680941750_" cx="-495.7812" cy="396.875" r="18.2866" gradientTransform="matrix(7.868294e-17 -1.285 2.6908 1.647634e-16 -738.2812 -454.1603)" gradientUnits="userSpaceOnUse">
			<stop  offset="0" style="stop-color:#3E294C"/>
			<stop  offset="1" style="stop-color:#483C4E"/>
		</radialGradient>
		<path style="fill-rule:evenodd;clip-rule:evenodd;fill:url(#SVGID_00000085960295476796700550000000202319518680941750_);" d="
			M332.8,174.6c-10.8,0-20,6.7-23.6,15.9c-2.6,7.2-10.8,10.8-17.9,7.7c-7.2-2.6-10.8-10.8-7.7-17.9c7.7-19.5,26.6-33.3,49.2-33.3
			c23,0,43,15.4,50.2,36.4c2.6,7.2-1.5,14.8-8.7,17.4s-14.8-1.5-17.4-8.7C353.8,181.8,344.1,174.6,332.8,174.6z"/>
		<g>
			
				<linearGradient id="SVGID_00000057868524187781725640000015791600258105138322_" gradientUnits="userSpaceOnUse" x1="165.6094" y1="661.5293" x2="260.4251" y2="704.0002" gradientTransform="matrix(1 0 0 1 0 -410)">
				<stop  offset="0" style="stop-color:#B2673E"/>
				<stop  offset="1" style="stop-color:#BA6E47"/>
			</linearGradient>
			<path style="fill-rule:evenodd;clip-rule:evenodd;fill:url(#SVGID_00000057868524187781725640000015791600258105138322_);" d="
				M153.6,272.9c5.1-5.1,13.8-5.1,19.5,0c39.4,39.4,103.4,39.4,142.8,0c5.1-5.1,13.8-5.1,19.5,0c5.6,5.1,5.1,13.8,0,19.5
				c-50.2,50.2-131.6,50.2-181.8,0C148.5,286.7,148.5,278,153.6,272.9z"/>
		</g>
		
			<linearGradient id="SVGID_00000038384192535245635270000001393311983944203441_" gradientUnits="userSpaceOnUse" x1="253.7932" y1="699.193" x2="253.7932" y2="734.0694" gradientTransform="matrix(1 0 0 1 0 -410)">
			<stop  offset="0" style="stop-color:#4A393E"/>
			<stop  offset="1" style="stop-color:#391E47"/>
		</linearGradient>
		<path style="fill-rule:evenodd;clip-rule:evenodd;fill:url(#SVGID_00000038384192535245635270000001393311983944203441_);" d="
			M162.8,267.3c5.1-5.1,13.8-5.1,19.5,0c39.4,39.4,103.4,39.4,142.8,0c5.1-5.1,13.8-5.1,19.5,0c5.6,5.1,5.1,13.8,0,19.5
			c-50.2,50.2-131.6,50.2-181.8,0C157.7,281.1,157.7,272.4,162.8,267.3z"/>
		<g>
			
				<linearGradient id="SVGID_00000132766554701022516270000015600945099205853851_" gradientUnits="userSpaceOnUse" x1="369.3833" y1="610.6537" x2="321.9342" y2="583.1671" gradientTransform="matrix(1 0 0 1 0 -410)">
				<stop  offset="0.1849" style="stop-color:#564A62"/>
				<stop  offset="1" style="stop-color:#564A62;stop-opacity:0"/>
			</linearGradient>
			<path style="fill:url(#SVGID_00000132766554701022516270000015600945099205853851_);" d="M372.2,192c-2.6,0-4.6-2-4.6-4.6
				c0-8.7-11.3-24.6-37.9-24.6c-17.9,0-27.6,15.4-30.7,24.1c-1,2.6-3.6,3.6-5.6,3.1c-2.6-1-3.6-3.6-3.1-5.6
				c3.6-10.2,16.4-30.2,39.4-30.2c32.3,0,47.1,20,47.1,33.3C376.8,190,374.8,192,372.2,192z"/>
			
				<linearGradient id="SVGID_00000091733823577306329070000008503332378194211720_" gradientUnits="userSpaceOnUse" x1="307.4494" y1="619.082" x2="352.4389" y2="574.9266" gradientTransform="matrix(1 0 0 1 0 -410)">
				<stop  offset="0" style="stop-color:#5F4C6F"/>
				<stop  offset="1" style="stop-color:#5F4C6F;stop-opacity:0"/>
			</linearGradient>
			<path style="fill:url(#SVGID_00000091733823577306329070000008503332378194211720_);" d="M372.2,192c-2.6,0-4.6-2-4.6-4.6
				c0-8.7-11.3-24.6-37.9-24.6c-17.9,0-27.6,15.4-30.7,24.1c-1,2.6-3.6,3.6-5.6,3.1c-2.6-1-3.6-3.6-3.1-5.6
				c3.6-10.2,16.4-30.2,39.4-30.2c32.3,0,47.1,20,47.1,33.3C376.8,190,374.8,192,372.2,192z"/>
		</g>
		<g>
			
				<linearGradient id="SVGID_00000037665217299827015780000001342088667679234749_" gradientUnits="userSpaceOnUse" x1="204.7407" y1="687.2783" x2="285.9362" y2="703.2885" gradientTransform="matrix(1 0 0 1 0 -410)">
				<stop  offset="0" style="stop-color:#463E4C"/>
				<stop  offset="1" style="stop-color:#4F425A"/>
			</linearGradient>
			<path style="fill:url(#SVGID_00000037665217299827015780000001342088667679234749_);" d="M254.5,313.3
				c-48.1,0-74.8-23.6-81.9-31.2c-1.5-2-1.5-4.6,0-6.7c2-1.5,4.6-1.5,6.7,0c6.7,6.7,30.7,28.2,75.3,28.2c41.5,0,71.2-20.5,76.3-27.6
				c1.5-2,4.6-2.6,6.7-1c2,1.5,2.6,4.6,1,6.7C330.2,292.9,297,313.3,254.5,313.3z"/>
		</g>
		<g>
			
				<linearGradient id="SVGID_00000119829279688095394610000007516035258492566417_" gradientUnits="userSpaceOnUse" x1="352.942" y1="519.3396" x2="398.32" y2="546.6912" gradientTransform="matrix(1 0 0 1 0 -410)">
				<stop  offset="0" style="stop-color:#594C63"/>
				<stop  offset="1" style="stop-color:#594C63;stop-opacity:0"/>
			</linearGradient>
			<path style="fill:url(#SVGID_00000119829279688095394610000007516035258492566417_);" d="M404.5,158.7c-1,0-2-1-2-2
				c-1.5-38.9-27.6-52.7-51.7-52.7c-1,0-2-1-2-2s1-2,2-2c26.1,0,54.3,14.8,56.3,57.3C406.5,157.2,405.5,158.2,404.5,158.7
				L404.5,158.7z"/>
			
				<linearGradient id="SVGID_00000110443804794768866500000005990818104376559275_" gradientUnits="userSpaceOnUse" x1="379.3062" y1="567.3386" x2="377.441" y2="531.5969" gradientTransform="matrix(1 0 0 1 0 -410)">
				<stop  offset="0" style="stop-color:#594C63"/>
				<stop  offset="1" style="stop-color:#594C63;stop-opacity:0"/>
			</linearGradient>
			<path style="fill:url(#SVGID_00000110443804794768866500000005990818104376559275_);" d="M404.5,158.7c-1,0-2-1-2-2
				c-1.5-38.9-27.6-52.7-51.7-52.7c-1,0-2-1-2-2s1-2,2-2c26.1,0,54.3,14.8,56.3,57.3C406.5,157.2,405.5,158.2,404.5,158.7
				L404.5,158.7z"/>
		</g>
		<g>
			
				<linearGradient id="SVGID_00000038407951503682373400000013879913363464906387_" gradientUnits="userSpaceOnUse" x1="167.3172" y1="521.0046" x2="129.0893" y2="537.3215" gradientTransform="matrix(1 0 0 1 0 -410)">
				<stop  offset="0" style="stop-color:#594C63"/>
				<stop  offset="1" style="stop-color:#594C63;stop-opacity:0"/>
			</linearGradient>
			<path style="fill:url(#SVGID_00000038407951503682373400000013879913363464906387_);" d="M105,158.7L105,158.7
				c-1.5,0-2.6-1-2-2.6c2-42.5,30.2-57.3,56.3-57.3c1,0,2,1,2,2s-1,2-2,2c-23.6,0-49.7,13.8-51.7,52.7
				C107,157.7,106,158.7,105,158.7z"/>
			
				<linearGradient id="SVGID_00000062875558420367059340000011954667518615595699_" gradientUnits="userSpaceOnUse" x1="114.3921" y1="569.2307" x2="135.017" y2="525.4091" gradientTransform="matrix(1 0 0 1 0 -410)">
				<stop  offset="0" style="stop-color:#594C63"/>
				<stop  offset="1" style="stop-color:#594C63;stop-opacity:0"/>
			</linearGradient>
			<path style="fill:url(#SVGID_00000062875558420367059340000011954667518615595699_);" d="M105,158.7L105,158.7
				c-1.5,0-2.6-1-2-2.6c2-42.5,30.2-57.3,56.3-57.3c1,0,2,1,2,2s-1,2-2,2c-23.6,0-49.7,13.8-51.7,52.7
				C107,157.7,106,158.7,105,158.7z"/>
		</g>
		<g>
			
				<linearGradient id="SVGID_00000013887184171742186610000007395319925805031308_" gradientUnits="userSpaceOnUse" x1="125.5414" y1="339.152" x2="219.9854" y2="339.152" gradientTransform="matrix(1 0 0 -1 0 514)">
				<stop  offset="0" style="stop-color:#C06E3F"/>
				<stop  offset="1" style="stop-color:#9B672E"/>
			</linearGradient>
			<path style="fill:url(#SVGID_00000013887184171742186610000007395319925805031308_);" d="M208.9,213.5
				c6.7-8.2,10.8-18.9,10.8-30.2c0-26.1-21-47.1-47.1-47.1s-47.1,21-47.1,47.1c0,11.3,4.1,22,10.8,30.2c8.7-4.1,21.5-9.2,36.4-9.2
				S200.2,208.9,208.9,213.5z"/>
			<path class="st46" d="M218.6,205.8c6.7-8.2,10.8-18.9,10.8-30.2c0-26.1-21-47.1-47.1-47.1s-47.1,21-47.1,47.1
				c0,11.3,4.1,22,10.8,30.2c8.7-4.1,21.5-9.2,36.4-9.2S209.9,201.7,218.6,205.8z"/>
			
				<linearGradient id="SVGID_00000080905440498743850370000000289807645647930756_" gradientUnits="userSpaceOnUse" x1="202.5895" y1="555.6448" x2="182.6522" y2="601.9137" gradientTransform="matrix(1 0 0 1 0 -410)">
				<stop  offset="0" style="stop-color:#553B3E"/>
				<stop  offset="1" style="stop-color:#3D2432"/>
			</linearGradient>
			<path style="fill:url(#SVGID_00000080905440498743850370000000289807645647930756_);" d="M210.4,202.2c5.1-5.6,8.2-13.3,8.2-21.5
				c0-17.4-14.3-31.2-31.2-31.2c-17.4,0-31.2,14.3-31.2,31.2c0,7.2,2,13.3,6.1,18.4c6.1-1.5,12.8-3.1,20-3.1
				C193,196.6,202.8,199.2,210.4,202.2z"/>
		</g>
	</g>
</g>
</svg>
