<?xml version="1.0" encoding="utf-8"?>
<!-- Generator: Adobe Illustrator 27.3.1, SVG Export Plug-In . SVG Version: 6.00 Build 0)  -->
<svg version="1.1" id="Layer_1" xmlns="http://www.w3.org/2000/svg" xmlns:xlink="http://www.w3.org/1999/xlink" x="0px" y="0px"
	 viewBox="0 0 512 512" style="enable-background:new 0 0 512 512;" xml:space="preserve">
<style type="text/css">
	.st0{fill:url(#SVGID_1_);}
	.st1{fill:url(#SVGID_00000057838597708766303690000011072647706806952592_);}
	.st2{fill:url(#SVGID_00000068649336877137713340000016986246735687717023_);}
	.st3{fill:url(#SVGID_00000167379391544469832760000011668233726158932647_);}
	.st4{fill:url(#SVGID_00000036964332276182976660000010497168411448750777_);}
	.st5{fill:url(#SVGID_00000103961166533034772940000001741381641387810218_);}
	.st6{fill:url(#SVGID_00000029047048359839210550000015960248180487241649_);}
	.st7{fill:url(#SVGID_00000093149637326151259940000005546452097517934224_);}
	.st8{fill:url(#SVGID_00000138574916636555454710000004422311903287045263_);}
	.st9{fill:url(#SVGID_00000098916890594394010820000015681216078927259572_);}
	.st10{fill:url(#SVGID_00000119090386526905388600000008243540520915804331_);}
	.st11{opacity:0.44;}
	.st12{fill:url(#SVGID_00000084525986072501213120000006797078461085415598_);}
	.st13{fill:url(#SVGID_00000002344317611916138030000000417226040037832080_);}
	.st14{fill-rule:evenodd;clip-rule:evenodd;fill:#D6961E;}
	.st15{fill-rule:evenodd;clip-rule:evenodd;fill:url(#SVGID_00000139995637687146442730000007692776222755688874_);}
	.st16{fill-rule:evenodd;clip-rule:evenodd;fill:url(#SVGID_00000179644030972296812540000017389930470057998769_);}
	.st17{fill-rule:evenodd;clip-rule:evenodd;fill:#43304A;}
	.st18{fill-rule:evenodd;clip-rule:evenodd;fill:url(#SVGID_00000083046463088538610500000015469865944465409700_);}
	.st19{fill-rule:evenodd;clip-rule:evenodd;fill:#C28D03;}
	.st20{fill-rule:evenodd;clip-rule:evenodd;fill:#C68D0F;}
	.st21{fill-rule:evenodd;clip-rule:evenodd;fill:url(#SVGID_00000098939288578647458170000002363380009140546735_);}
	.st22{fill-rule:evenodd;clip-rule:evenodd;fill:#422E51;}
	.st23{fill:none;stroke:url(#SVGID_00000018225656106396358800000014889837156970987429_);stroke-width:0.6;stroke-linecap:round;}
	.st24{fill:none;stroke:url(#SVGID_00000163765464436073774220000008926187472734030770_);stroke-width:0.6;stroke-linecap:round;}
	.st25{fill:none;stroke:url(#SVGID_00000018234087367784917970000008178214836547553669_);stroke-width:0.4;stroke-linecap:round;}
	.st26{fill:none;stroke:url(#SVGID_00000089531599725060597550000009214287620859425929_);stroke-width:0.4;stroke-linecap:round;}
	.st27{fill:none;stroke:url(#SVGID_00000134945757459925905260000013984017818436929699_);stroke-width:0.4;stroke-linecap:round;}
	.st28{fill:none;stroke:url(#SVGID_00000039105522855371470080000000458049394787592121_);stroke-width:0.5;stroke-linecap:round;}
	.st29{opacity:0.5;}
	.st30{fill:none;stroke:url(#SVGID_00000018925098575929554080000003596549048921107886_);stroke-width:0.5;stroke-linecap:round;}
	.st31{fill:url(#SVGID_00000182530405589388818690000014870774724624216974_);}
	.st32{fill:url(#SVGID_00000008118014863580623710000013425386198585991339_);fill-opacity:0.75;}
	.st33{fill:url(#SVGID_00000013909948725668766750000001740274322817541818_);fill-opacity:0.75;}
	.st34{fill:url(#SVGID_00000059283007423751543320000005455921339170976662_);}
	.st35{fill:url(#SVGID_00000057848818248606151670000011307869906355416972_);}
	.st36{fill:url(#SVGID_00000154412042966337397660000000137745963681808311_);}
	.st37{fill:url(#SVGID_00000115497725009964403560000009393575179669135037_);}
	.st38{fill:url(#SVGID_00000131365326322254522400000015558897703170074768_);}
	.st39{fill:url(#SVGID_00000030477667827762619930000013598681698533598383_);}
	.st40{fill:url(#SVGID_00000168827608469763993990000008088050706763749800_);}
	.st41{fill:url(#SVGID_00000057135034147379158140000010586458862458523780_);}
	.st42{fill:url(#SVGID_00000178921211348502253170000017364298076531097254_);}
	.st43{fill:url(#SVGID_00000079483746973969933370000009789402509703850425_);}
	.st44{fill:url(#SVGID_00000065761608325267316920000005505581306692919949_);}
	.st45{opacity:0.25;}
	.st46{fill:none;stroke:#FFFFFF;stroke-width:0.5;stroke-linecap:round;}
</style>
<g>
	<g>
		
			<linearGradient id="SVGID_1_" gradientUnits="userSpaceOnUse" x1="390.3018" y1="418.4581" x2="123.0613" y2="77.4968" gradientTransform="matrix(1 0 0 -1 0 514)">
			<stop  offset="0" style="stop-color:#FC8B23"/>
			<stop  offset="1" style="stop-color:#E67639"/>
		</linearGradient>
		<path class="st0" d="M212.8,42.6c26.7-30,62.9-25.2,86.1,0L313,58.9c4.9,5.3,12,8.1,19.2,7.5l25.1-7.5
			c34.3-7.3,65.4,18.2,65.4,57.9v15c0.7,8.2,7.9,13.7,15.2,17.3l22.7,9.5c32.9,16,41.1,54.1,17.1,86.1l-6.8,9
			c-6.1,8.2-4.8,19.1,1.2,27.3l6.8,9.5c24.8,30.5,10.8,72.3-24.2,86.9l-19.6,8.2c-7.4,3.1-10.3,8.4-11.6,16.2l-1.4,25.6
			c-4.8,35.1-35.9,50.9-60.9,47.4l-29.8-8c-7.2-1-16.1,1.4-20.8,8.8l-10.7,14.7c-26.7,30.1-62.6,25.1-80.8,7.5l-19.8-24
			c-5.2-5-11.7-9.3-19.6-6.4l-30,8.2c-24.8,3.5-53.9-15.5-58.6-40.1l-3.5-35.5c-1.4-7.4-6.3-13.7-13.1-16.8l-21-7.2
			c-31.6-14.7-42.2-50.4-24.1-80.2l11.9-16.4c4.8-7.8,4.5-17.7-0.6-25.3l-8.8-12.5c-25-35.6-7.7-75.5,29.4-87.4l8.2-2.6
			c9-2.9,17.7-10.4,18.5-19.9l1.8-23c3-37.3,36.9-58.6,72.7-47.8l11.6,3.5c11.2,4.4,19.9,0.6,26-6L212.8,42.6z"/>
		
			<radialGradient id="SVGID_00000132774024323065680950000015281649296111146916_" cx="-840.0266" cy="1066.6147" r="17.4098" gradientTransform="matrix(-2.8149 2.5208 2.2241 2.4836 -4435.8853 -487.1025)" gradientUnits="userSpaceOnUse">
			<stop  offset="0.3002" style="stop-color:#FFA13A"/>
			<stop  offset="1" style="stop-color:#FFA13A;stop-opacity:0"/>
		</radialGradient>
		<path style="fill:url(#SVGID_00000132774024323065680950000015281649296111146916_);" d="M212.8,42.6c26.7-30,62.9-25.2,86.1,0
			L313,58.9c4.9,5.3,12,8.1,19.2,7.5l25.1-7.5c34.3-7.3,65.4,18.2,65.4,57.9v15c0.7,8.2,7.9,13.7,15.2,17.3l22.7,9.5
			c32.9,16,41.1,54.1,17.1,86.1l-6.8,9c-6.1,8.2-4.8,19.1,1.2,27.3l6.8,9.5c24.8,30.5,10.8,72.3-24.2,86.9l-19.6,8.2
			c-7.4,3.1-10.3,8.4-11.6,16.2l-1.4,25.6c-4.8,35.1-35.9,50.9-60.9,47.4l-29.8-8c-7.2-1-16.1,1.4-20.8,8.8l-10.7,14.7
			c-26.7,30.1-62.6,25.1-80.8,7.5l-19.8-24c-5.2-5-11.7-9.3-19.6-6.4l-30,8.2c-24.8,3.5-53.9-15.5-58.6-40.1l-3.5-35.5
			c-1.4-7.4-6.3-13.7-13.1-16.8l-21-7.2c-31.6-14.7-42.2-50.4-24.1-80.2l11.9-16.4c4.8-7.8,4.5-17.7-0.6-25.3l-8.8-12.5
			c-25-35.6-7.7-75.5,29.4-87.4l8.2-2.6c9-2.9,17.7-10.4,18.5-19.9l1.8-23c3-37.3,36.9-58.6,72.7-47.8l11.6,3.5
			c11.2,4.4,19.9,0.6,26-6L212.8,42.6z"/>
		
			<radialGradient id="SVGID_00000096738299360875908770000002699190630351888280_" cx="-604.2366" cy="919.2541" r="17.4098" gradientTransform="matrix(2.2687 5.5623 4.9076 -2.0017 -3010.6829 5224.6675)" gradientUnits="userSpaceOnUse">
			<stop  offset="0.3002" style="stop-color:#FF942A"/>
			<stop  offset="1" style="stop-color:#FF942A;stop-opacity:0"/>
		</radialGradient>
		<path style="fill:url(#SVGID_00000096738299360875908770000002699190630351888280_);" d="M212.8,42.6c26.7-30,62.9-25.2,86.1,0
			L313,58.9c4.9,5.3,12,8.1,19.2,7.5l25.1-7.5c34.3-7.3,65.4,18.2,65.4,57.9v15c0.7,8.2,7.9,13.7,15.2,17.3l22.7,9.5
			c32.9,16,41.1,54.1,17.1,86.1l-6.8,9c-6.1,8.2-4.8,19.1,1.2,27.3l6.8,9.5c24.8,30.5,10.8,72.3-24.2,86.9l-19.6,8.2
			c-7.4,3.1-10.3,8.4-11.6,16.2l-1.4,25.6c-4.8,35.1-35.9,50.9-60.9,47.4l-29.8-8c-7.2-1-16.1,1.4-20.8,8.8l-10.7,14.7
			c-26.7,30.1-62.6,25.1-80.8,7.5l-19.8-24c-5.2-5-11.7-9.3-19.6-6.4l-30,8.2c-24.8,3.5-53.9-15.5-58.6-40.1l-3.5-35.5
			c-1.4-7.4-6.3-13.7-13.1-16.8l-21-7.2c-31.6-14.7-42.2-50.4-24.1-80.2l11.9-16.4c4.8-7.8,4.5-17.7-0.6-25.3l-8.8-12.5
			c-25-35.6-7.7-75.5,29.4-87.4l8.2-2.6c9-2.9,17.7-10.4,18.5-19.9l1.8-23c3-37.3,36.9-58.6,72.7-47.8l11.6,3.5
			c11.2,4.4,19.9,0.6,26-6L212.8,42.6z"/>
		
			<radialGradient id="SVGID_00000140736592050200495100000006589497424877577895_" cx="-1185.1343" cy="825.9904" r="17.4098" gradientTransform="matrix(-2.3107 -0.6302 -0.8726 3.1995 -1607.0718 -3268.4094)" gradientUnits="userSpaceOnUse">
			<stop  offset="0.3002" style="stop-color:#FFA13D"/>
			<stop  offset="1" style="stop-color:#FFA13D;stop-opacity:0"/>
		</radialGradient>
		<path style="fill:url(#SVGID_00000140736592050200495100000006589497424877577895_);" d="M212.8,42.6c26.7-30,62.9-25.2,86.1,0
			L313,58.9c4.9,5.3,12,8.1,19.2,7.5l25.1-7.5c34.3-7.3,65.4,18.2,65.4,57.9v15c0.7,8.2,7.9,13.7,15.2,17.3l22.7,9.5
			c32.9,16,41.1,54.1,17.1,86.1l-6.8,9c-6.1,8.2-4.8,19.1,1.2,27.3l6.8,9.5c24.8,30.5,10.8,72.3-24.2,86.9l-19.6,8.2
			c-7.4,3.1-10.3,8.4-11.6,16.2l-1.4,25.6c-4.8,35.1-35.9,50.9-60.9,47.4l-29.8-8c-7.2-1-16.1,1.4-20.8,8.8l-10.7,14.7
			c-26.7,30.1-62.6,25.1-80.8,7.5l-19.8-24c-5.2-5-11.7-9.3-19.6-6.4l-30,8.2c-24.8,3.5-53.9-15.5-58.6-40.1l-3.5-35.5
			c-1.4-7.4-6.3-13.7-13.1-16.8l-21-7.2c-31.6-14.7-42.2-50.4-24.1-80.2l11.9-16.4c4.8-7.8,4.5-17.7-0.6-25.3l-8.8-12.5
			c-25-35.6-7.7-75.5,29.4-87.4l8.2-2.6c9-2.9,17.7-10.4,18.5-19.9l1.8-23c3-37.3,36.9-58.6,72.7-47.8l11.6,3.5
			c11.2,4.4,19.9,0.6,26-6L212.8,42.6z"/>
		
			<radialGradient id="SVGID_00000163780374718572344630000000619696394437748402_" cx="-904.1082" cy="1089.3765" r="17.4098" gradientTransform="matrix(-3.8232 1.8486 1.3653 2.8237 -4449.1377 -1222.8071)" gradientUnits="userSpaceOnUse">
			<stop  offset="0.3002" style="stop-color:#FFA13D"/>
			<stop  offset="1" style="stop-color:#FFA13D;stop-opacity:0"/>
		</radialGradient>
		<path style="fill:url(#SVGID_00000163780374718572344630000000619696394437748402_);" d="M212.8,42.6c26.7-30,62.9-25.2,86.1,0
			L313,58.9c4.9,5.3,12,8.1,19.2,7.5l25.1-7.5c34.3-7.3,65.4,18.2,65.4,57.9v15c0.7,8.2,7.9,13.7,15.2,17.3l22.7,9.5
			c32.9,16,41.1,54.1,17.1,86.1l-6.8,9c-6.1,8.2-4.8,19.1,1.2,27.3l6.8,9.5c24.8,30.5,10.8,72.3-24.2,86.9l-19.6,8.2
			c-7.4,3.1-10.3,8.4-11.6,16.2l-1.4,25.6c-4.8,35.1-35.9,50.9-60.9,47.4l-29.8-8c-7.2-1-16.1,1.4-20.8,8.8l-10.7,14.7
			c-26.7,30.1-62.6,25.1-80.8,7.5l-19.8-24c-5.2-5-11.7-9.3-19.6-6.4l-30,8.2c-24.8,3.5-53.9-15.5-58.6-40.1l-3.5-35.5
			c-1.4-7.4-6.3-13.7-13.1-16.8l-21-7.2c-31.6-14.7-42.2-50.4-24.1-80.2l11.9-16.4c4.8-7.8,4.5-17.7-0.6-25.3l-8.8-12.5
			c-25-35.6-7.7-75.5,29.4-87.4l8.2-2.6c9-2.9,17.7-10.4,18.5-19.9l1.8-23c3-37.3,36.9-58.6,72.7-47.8l11.6,3.5
			c11.2,4.4,19.9,0.6,26-6L212.8,42.6z"/>
		
			<radialGradient id="SVGID_00000003069626554154858960000004395893734609130686_" cx="-965.0316" cy="958.6276" r="17.4098" gradientTransform="matrix(-4.7055 -0.5462 -0.3078 2.6517 -3734.9695 -2762.0874)" gradientUnits="userSpaceOnUse">
			<stop  offset="0.3002" style="stop-color:#FFA13D"/>
			<stop  offset="1" style="stop-color:#FFA13D;stop-opacity:0"/>
		</radialGradient>
		<path style="fill:url(#SVGID_00000003069626554154858960000004395893734609130686_);" d="M212.8,42.6c26.7-30,62.9-25.2,86.1,0
			L313,58.9c4.9,5.3,12,8.1,19.2,7.5l25.1-7.5c34.3-7.3,65.4,18.2,65.4,57.9v15c0.7,8.2,7.9,13.7,15.2,17.3l22.7,9.5
			c32.9,16,41.1,54.1,17.1,86.1l-6.8,9c-6.1,8.2-4.8,19.1,1.2,27.3l6.8,9.5c24.8,30.5,10.8,72.3-24.2,86.9l-19.6,8.2
			c-7.4,3.1-10.3,8.4-11.6,16.2l-1.4,25.6c-4.8,35.1-35.9,50.9-60.9,47.4l-29.8-8c-7.2-1-16.1,1.4-20.8,8.8l-10.7,14.7
			c-26.7,30.1-62.6,25.1-80.8,7.5l-19.8-24c-5.2-5-11.7-9.3-19.6-6.4l-30,8.2c-24.8,3.5-53.9-15.5-58.6-40.1l-3.5-35.5
			c-1.4-7.4-6.3-13.7-13.1-16.8l-21-7.2c-31.6-14.7-42.2-50.4-24.1-80.2l11.9-16.4c4.8-7.8,4.5-17.7-0.6-25.3l-8.8-12.5
			c-25-35.6-7.7-75.5,29.4-87.4l8.2-2.6c9-2.9,17.7-10.4,18.5-19.9l1.8-23c3-37.3,36.9-58.6,72.7-47.8l11.6,3.5
			c11.2,4.4,19.9,0.6,26-6L212.8,42.6z"/>
		
			<radialGradient id="SVGID_00000058584720351845591120000009214983368316948380_" cx="-623.4155" cy="495.1385" r="17.4098" gradientTransform="matrix(3.0928 -2.983 -2.8737 -2.9796 3788.0549 18.5207)" gradientUnits="userSpaceOnUse">
			<stop  offset="0" style="stop-color:#E0762A"/>
			<stop  offset="1" style="stop-color:#E0762A;stop-opacity:0"/>
		</radialGradient>
		<path style="fill:url(#SVGID_00000058584720351845591120000009214983368316948380_);" d="M212.8,42.6c26.7-30,62.9-25.2,86.1,0
			L313,58.9c4.9,5.3,12,8.1,19.2,7.5l25.1-7.5c34.3-7.3,65.4,18.2,65.4,57.9v15c0.7,8.2,7.9,13.7,15.2,17.3l22.7,9.5
			c32.9,16,41.1,54.1,17.1,86.1l-6.8,9c-6.1,8.2-4.8,19.1,1.2,27.3l6.8,9.5c24.8,30.5,10.8,72.3-24.2,86.9l-19.6,8.2
			c-7.4,3.1-10.3,8.4-11.6,16.2l-1.4,25.6c-4.8,35.1-35.9,50.9-60.9,47.4l-29.8-8c-7.2-1-16.1,1.4-20.8,8.8l-10.7,14.7
			c-26.7,30.1-62.6,25.1-80.8,7.5l-19.8-24c-5.2-5-11.7-9.3-19.6-6.4l-30,8.2c-24.8,3.5-53.9-15.5-58.6-40.1l-3.5-35.5
			c-1.4-7.4-6.3-13.7-13.1-16.8l-21-7.2c-31.6-14.7-42.2-50.4-24.1-80.2l11.9-16.4c4.8-7.8,4.5-17.7-0.6-25.3l-8.8-12.5
			c-25-35.6-7.7-75.5,29.4-87.4l8.2-2.6c9-2.9,17.7-10.4,18.5-19.9l1.8-23c3-37.3,36.9-58.6,72.7-47.8l11.6,3.5
			c11.2,4.4,19.9,0.6,26-6L212.8,42.6z"/>
		
			<radialGradient id="SVGID_00000054224179096132518330000003371783430135632529_" cx="-1004.1511" cy="725.4706" r="17.4098" gradientTransform="matrix(-2.0167 -2.6048 -2.5094 1.9428 -114.162 -3639.8118)" gradientUnits="userSpaceOnUse">
			<stop  offset="0" style="stop-color:#E0762A"/>
			<stop  offset="1" style="stop-color:#E0762A;stop-opacity:0"/>
		</radialGradient>
		<path style="fill:url(#SVGID_00000054224179096132518330000003371783430135632529_);" d="M212.8,42.6c26.7-30,62.9-25.2,86.1,0
			L313,58.9c4.9,5.3,12,8.1,19.2,7.5l25.1-7.5c34.3-7.3,65.4,18.2,65.4,57.9v15c0.7,8.2,7.9,13.7,15.2,17.3l22.7,9.5
			c32.9,16,41.1,54.1,17.1,86.1l-6.8,9c-6.1,8.2-4.8,19.1,1.2,27.3l6.8,9.5c24.8,30.5,10.8,72.3-24.2,86.9l-19.6,8.2
			c-7.4,3.1-10.3,8.4-11.6,16.2l-1.4,25.6c-4.8,35.1-35.9,50.9-60.9,47.4l-29.8-8c-7.2-1-16.1,1.4-20.8,8.8l-10.7,14.7
			c-26.7,30.1-62.6,25.1-80.8,7.5l-19.8-24c-5.2-5-11.7-9.3-19.6-6.4l-30,8.2c-24.8,3.5-53.9-15.5-58.6-40.1l-3.5-35.5
			c-1.4-7.4-6.3-13.7-13.1-16.8l-21-7.2c-31.6-14.7-42.2-50.4-24.1-80.2l11.9-16.4c4.8-7.8,4.5-17.7-0.6-25.3l-8.8-12.5
			c-25-35.6-7.7-75.5,29.4-87.4l8.2-2.6c9-2.9,17.7-10.4,18.5-19.9l1.8-23c3-37.3,36.9-58.6,72.7-47.8l11.6,3.5
			c11.2,4.4,19.9,0.6,26-6L212.8,42.6z"/>
		
			<radialGradient id="SVGID_00000088843193342248907420000013496073793660144804_" cx="-451.1878" cy="768.8066" r="17.4098" gradientTransform="matrix(3.025 1.4285 1.7265 -3.6561 49.5622 3646.7837)" gradientUnits="userSpaceOnUse">
			<stop  offset="0" style="stop-color:#F0851D"/>
			<stop  offset="1" style="stop-color:#F0851D;stop-opacity:0"/>
		</radialGradient>
		<path style="fill:url(#SVGID_00000088843193342248907420000013496073793660144804_);" d="M212.8,42.6c26.7-30,62.9-25.2,86.1,0
			L313,58.9c4.9,5.3,12,8.1,19.2,7.5l25.1-7.5c34.3-7.3,65.4,18.2,65.4,57.9v15c0.7,8.2,7.9,13.7,15.2,17.3l22.7,9.5
			c32.9,16,41.1,54.1,17.1,86.1l-6.8,9c-6.1,8.2-4.8,19.1,1.2,27.3l6.8,9.5c24.8,30.5,10.8,72.3-24.2,86.9l-19.6,8.2
			c-7.4,3.1-10.3,8.4-11.6,16.2l-1.4,25.6c-4.8,35.1-35.9,50.9-60.9,47.4l-29.8-8c-7.2-1-16.1,1.4-20.8,8.8l-10.7,14.7
			c-26.7,30.1-62.6,25.1-80.8,7.5l-19.8-24c-5.2-5-11.7-9.3-19.6-6.4l-30,8.2c-24.8,3.5-53.9-15.5-58.6-40.1l-3.5-35.5
			c-1.4-7.4-6.3-13.7-13.1-16.8l-21-7.2c-31.6-14.7-42.2-50.4-24.1-80.2l11.9-16.4c4.8-7.8,4.5-17.7-0.6-25.3l-8.8-12.5
			c-25-35.6-7.7-75.5,29.4-87.4l8.2-2.6c9-2.9,17.7-10.4,18.5-19.9l1.8-23c3-37.3,36.9-58.6,72.7-47.8l11.6,3.5
			c11.2,4.4,19.9,0.6,26-6L212.8,42.6z"/>
		
			<radialGradient id="SVGID_00000123414582035184914510000010888892987743792003_" cx="-1030.2433" cy="784.359" r="17.4098" gradientTransform="matrix(-3.0937 -2.375 -2.2406 2.9187 -1070.1259 -4250.2412)" gradientUnits="userSpaceOnUse">
			<stop  offset="0.3366" style="stop-color:#E3745B"/>
			<stop  offset="1" style="stop-color:#E3745B;stop-opacity:0"/>
		</radialGradient>
		<path style="fill:url(#SVGID_00000123414582035184914510000010888892987743792003_);" d="M212.8,42.6c26.7-30,62.9-25.2,86.1,0
			L313,58.9c4.9,5.3,12,8.1,19.2,7.5l25.1-7.5c34.3-7.3,65.4,18.2,65.4,57.9v15c0.7,8.2,7.9,13.7,15.2,17.3l22.7,9.5
			c32.9,16,41.1,54.1,17.1,86.1l-6.8,9c-6.1,8.2-4.8,19.1,1.2,27.3l6.8,9.5c24.8,30.5,10.8,72.3-24.2,86.9l-19.6,8.2
			c-7.4,3.1-10.3,8.4-11.6,16.2l-1.4,25.6c-4.8,35.1-35.9,50.9-60.9,47.4l-29.8-8c-7.2-1-16.1,1.4-20.8,8.8l-10.7,14.7
			c-26.7,30.1-62.6,25.1-80.8,7.5l-19.8-24c-5.2-5-11.7-9.3-19.6-6.4l-30,8.2c-24.8,3.5-53.9-15.5-58.6-40.1l-3.5-35.5
			c-1.4-7.4-6.3-13.7-13.1-16.8l-21-7.2c-31.6-14.7-42.2-50.4-24.1-80.2l11.9-16.4c4.8-7.8,4.5-17.7-0.6-25.3l-8.8-12.5
			c-25-35.6-7.7-75.5,29.4-87.4l8.2-2.6c9-2.9,17.7-10.4,18.5-19.9l1.8-23c3-37.3,36.9-58.6,72.7-47.8l11.6,3.5
			c11.2,4.4,19.9,0.6,26-6L212.8,42.6z"/>
	</g>
	<g>
		
			<radialGradient id="SVGID_00000183209989756166499250000003420520054570110651_" cx="-722.7178" cy="857.2917" r="17.4098" gradientTransform="matrix(-11.305 13.3483 13.6021 11.5199 -19469.1738 -70.7712)" gradientUnits="userSpaceOnUse">
			<stop  offset="0.1718" style="stop-color:#FFD13D"/>
			<stop  offset="1" style="stop-color:#DCA21C"/>
		</radialGradient>
		<path style="fill:url(#SVGID_00000183209989756166499250000003420520054570110651_);" d="M256,453.5c103.3,0,187-83.7,187-187
			s-83.7-187-187-187s-187,83.7-187,187S152.7,453.5,256,453.5z"/>
	</g>
	<g class="st11">
		
			<radialGradient id="SVGID_00000119826662484659658240000018274438380581317033_" cx="-443.0995" cy="627.7518" r="17.4087" gradientTransform="matrix(3.2108 0 0 -3.2108 1563.642 2292.615)" gradientUnits="userSpaceOnUse">
			<stop  offset="0.25" style="stop-color:#ED501F"/>
			<stop  offset="0.8954" style="stop-color:#F18A42;stop-opacity:0"/>
		</radialGradient>
		<path style="fill:url(#SVGID_00000119826662484659658240000018274438380581317033_);" d="M140.9,328.5c28.5,0,51.5-23.1,51.5-51.5
			c0-28.5-23.1-51.5-51.5-51.5c-28.5,0-51.5,23.1-51.5,51.5C89.4,305.5,112.5,328.5,140.9,328.5z"/>
	</g>
	<g class="st11">
		
			<radialGradient id="SVGID_00000067945077498787687520000010996201395218148745_" cx="-375.535" cy="627.7518" r="17.4086" gradientTransform="matrix(3.2108 0 0 -3.2108 1576.8621 2292.615)" gradientUnits="userSpaceOnUse">
			<stop  offset="0.1302" style="stop-color:#FB6738"/>
			<stop  offset="0.8954" style="stop-color:#F18A42;stop-opacity:0"/>
		</radialGradient>
		<path style="fill:url(#SVGID_00000067945077498787687520000010996201395218148745_);" d="M371.1,328.5c28.5,0,51.5-23.1,51.5-51.5
			c0-28.5-23.1-51.5-51.5-51.5c-28.5,0-51.5,23.1-51.5,51.5C319.5,305.5,342.6,328.5,371.1,328.5z"/>
	</g>
	<g>
		<path class="st14" d="M169.6,303.3c5.1-5.1,13.4-5.1,18.5,0c37.6,37.6,98.4,37.6,136,0c5.1-5.1,13.4-5.1,18.5,0
			c5.1,5.1,5.1,13.4,0,18.5c-47.8,47.8-125.1,47.8-172.9,0C164.5,316.7,164.5,308.4,169.6,303.3z"/>
	</g>
	<g>
		
			<linearGradient id="SVGID_00000085940979916473697180000003373732592290922934_" gradientUnits="userSpaceOnUse" x1="170.1688" y1="191.927" x2="350.7093" y2="191.927" gradientTransform="matrix(1 0 0 -1 0 514)">
			<stop  offset="0" style="stop-color:#31243C"/>
			<stop  offset="1" style="stop-color:#3F2950"/>
		</linearGradient>
		<path style="fill-rule:evenodd;clip-rule:evenodd;fill:url(#SVGID_00000085940979916473697180000003373732592290922934_);" d="
			M174,296.8c5.1-5.1,13.4-5.1,18.5,0c37.6,37.6,98.4,37.6,136,0c5.1-5.1,13.4-5.1,18.5,0s5.1,13.4,0,18.5
			c-47.8,47.8-125.1,47.8-172.9,0C168.9,310.2,168.9,301.9,174,296.8z"/>
		
			<linearGradient id="SVGID_00000135683761062224502950000009442895411097078686_" gradientUnits="userSpaceOnUse" x1="311.8743" y1="255.629" x2="301.3274" y2="245.836" gradientTransform="matrix(1 0 0 -1 0 514)">
			<stop  offset="0" style="stop-color:#665C6D"/>
			<stop  offset="1" style="stop-color:#665C6D;stop-opacity:0"/>
		</linearGradient>
		<path style="fill-rule:evenodd;clip-rule:evenodd;fill:url(#SVGID_00000135683761062224502950000009442895411097078686_);" d="
			M174,296.8c5.1-5.1,13.4-5.1,18.5,0c37.6,37.6,98.4,37.6,136,0c5.1-5.1,13.4-5.1,18.5,0s5.1,13.4,0,18.5
			c-47.8,47.8-125.1,47.8-172.9,0C168.9,310.2,168.9,301.9,174,296.8z"/>
	</g>
	<g>
		<path class="st17" d="M169.8,148.2c-23.8,0-43.2,19.3-43.2,43.2c0,4.8-3.9,8.7-8.7,8.7c-4.8,0-8.7-3.9-8.7-8.7
			c0-33.6,27.2-60.6,60.6-60.6c4.8,0,8.7,3.9,8.7,8.7S174.6,148.2,169.8,148.2z"/>
		
			<radialGradient id="SVGID_00000026868068379630254680000004310690241950143625_" cx="-884.3214" cy="1634.4222" r="17.4098" gradientTransform="matrix(-0.6845 0.8906 0.8906 0.6845 -1882.4243 -193.8549)" gradientUnits="userSpaceOnUse">
			<stop  offset="0" style="stop-color:#59525C"/>
			<stop  offset="1" style="stop-color:#59525C;stop-opacity:0"/>
		</radialGradient>
		<path style="fill-rule:evenodd;clip-rule:evenodd;fill:url(#SVGID_00000026868068379630254680000004310690241950143625_);" d="
			M169.8,148.2c-23.8,0-43.2,19.3-43.2,43.2c0,4.8-3.9,8.7-8.7,8.7c-4.8,0-8.7-3.9-8.7-8.7c0-33.6,27.2-60.6,60.6-60.6
			c4.8,0,8.7,3.9,8.7,8.7S174.6,148.2,169.8,148.2z"/>
	</g>
	<g>
		<path class="st19" d="M339.7,143.6c0-4.6,3.8-8.4,8.4-8.4c32.2,0,58.5,26.1,58.5,58.5c0,4.6-3.8,8.4-8.4,8.4
			c-4.6,0-8.4-3.8-8.4-8.4c0-23.1-18.7-41.7-41.7-41.7C343.4,152,339.7,148.2,339.7,143.6z"/>
	</g>
	<g>
		<path class="st17" d="M341.8,139.5c0-4.8,3.9-8.7,8.7-8.7c33.3,0,60.6,27,60.6,60.6c0,4.8-3.9,8.7-8.7,8.7c-4.8,0-8.7-3.9-8.7-8.7
			c0-23.9-19.4-43.2-43.2-43.2C345.7,148.2,341.8,144.3,341.8,139.5z"/>
	</g>
	<g>
		<path class="st20" d="M183.5,211.9c-9.4,0-17.3,5.7-20.5,13.8c-2.4,6.2-9.4,9.2-15.6,6.8c-6.2-2.4-9.2-9.4-6.8-15.6
			c6.7-17.2,23.5-29.1,42.9-29.1c20.4,0,37.7,13.2,43.8,31.6c2.1,6.3-1.3,13.1-7.7,15.2c-6.3,2.1-13.1-1.4-15.2-7.7
			C201.6,218.2,193.2,211.9,183.5,211.9z"/>
	</g>
	
		<linearGradient id="SVGID_00000173877920304563519650000001441753275937078407_" gradientUnits="userSpaceOnUse" x1="138.3071" y1="305.5889" x2="234.0686" y2="305.5889" gradientTransform="matrix(1 0 0 -1 0 514)">
		<stop  offset="0" style="stop-color:#2E2931"/>
		<stop  offset="1" style="stop-color:#362A3F"/>
	</linearGradient>
	<path style="fill-rule:evenodd;clip-rule:evenodd;fill:url(#SVGID_00000173877920304563519650000001441753275937078407_);" d="
		M185.8,208.8c-10.2,0-18.9,6.2-22.3,15c-2.6,6.7-10.2,10-16.9,7.4c-6.7-2.6-10-10.2-7.4-16.9c7.3-18.7,25.5-31.6,46.6-31.6
		c22.2,0,41,14.4,47.6,34.4c2.3,6.9-1.5,14.2-8.3,16.5c-6.8,2.3-14.2-1.5-16.5-8.3C205.4,215.6,196.4,208.8,185.8,208.8z"/>
	<g>
		<path class="st20" d="M334.3,211.9c-9.4,0-17.3,5.7-20.5,13.8c-2.4,6.2-9.4,9.2-15.6,6.8c-6.2-2.4-9.2-9.4-6.8-15.6
			c6.7-17.2,23.5-29.1,42.9-29.1c20.4,0,37.7,13.2,43.8,31.6c2.1,6.3-1.4,13.1-7.7,15.2s-13.1-1.4-15.2-7.7
			C352.3,218.2,344,211.9,334.3,211.9z"/>
	</g>
	<g>
		<path class="st22" d="M335.9,208.8c-10.2,0-18.9,6.2-22.3,15c-2.6,6.7-10.2,10-16.9,7.4c-6.7-2.6-10-10.2-7.4-16.9
			c7.3-18.7,25.5-31.6,46.6-31.6c22.2,0,41,14.4,47.6,34.4c2.3,6.9-1.5,14.2-8.3,16.5c-6.8,2.3-14.2-1.5-16.5-8.3
			C355.5,215.6,346.5,208.8,335.9,208.8z"/>
	</g>
	<g>
		
			<linearGradient id="SVGID_00000136374327685473680640000011185869061679064225_" gradientUnits="userSpaceOnUse" x1="195.6841" y1="237.664" x2="270.8488" y2="199.6797" gradientTransform="matrix(1 0 0 -1 0 514)">
			<stop  offset="0" style="stop-color:#4E4753"/>
			<stop  offset="1" style="stop-color:#4E4753;stop-opacity:0"/>
		</linearGradient>
		
			<path style="fill:none;stroke:url(#SVGID_00000136374327685473680640000011185869061679064225_);stroke-width:0.6;stroke-linecap:round;" d="
			M183.8,306.5c25.1,23.5,90.7,56.3,152.6,0"/>
		
			<linearGradient id="SVGID_00000169557184418563103260000000537741807402030004_" gradientUnits="userSpaceOnUse" x1="331.0605" y1="239.6639" x2="238.446" y2="193.8546" gradientTransform="matrix(1 0 0 -1 0 514)">
			<stop  offset="8.973520e-02" style="stop-color:#5E5468"/>
			<stop  offset="1" style="stop-color:#5E5468;stop-opacity:0"/>
		</linearGradient>
		
			<path style="fill:none;stroke:url(#SVGID_00000169557184418563103260000000537741807402030004_);stroke-width:0.6;stroke-linecap:round;" d="
			M183.8,306.5c25.1,23.5,90.7,56.3,152.6,0"/>
	</g>
	<g>
		
			<linearGradient id="SVGID_00000147906648153062740060000000707513982977473695_" gradientUnits="userSpaceOnUse" x1="346.82" y1="373.8866" x2="382.7526" y2="350.9297" gradientTransform="matrix(1 0 0 -1 0 514)">
			<stop  offset="0" style="stop-color:#60556A"/>
			<stop  offset="1" style="stop-color:#60556A;stop-opacity:0"/>
		</linearGradient>
		
			<path style="fill:none;stroke:url(#SVGID_00000147906648153062740060000000707513982977473695_);stroke-width:0.4;stroke-linecap:round;" d="
			M351.9,137.3c15.4,0.2,48.4,12,51.7,53.6"/>
		
			<linearGradient id="SVGID_00000036947896404615749620000017865886712856823190_" gradientUnits="userSpaceOnUse" x1="395.6194" y1="326.7724" x2="364.6743" y2="378.6807" gradientTransform="matrix(1 0 0 -1 0 514)">
			<stop  offset="0" style="stop-color:#5D4F69"/>
			<stop  offset="1" style="stop-color:#5D4F69;stop-opacity:0"/>
		</linearGradient>
		
			<path style="fill:none;stroke:url(#SVGID_00000036947896404615749620000017865886712856823190_);stroke-width:0.4;stroke-linecap:round;" d="
			M351.9,137.3c15.4,0.2,48.4,12,51.7,53.6"/>
	</g>
	<g>
		
			<linearGradient id="SVGID_00000152248863513004813670000014180749844028133561_" gradientUnits="userSpaceOnUse" x1="132.7114" y1="321.2365" x2="134.2323" y2="366.7053" gradientTransform="matrix(1 0 0 -1 0 514)">
			<stop  offset="0" style="stop-color:#524D53"/>
			<stop  offset="1" style="stop-color:#524D53;stop-opacity:0"/>
		</linearGradient>
		
			<path style="fill:none;stroke:url(#SVGID_00000152248863513004813670000014180749844028133561_);stroke-width:0.4;stroke-linecap:round;" d="
			M118.7,190c0.6-12.1,7.7-35.1,29.7-45.2"/>
	</g>
	<g>
		
			<linearGradient id="SVGID_00000005946305757891042950000004086487940384903831_" gradientUnits="userSpaceOnUse" x1="211.4159" y1="305.1239" x2="175.2615" y2="310.683" gradientTransform="matrix(1 0 0 -1 0 514)">
			<stop  offset="0" style="stop-color:#524D53"/>
			<stop  offset="1" style="stop-color:#5C5463;stop-opacity:0"/>
		</linearGradient>
		
			<path style="fill:none;stroke:url(#SVGID_00000005946305757891042950000004086487940384903831_);stroke-width:0.5;stroke-linecap:round;" d="
			M223.4,223.1c-1.9-11.6-14.1-33.9-47.2-29.8"/>
	</g>
	<g class="st29">
		
			<linearGradient id="SVGID_00000145029317010410554520000000301964456488412813_" gradientUnits="userSpaceOnUse" x1="353.4621" y1="303.498" x2="298.1548" y2="311.465" gradientTransform="matrix(1 0 0 -1 0 514)">
			<stop  offset="0" style="stop-color:#61556C"/>
			<stop  offset="1" style="stop-color:#554A5F"/>
		</linearGradient>
		
			<path style="fill:none;stroke:url(#SVGID_00000145029317010410554520000000301964456488412813_);stroke-width:0.5;stroke-linecap:round;" d="
			M303.3,216.6c3.2-7.6,14.3-22.5,33-21.8c18.7,0.8,33.5,13.7,37.5,21.8"/>
	</g>
	<g>
		
			<linearGradient id="SVGID_00000063612101887281229280000010067597923168936836_" gradientUnits="userSpaceOnUse" x1="255.269" y1="544.1561" x2="255.269" y2="409.9113" gradientTransform="matrix(1 0 0 -1 0 514)">
			<stop  offset="0" style="stop-color:#9C634D"/>
			<stop  offset="1" style="stop-color:#63332A"/>
		</linearGradient>
		<path style="fill:url(#SVGID_00000063612101887281229280000010067597923168936836_);" d="M297.2,0c-10,0-19.2,3.3-26.6,8.7
			c-8.4,8.3-22.2,8.3-30.7,0C232.5,3.3,223.4,0,213.3,0c-24.7,0-44.8,19.7-44.8,44v71.8h173.4V44C341.9,19.7,321.9,0,297.2,0z"/>
		<g>
			
				<radialGradient id="SVGID_00000022544339462537686300000005084687509211574705_" cx="-510.7028" cy="396.5257" r="14.4583" gradientTransform="matrix(1.2865 -1.4473 -1.6624 -1.4777 1540.0873 -118.315)" gradientUnits="userSpaceOnUse">
				<stop  offset="0" style="stop-color:#BA7D72"/>
				<stop  offset="0.8661" style="stop-color:#BA7D72;stop-opacity:0"/>
			</radialGradient>
			
				<circle style="fill:url(#SVGID_00000022544339462537686300000005084687509211574705_);fill-opacity:0.75;" cx="217.6" cy="34.9" r="34.9"/>
		</g>
		<g>
			
				<radialGradient id="SVGID_00000018227562191461501610000002256211123677662627_" cx="-459.9403" cy="328.4855" r="14.4583" gradientTransform="matrix(1.1813 -1.3166 -1.5139 -1.3584 1354.0288 -121.3374)" gradientUnits="userSpaceOnUse">
				<stop  offset="0" style="stop-color:#BA7D72"/>
				<stop  offset="0.8661" style="stop-color:#BA7D72;stop-opacity:0"/>
			</radialGradient>
			
				<ellipse style="fill:url(#SVGID_00000018227562191461501610000002256211123677662627_);fill-opacity:0.75;" cx="307.6" cy="38" rx="32" ry="31.7"/>
		</g>
		
			<linearGradient id="SVGID_00000131359866530384293340000014757750509427477668_" gradientUnits="userSpaceOnUse" x1="301.5733" y1="484.0221" x2="131.2355" y2="411.2786" gradientTransform="matrix(1 0 0 -1 0 514)">
			<stop  offset="0" style="stop-color:#A97C50"/>
			<stop  offset="1" style="stop-color:#875236"/>
		</linearGradient>
		<path style="fill:url(#SVGID_00000131359866530384293340000014757750509427477668_);" d="M342.1,42.5H167.3
			c-0.8,0-1.4,0.6-1.4,1.4v13h177.6V44C343.5,43.2,342.9,42.5,342.1,42.5z"/>
		
			<linearGradient id="SVGID_00000148634183951058856210000011290453813315227274_" gradientUnits="userSpaceOnUse" x1="254.7041" y1="476.4143" x2="254.7041" y2="467.6036" gradientTransform="matrix(1 0 0 -1 0 514)">
			<stop  offset="0" style="stop-color:#C59779"/>
			<stop  offset="1" style="stop-color:#C59779;stop-opacity:0"/>
		</linearGradient>
		<path style="fill:url(#SVGID_00000148634183951058856210000011290453813315227274_);" d="M342.1,42.5H167.3
			c-0.8,0-1.4,0.6-1.4,1.4v13h177.6V44C343.5,43.2,342.9,42.5,342.1,42.5z"/>
		
			<linearGradient id="SVGID_00000048482017748423000100000001606286256708471960_" gradientUnits="userSpaceOnUse" x1="78.7239" y1="431.0261" x2="409.4584" y2="431.0261" gradientTransform="matrix(1 0 0 -1 0 514)">
			<stop  offset="0" style="stop-color:#63332A"/>
			<stop  offset="0.4219" style="stop-color:#9C634D"/>
			<stop  offset="0.8962" style="stop-color:#63332A"/>
		</linearGradient>
		<path style="fill:url(#SVGID_00000048482017748423000100000001606286256708471960_);" d="M407.5,88.3h49.8
			c0-37.7-19.8-68.2-57.5-68.2c-26.3,0-7.8,15-19.1,37l-253.6-0.1c0-15.2,1.9-36.9-24.6-36.9c-37.7,0-55.1,30.5-55.1,68.2h16.1
			l39-2.2c42.4,35.7,78.9,59.9,153,59.9C315.4,145.9,365.2,124.1,407.5,88.3z"/>
		
			<radialGradient id="SVGID_00000014593396490616284980000000572370001999053959_" cx="-663.4714" cy="866.2335" r="14.4583" gradientTransform="matrix(9.375531e-02 8.3125 13.5702 -0.1531 -11436.5449 5687.4229)" gradientUnits="userSpaceOnUse">
			<stop  offset="0.8073" style="stop-color:#BA7D72;stop-opacity:0"/>
			<stop  offset="1" style="stop-color:#BA7D72"/>
		</radialGradient>
		<path style="fill:url(#SVGID_00000014593396490616284980000000572370001999053959_);" d="M407.5,88.3h49.8
			c0-37.7-19.8-68.2-57.5-68.2c-26.3,0-7.8,15-19.1,37l-253.6-0.1c0-15.2,1.9-36.9-24.6-36.9c-37.7,0-55.1,30.5-55.1,68.2h16.1
			l39-2.2c42.4,35.7,78.9,59.9,153,59.9C315.4,145.9,365.2,124.1,407.5,88.3z"/>
		
			<radialGradient id="SVGID_00000045593718711298499790000011773843039401792702_" cx="-675.7227" cy="855.2048" r="14.4735" gradientTransform="matrix(-4.843198e-02 10.831 16.1712 7.231148e-02 -13609.7158 7276.9409)" gradientUnits="userSpaceOnUse">
			<stop  offset="0.698" style="stop-color:#E9B000;stop-opacity:0"/>
			<stop  offset="1" style="stop-color:#FFB100"/>
		</radialGradient>
		<path style="fill:url(#SVGID_00000045593718711298499790000011773843039401792702_);" d="M407.5,88.3h49.8
			c0-37.7-19.8-68.2-57.5-68.2c-26.3,0-7.8,15-19.1,37l-253.6-0.1c0-15.2,1.9-36.9-24.6-36.9c-37.7,0-55.1,30.5-55.1,68.2h16.1
			l39-2.2c42.4,35.7,78.9,59.9,153,59.9C315.4,145.9,365.2,124.1,407.5,88.3z"/>
		
			<linearGradient id="SVGID_00000020391119665397065270000014231452020289877399_" gradientUnits="userSpaceOnUse" x1="110.0404" y1="481.1543" x2="98.7448" y2="354.6439" gradientTransform="matrix(1 0 0 -1 0 514)">
			<stop  offset="0" style="stop-color:#9C634D"/>
			<stop  offset="1" style="stop-color:#63332A"/>
		</linearGradient>
		<path style="fill:url(#SVGID_00000020391119665397065270000014231452020289877399_);" d="M141,56c0,0-0.3,10.3,0.1,18.9
			c1.7,31.4,26.9,54.9,26.9,54.9s-13.2-5.7-24.1-10.9c-5.6-2.7-12.4-1.9-16.7,2.6c-15.8,16.4-23.4,30.6-23.4,30.6s-22.1,0-43.4-17.2
			C42.2,119,39.7,95,39.7,95s-9.8-57.1,45.4-76.5c44.4-15.5,55.8,8,55.8,24.4C140.9,46.2,141,56,141,56z"/>
		
			<radialGradient id="SVGID_00000064347301083854470480000014987203660329728182_" cx="-985.7177" cy="866.6317" r="14.4583" gradientTransform="matrix(-2.7113 0.5 1.3591 7.3699 -3682.3193 -5796.5449)" gradientUnits="userSpaceOnUse">
			<stop  offset="0" style="stop-color:#BA7D72"/>
			<stop  offset="1" style="stop-color:#BA7D72;stop-opacity:0"/>
		</radialGradient>
		<path style="fill:url(#SVGID_00000064347301083854470480000014987203660329728182_);" d="M141,56c0,0-0.3,10.3,0.1,18.9
			c1.7,31.4,26.9,54.9,26.9,54.9s-13.2-5.7-24.1-10.9c-5.6-2.7-12.4-1.9-16.7,2.6c-15.8,16.4-23.4,30.6-23.4,30.6s-22.1,0-43.4-17.2
			C42.2,119,39.7,95,39.7,95s-9.8-57.1,45.4-76.5c44.4-15.5,55.8,8,55.8,24.4C140.9,46.2,141,56,141,56z"/>
		<g>
			
				<radialGradient id="SVGID_00000128455861936726154820000011086547373391517090_" cx="-812.2261" cy="725.7208" r="14.4583" gradientTransform="matrix(-4.25 -6.3438 -5.0681 3.3954 355.8281 -7434.1499)" gradientUnits="userSpaceOnUse">
				<stop  offset="0" style="stop-color:#D47C00"/>
				<stop  offset="1" style="stop-color:#FFDC2A;stop-opacity:0"/>
			</radialGradient>
			<path style="fill:url(#SVGID_00000128455861936726154820000011086547373391517090_);" d="M43.1,90.4
				c10.7-37.6,63.1-11.6,88.4,18.3c4.2,5,8.6,8.5,13.2,10.6l-0.1,0.2c-0.4-0.2-0.7-0.4-1.1-0.5c-5.6-2.7-12.4-1.9-16.7,2.6
				c-15.1,10.3-25.5,24.3-25.5,24.3s-18.8,0-39.8-17.6c-12.8-10.8-16.8-24.3-18-31.9C42.9,92.7,42.1,94,43.1,90.4L43.1,90.4z"/>
		</g>
		
			<linearGradient id="SVGID_00000121989357456104335220000017225459406391007414_" gradientUnits="userSpaceOnUse" x1="400.6812" y1="481.1212" x2="411.9775" y2="354.6107" gradientTransform="matrix(1 0 0 -1 0 514)">
			<stop  offset="0" style="stop-color:#9C634D"/>
			<stop  offset="1" style="stop-color:#63332A"/>
		</linearGradient>
		<path style="fill:url(#SVGID_00000121989357456104335220000017225459406391007414_);" d="M369.7,56c0,0,0.3,10.3-0.1,18.9
			c-1.7,31.4-27,54-27,54s13.2-5.1,24.2-10.1c5.7-2.6,12.5-1.8,16.7,2.7c15.5,16.4,22.1,30.6,22.1,30.6s22.4,2.5,44.8-17.2
			c18.2-15.9,20.7-39.9,20.7-39.9s9.8-57.1-45.4-76.5c-44.4-15.5-55.8,8-55.8,24.4C369.8,46.2,369.7,56,369.7,56z"/>
		
			<radialGradient id="SVGID_00000068645648240052493450000007799661100662556832_" cx="-313.4005" cy="772.9769" r="14.4583" gradientTransform="matrix(2.7113 0.5 1.3591 -7.3699 141.7838 5951.0483)" gradientUnits="userSpaceOnUse">
			<stop  offset="0" style="stop-color:#BA7D72"/>
			<stop  offset="1" style="stop-color:#BA7D72;stop-opacity:0"/>
		</radialGradient>
		<path style="fill:url(#SVGID_00000068645648240052493450000007799661100662556832_);" d="M369.7,56c0,0,0.3,10.3-0.1,18.9
			c-1.7,31.4-27,54-27,54s13.2-5.1,24.2-10.1c5.7-2.6,12.5-1.8,16.7,2.7c15.5,16.4,22.1,30.6,22.1,30.6s22.4,2.5,44.8-17.2
			c18.2-15.9,20.7-39.9,20.7-39.9s9.8-57.1-45.4-76.5c-44.4-15.5-55.8,8-55.8,24.4C369.8,46.2,369.7,56,369.7,56z"/>
		<g>
			
				<radialGradient id="SVGID_00000165944694043305036820000016120734473512492218_" cx="-674.9111" cy="611.7178" r="14.4583" gradientTransform="matrix(4.25 -6.3438 -5.0681 -3.3954 6348.6191 -2021.9169)" gradientUnits="userSpaceOnUse">
				<stop  offset="0" style="stop-color:#D47C00"/>
				<stop  offset="1" style="stop-color:#FFDC2A;stop-opacity:0"/>
			</radialGradient>
			<path style="fill:url(#SVGID_00000165944694043305036820000016120734473512492218_);" d="M469.9,92.9
				c-15.6-34.8-66.8-15.4-90.5,14.4c-4.6,5.8-9.3,9.7-14.3,12l0.1,0.2c0.4-0.2,0.7-0.4,1.1-0.5c5.6-2.7,14-4,18.3,0.5
				c15.5,16.4,22.1,30.2,22.1,30.2s18.7,4.3,41.1-15.4c9.9-8.4,15.7-18.6,19-26.5C470.2,99.8,473.5,100.9,469.9,92.9L469.9,92.9z"/>
		</g>
		<g class="st45">
			<path class="st46" d="M388.7,114c5-5,17.7-18.8,27.8-33.2"/>
		</g>
	</g>
</g>
</svg>
