<?xml version="1.0" encoding="utf-8"?>
<!-- Generator: Adobe Illustrator 27.3.1, SVG Export Plug-In . SVG Version: 6.00 Build 0)  -->
<svg version="1.1" id="Layer_1" xmlns="http://www.w3.org/2000/svg" xmlns:xlink="http://www.w3.org/1999/xlink" x="0px" y="0px"
	 viewBox="0 0 100 100" style="enable-background:new 0 0 100 100;" xml:space="preserve">
<style type="text/css">
	.st0{fill:#B0BEFF;}
	.st1{fill:url(#SVGID_1_);}
	.st2{fill:url(#SVGID_00000093886610882663622750000016789862254478732216_);}
	.st3{fill:url(#SVGID_00000064338390095732422820000009512220141811538825_);}
	.st4{fill:url(#SVGID_00000104685914893050381660000009402961087021475205_);}
	.st5{fill:url(#SVGID_00000124157899603415100010000010149837015431746223_);}
	.st6{fill:url(#SVGID_00000140720443135199082020000011692215460719500967_);}
	.st7{fill:url(#SVGID_00000057851964973541452910000009024688720243593138_);}
	.st8{fill:url(#SVGID_00000062899493873611588960000002174353230260589736_);}
	.st9{fill:url(#SVGID_00000035516883098987017420000006215541143406076607_);}
	.st10{fill:url(#SVGID_00000124869586687247420840000010428800350715246476_);}
	.st11{fill:url(#SVGID_00000062914519707574992950000002749528552577772945_);}
	.st12{fill:url(#SVGID_00000120523998059120352440000000408298268036389250_);}
	.st13{fill:url(#SVGID_00000026865066303047804760000014231614475446628497_);}
	.st14{fill:url(#SVGID_00000133490188620760478180000013433250152257910407_);}
	.st15{fill:url(#SVGID_00000115494366638981329000000000101614535847575472_);}
	.st16{fill:url(#SVGID_00000090291917967096258250000001853476710543112338_);}
	.st17{fill:url(#SVGID_00000122708561101990947400000009032327910974566076_);}
	.st18{fill:url(#SVGID_00000044169516176626246500000015009578160630443656_);}
	.st19{fill:url(#SVGID_00000118373796508251800390000017429339176060699012_);}
	.st20{fill:url(#SVGID_00000103946390752132300340000000699824867657561262_);}
	.st21{fill:url(#SVGID_00000121273291046922327570000005319077382812596659_);}
	.st22{fill:url(#SVGID_00000103249578361515527330000009049003269236944532_);}
	.st23{fill:url(#SVGID_00000016068530329096577680000000403159813303980220_);}
	.st24{fill:url(#SVGID_00000168830925152932187160000005077204478599447434_);}
	.st25{fill:url(#SVGID_00000168836685226237132780000011395545541269621634_);}
	.st26{fill:url(#SVGID_00000005229243176343179160000002113169044257688742_);}
	.st27{fill:url(#SVGID_00000111182819111002081280000011559818525426223031_);}
	.st28{fill:url(#SVGID_00000166673294726545155320000009754533390410211493_);}
	.st29{fill:url(#SVGID_00000008839904186472405900000001190508164781999238_);}
	.st30{fill-rule:evenodd;clip-rule:evenodd;fill:#AA7E32;}
	.st31{fill-rule:evenodd;clip-rule:evenodd;fill:#443452;}
	.st32{fill-rule:evenodd;clip-rule:evenodd;fill:#885F1F;}
	.st33{fill:#E9B15A;}
	.st34{fill-rule:evenodd;clip-rule:evenodd;fill:url(#SVGID_00000154420393240067776870000017240932845886425004_);}
	.st35{fill-rule:evenodd;clip-rule:evenodd;fill:url(#SVGID_00000174594808586509563350000010860084407687300486_);}
	.st36{fill-rule:evenodd;clip-rule:evenodd;fill:url(#SVGID_00000093898770502605068160000004220039774408529816_);}
	.st37{fill-rule:evenodd;clip-rule:evenodd;fill:url(#SVGID_00000078010491938434433860000017259516961014852740_);}
	.st38{fill:url(#SVGID_00000166671542324554374250000014998102877844753071_);}
	.st39{fill:url(#SVGID_00000064312205678191277850000009309830489610377883_);}
	.st40{fill:url(#SVGID_00000083081172861890504340000014685851183457853339_);}
	.st41{fill:url(#SVGID_00000154413469715125887840000009076262946806077829_);}
	.st42{fill:url(#SVGID_00000121967660000697923520000007650727874801941692_);}
	.st43{fill:url(#SVGID_00000010278452429323277650000000428446728361608323_);}
	.st44{fill:url(#SVGID_00000010302847141270741050000000933735933421445045_);}
	.st45{fill:url(#SVGID_00000089539916494307473670000000602816220889835943_);}
	.st46{fill:#FFFFFF;}
	.st47{fill:url(#SVGID_00000004507402102476970050000007934096781825115009_);}
</style>
<rect class="st0" width="100" height="100"/>
<g>
	
		<radialGradient id="SVGID_1_" cx="-206.5106" cy="320.9697" r="3.5716" gradientTransform="matrix(-15.7106 15.197 16.9968 17.5713 -8619.0791 -2474.4336)" gradientUnits="userSpaceOnUse">
		<stop  offset="0" style="stop-color:#FFF6A6"/>
		<stop  offset="0.87" style="stop-color:#F6B246"/>
	</radialGradient>
	<circle class="st1" cx="50" cy="50" r="50"/>
	
		<radialGradient id="SVGID_00000067917526552694185730000011366876097373522874_" cx="-219.8254" cy="311.3369" r="3.5716" gradientTransform="matrix(-20.7433 -9.5466 -11.3355 24.6304 -953.8529 -9703.9932)" gradientUnits="userSpaceOnUse">
		<stop  offset="0.6832" style="stop-color:#BA9D76;stop-opacity:0"/>
		<stop  offset="1" style="stop-color:#BA9D76"/>
	</radialGradient>
	<circle style="fill:url(#SVGID_00000067917526552694185730000011366876097373522874_);" cx="50" cy="50" r="50"/>
	
		<radialGradient id="SVGID_00000168802845366539074330000016224674712570855561_" cx="-211.6121" cy="294.1859" r="3.5716" gradientTransform="matrix(8.0144 -11.1967 -21.3181 -15.2593 7991.3145 2212.1482)" gradientUnits="userSpaceOnUse">
		<stop  offset="0" style="stop-color:#CA7044"/>
		<stop  offset="1" style="stop-color:#CA7044;stop-opacity:0"/>
	</radialGradient>
	<circle style="fill:url(#SVGID_00000168802845366539074330000016224674712570855561_);" cx="50" cy="50" r="50"/>
	
		<radialGradient id="SVGID_00000105384562663563231120000011395989680041739666_" cx="-194.4051" cy="322.4185" r="3.5716" gradientTransform="matrix(-3 17.375 17.823 3.0773 -6274.0928 2425.1934)" gradientUnits="userSpaceOnUse">
		<stop  offset="0.8639" style="stop-color:#C07583;stop-opacity:0"/>
		<stop  offset="1" style="stop-color:#C07583"/>
	</radialGradient>
	<circle style="fill:url(#SVGID_00000105384562663563231120000011395989680041739666_);" cx="50" cy="50" r="50"/>
	
		<radialGradient id="SVGID_00000096017533667407301050000006372636986902404000_" cx="-180.1785" cy="340.4247" r="3.5716" gradientTransform="matrix(-1.1875 8.5901 8.5901 1.1875 -3062.3435 1212.7819)" gradientUnits="userSpaceOnUse">
		<stop  offset="0" style="stop-color:#FFC94E"/>
		<stop  offset="1" style="stop-color:#FFC94E;stop-opacity:0"/>
	</radialGradient>
	<circle style="fill:url(#SVGID_00000096017533667407301050000006372636986902404000_);" cx="50" cy="50" r="50"/>
	
		<radialGradient id="SVGID_00000164491564652769906560000017482193704838092943_" cx="-140.3796" cy="306.2" r="3.5716" gradientTransform="matrix(3.4375 3.625 3.625 -3.4375 -604.8759 1608.6243)" gradientUnits="userSpaceOnUse">
		<stop  offset="0" style="stop-color:#EB7F4D"/>
		<stop  offset="0.9599" style="stop-color:#EB7F4D;stop-opacity:0"/>
	</radialGradient>
	<circle style="fill:url(#SVGID_00000164491564652769906560000017482193704838092943_);" cx="50" cy="50" r="50"/>
	
		<radialGradient id="SVGID_00000157999682191466169550000014598113726752566700_" cx="-172.6567" cy="386.6477" r="3.5716" gradientTransform="matrix(-1.4375 3.8125 3.8125 1.4375 -1647.0625 150.7477)" gradientUnits="userSpaceOnUse">
		<stop  offset="0" style="stop-color:#FFA95E"/>
		<stop  offset="1" style="stop-color:#FFB370;stop-opacity:0"/>
	</radialGradient>
	<circle style="fill:url(#SVGID_00000157999682191466169550000014598113726752566700_);" cx="50" cy="50" r="50"/>
	<g>
		
			<linearGradient id="SVGID_00000035491835320413332520000013213704154937951132_" gradientUnits="userSpaceOnUse" x1="95.5564" y1="49.7688" x2="89.9762" y2="30.9074" gradientTransform="matrix(1 0 0 -1 0 102)">
			<stop  offset="0" style="stop-color:#F2BE70"/>
			<stop  offset="1" style="stop-color:#FFEC98"/>
		</linearGradient>
		<path style="fill:url(#SVGID_00000035491835320413332520000013213704154937951132_);" d="M94.6,71.4c-3.8-1.2-6.4-4.8-6.4-8.8
			c0-5.1,4.2-9.3,9.3-9.3c0.5,0,1,0,1.5,0.1l-0.1,0.7c-0.5-0.1-0.9-0.1-1.4-0.1c-4.7,0-8.6,3.8-8.6,8.6c0,3.7,2.4,7,5.9,8.1
			L94.6,71.4z"/>
	</g>
	
		<radialGradient id="SVGID_00000180347588535573988440000004951139624305096076_" cx="-50.7357" cy="269.7923" r="3.5716" gradientTransform="matrix(2.0027 0.5263 1.1631 -4.4255 -125.1467 1280.1671)" gradientUnits="userSpaceOnUse">
		<stop  offset="0" style="stop-color:#FFE486"/>
		<stop  offset="1" style="stop-color:#FFD68B"/>
	</radialGradient>
	<path style="fill:url(#SVGID_00000180347588535573988440000004951139624305096076_);" d="M99.8,54c-0.5,6.1-2.1,11.9-4.6,17.2
		c-3.9-1-6.7-4.5-6.7-8.6c0-4.9,4-8.9,8.9-8.9C98.3,53.7,99.1,53.8,99.8,54z"/>
	
		<radialGradient id="SVGID_00000077315907281995046090000014232593299566858375_" cx="-322.3385" cy="258.9768" r="3.5716" gradientTransform="matrix(-1.1052 -2.6316 -2.9809 1.2519 512.707 -1109.0955)" gradientUnits="userSpaceOnUse">
		<stop  offset="0.7953" style="stop-color:#E3B065;stop-opacity:0"/>
		<stop  offset="0.944" style="stop-color:#E3B065"/>
	</radialGradient>
	<path style="fill:url(#SVGID_00000077315907281995046090000014232593299566858375_);" d="M99.8,54c-0.5,6.1-2.1,11.9-4.6,17.2
		c-3.9-1-6.7-4.5-6.7-8.6c0-4.9,4-8.9,8.9-8.9C98.3,53.7,99.1,53.8,99.8,54z"/>
	
		<radialGradient id="SVGID_00000150811425509477108560000012106138280521332661_" cx="-182.7494" cy="418.9505" r="3.5716" gradientTransform="matrix(-1.7972 3.2676 2.8042 1.5423 -1404.739 9.8019)" gradientUnits="userSpaceOnUse">
		<stop  offset="0.8464" style="stop-color:#FFF1A6;stop-opacity:0"/>
		<stop  offset="1" style="stop-color:#FFF1A6"/>
	</radialGradient>
	<path style="fill:url(#SVGID_00000150811425509477108560000012106138280521332661_);" d="M99.8,54c-0.5,6.1-2.1,11.9-4.6,17.2
		c-3.9-1-6.7-4.5-6.7-8.6c0-4.9,4-8.9,8.9-8.9C98.3,53.7,99.1,53.8,99.8,54z"/>
	<g>
		
			<linearGradient id="SVGID_00000101820437194180201590000002434467055885475252_" gradientUnits="userSpaceOnUse" x1="80.3557" y1="22.607" x2="60.4295" y2="7.4822" gradientTransform="matrix(1 0 0 -1 0 102)">
			<stop  offset="0" style="stop-color:#DFA055"/>
			<stop  offset="1" style="stop-color:#E1945D"/>
		</linearGradient>
		<path style="fill:url(#SVGID_00000101820437194180201590000002434467055885475252_);" d="M63.2,97c-0.7-1.7-1.1-3.5-1.1-5.3
			c0-7.4,6-13.4,13.4-13.4c4.1,0,7.9,1.8,10.5,5l-0.6,0.4c-2.4-3-6-4.8-9.9-4.8c-7,0-12.7,5.7-12.7,12.7c0,1.7,0.3,3.4,1,5L63.2,97z
			"/>
	</g>
	
		<radialGradient id="SVGID_00000089556752182258726590000005419169364658355084_" cx="-161.808" cy="341.328" r="3.5716" gradientTransform="matrix(-0.5087 5.4048 8.1134 0.7637 -2777.2725 692.5465)" gradientUnits="userSpaceOnUse">
		<stop  offset="0" style="stop-color:#FEB862"/>
		<stop  offset="1" style="stop-color:#D78B6C"/>
	</radialGradient>
	<path style="fill:url(#SVGID_00000089556752182258726590000005419169364658355084_);" d="M86.3,84.4C80.3,90.7,72.6,95.5,64,98
		c-1-1.9-1.6-4-1.6-6.3c0-7.2,5.8-13,13-13C80,78.7,83.9,80.9,86.3,84.4z"/>
	
		<radialGradient id="SVGID_00000116924476333496426160000004110378772392934274_" cx="-129.0538" cy="315.2911" r="3.5716" gradientTransform="matrix(2.1827 4.0423 10.5738 -5.7093 -2982.0876 2400.4424)" gradientUnits="userSpaceOnUse">
		<stop  offset="0.727" style="stop-color:#D8A294;stop-opacity:0"/>
		<stop  offset="1" style="stop-color:#D8A294"/>
	</radialGradient>
	<path style="fill:url(#SVGID_00000116924476333496426160000004110378772392934274_);" d="M86.3,84.4C80.3,90.7,72.6,95.5,64,98
		c-1-1.9-1.6-4-1.6-6.3c0-7.2,5.8-13,13-13C80,78.7,83.9,80.9,86.3,84.4z"/>
	
		<radialGradient id="SVGID_00000114772872036769062020000008028107837780032131_" cx="-232.9712" cy="396.6527" r="3.5716" gradientTransform="matrix(-4.0378 1.8339 1.6219 3.5709 -1507.1462 -897.741)" gradientUnits="userSpaceOnUse">
		<stop  offset="0.6622" style="stop-color:#EFA970;stop-opacity:0"/>
		<stop  offset="0.9785" style="stop-color:#EFA970"/>
	</radialGradient>
	<path style="fill:url(#SVGID_00000114772872036769062020000008028107837780032131_);" d="M86.3,84.4C80.3,90.7,72.6,95.5,64,98
		c-1-1.9-1.6-4-1.6-6.3c0-7.2,5.8-13,13-13C80,78.7,83.9,80.9,86.3,84.4z"/>
	
		<radialGradient id="SVGID_00000092413908805593546310000002773523155361131687_" cx="-235.9256" cy="241.8541" r="3.5716" gradientTransform="matrix(1.8857 -4.6599 -4.8261 -1.9529 1685.8035 -532.2162)" gradientUnits="userSpaceOnUse">
		<stop  offset="0.778" style="stop-color:#C17967;stop-opacity:0"/>
		<stop  offset="0.9508" style="stop-color:#C17967"/>
	</radialGradient>
	<path style="fill:url(#SVGID_00000092413908805593546310000002773523155361131687_);" d="M86.3,84.4C80.3,90.7,72.6,95.5,64,98
		c-1-1.9-1.6-4-1.6-6.3c0-7.2,5.8-13,13-13C80,78.7,83.9,80.9,86.3,84.4z"/>
	<g>
		
			<linearGradient id="SVGID_00000026154637131506078210000011229753595337720495_" gradientUnits="userSpaceOnUse" x1="45.7334" y1="27.9427" x2="36.4869" y2="16.9717" gradientTransform="matrix(1 0 0 -1 0 102)">
			<stop  offset="0" style="stop-color:#D47C4B"/>
			<stop  offset="1" style="stop-color:#E28050"/>
		</linearGradient>
		<path style="fill:url(#SVGID_00000026154637131506078210000011229753595337720495_);" d="M42.5,87.7c-2,0-4.2-0.7-6-2.1
			c-1.9-1.5-3.2-3.5-3.6-5.7c-0.5-2.2,0-4.3,1.3-5.9c2.6-3.3,7.9-3.6,11.8-0.5l0,0c1.9,1.5,3.2,3.5,3.6,5.7c0.5,2.2,0,4.3-1.3,5.9
			C46.9,86.8,44.7,87.7,42.5,87.7z M39.9,72c-2.1,0-4,0.8-5.2,2.4c-1.1,1.5-1.5,3.4-1.1,5.3c0.4,2,1.6,3.9,3.4,5.2
			c3.6,2.8,8.4,2.6,10.8-0.4c1.1-1.5,1.5-3.4,1.1-5.3c-0.4-2-1.6-3.9-3.4-5.2l0,0C43.7,72.7,41.8,72,39.9,72z"/>
	</g>
	
		<radialGradient id="SVGID_00000069368868776924147640000011641119444058828974_" cx="-149.4597" cy="375.8974" r="3.5716" gradientTransform="matrix(-0.6562 3.7662 3.9175 0.6826 -1528.3547 380.1642)" gradientUnits="userSpaceOnUse">
		<stop  offset="0" style="stop-color:#D97C5E"/>
		<stop  offset="1" style="stop-color:#F79965"/>
	</radialGradient>
	<path style="fill:url(#SVGID_00000069368868776924147640000011641119444058828974_);" d="M45.7,73.7c3.8,2.9,4.8,7.9,2.3,11.1
		c-2.5,3.2-7.6,3.4-11.3,0.4c-3.8-2.9-4.8-7.9-2.3-11.1C36.9,71,41.9,70.8,45.7,73.7z"/>
	
		<radialGradient id="SVGID_00000080203682267298354830000010003971361890820025_" cx="-161.8949" cy="404.0462" r="3.5716" gradientTransform="matrix(-1.2823 3.4921 2.9854 1.0962 -1370.1495 197.2698)" gradientUnits="userSpaceOnUse">
		<stop  offset="0.7424" style="stop-color:#FFA969;stop-opacity:0"/>
		<stop  offset="1" style="stop-color:#FFA969"/>
	</radialGradient>
	<path style="fill:url(#SVGID_00000080203682267298354830000010003971361890820025_);" d="M45.7,73.7c3.8,2.9,4.8,7.9,2.3,11.1
		c-2.5,3.2-7.6,3.4-11.3,0.4c-3.8-2.9-4.8-7.9-2.3-11.1C36.9,71,41.9,70.8,45.7,73.7z"/>
	
		<radialGradient id="SVGID_00000085940520067585404100000001438639867960781484_" cx="-294.7202" cy="259.4425" r="3.5716" gradientTransform="matrix(-0.8976 -3.3705 -3.179 0.8466 600.1133 -1130.8844)" gradientUnits="userSpaceOnUse">
		<stop  offset="0.6255" style="stop-color:#C16653;stop-opacity:0"/>
		<stop  offset="1" style="stop-color:#C16653"/>
	</radialGradient>
	<path style="fill:url(#SVGID_00000085940520067585404100000001438639867960781484_);" d="M45.7,73.7c3.8,2.9,4.8,7.9,2.3,11.1
		c-2.5,3.2-7.6,3.4-11.3,0.4c-3.8-2.9-4.8-7.9-2.3-11.1C36.9,71,41.9,70.8,45.7,73.7z"/>
	
		<radialGradient id="SVGID_00000093857827150270441090000008012812313255969408_" cx="-335.1066" cy="368.6148" r="3.5716" gradientTransform="matrix(-2.2832 -0.9135 -0.9502 2.3749 -365.5371 -1095.2167)" gradientUnits="userSpaceOnUse">
		<stop  offset="0" style="stop-color:#CE8050"/>
		<stop  offset="1" style="stop-color:#CE8050;stop-opacity:0"/>
	</radialGradient>
	<path style="fill:url(#SVGID_00000093857827150270441090000008012812313255969408_);" d="M45.7,73.7c3.8,2.9,4.8,7.9,2.3,11.1
		c-2.5,3.2-7.6,3.4-11.3,0.4c-3.8-2.9-4.8-7.9-2.3-11.1C36.9,71,41.9,70.8,45.7,73.7z"/>
	<g>
		
			<linearGradient id="SVGID_00000150088547550363678150000003747029358363817138_" gradientUnits="userSpaceOnUse" x1="9.2611" y1="55.4835" x2="9.2611" y2="29.5889" gradientTransform="matrix(1 0 0 -1 0 102)">
			<stop  offset="0" style="stop-color:#A2723B"/>
			<stop  offset="1" style="stop-color:#AC6E43"/>
		</linearGradient>
		<path style="fill:url(#SVGID_00000150088547550363678150000003747029358363817138_);" d="M6.4,72.8l-0.1-0.7
			c6.1-1,10.5-6.3,10.5-12.5c0-7-5.7-12.7-12.7-12.7c-1,0-1.9,0.1-2.9,0.3L1,46.5c1-0.2,2-0.3,3-0.3c7.4,0,13.4,6,13.4,13.4
			C17.5,66.1,12.8,71.7,6.4,72.8z"/>
	</g>
	
		<radialGradient id="SVGID_00000041259789872868158340000012808140841025218951_" cx="-165.6562" cy="316.4492" r="3.5716" gradientTransform="matrix(4.0761 6.6944 4.4057 -2.6825 -720.3317 2006.4735)" gradientUnits="userSpaceOnUse">
		<stop  offset="0" style="stop-color:#A98861"/>
		<stop  offset="1" style="stop-color:#B1724D"/>
	</radialGradient>
	<path style="fill:url(#SVGID_00000041259789872868158340000012808140841025218951_);" d="M0.1,47.1c1.3-0.4,2.6-0.6,4-0.6
		c7.2,0,13,5.8,13,13c0,6.8-5.2,12.3-11.8,13C1.9,65.8,0,58.1,0,50C0,49,0,48.1,0.1,47.1z"/>
	
		<radialGradient id="SVGID_00000129885766052540396440000007776722521490278034_" cx="-226.065" cy="240.5064" r="3.5716" gradientTransform="matrix(2.589 -4.2691 -3.9074 -2.3696 1528.2053 -333.4178)" gradientUnits="userSpaceOnUse">
		<stop  offset="0.6957" style="stop-color:#9C6544;stop-opacity:0"/>
		<stop  offset="1" style="stop-color:#9C6544"/>
	</radialGradient>
	<path style="fill:url(#SVGID_00000129885766052540396440000007776722521490278034_);" d="M0.1,47.1c1.3-0.4,2.6-0.6,4-0.6
		c7.2,0,13,5.8,13,13c0,6.8-5.2,12.3-11.8,13C1.9,65.8,0,58.1,0,50C0,49,0,48.1,0.1,47.1z"/>
	
		<radialGradient id="SVGID_00000042712204981257028290000003987021618024594618_" cx="-156.9411" cy="370.0422" r="3.5716" gradientTransform="matrix(3.086986e-16 5.0414 3.3178 -2.031585e-16 -1219.1768 845.7365)" gradientUnits="userSpaceOnUse">
		<stop  offset="0.8213" style="stop-color:#AF7D6F;stop-opacity:0"/>
		<stop  offset="1" style="stop-color:#AF7D6F"/>
	</radialGradient>
	<path style="fill:url(#SVGID_00000042712204981257028290000003987021618024594618_);" d="M0.1,47.1c1.3-0.4,2.6-0.6,4-0.6
		c7.2,0,13,5.8,13,13c0,6.8-5.2,12.3-11.8,13C1.9,65.8,0,58.1,0,50C0,49,0,48.1,0.1,47.1z"/>
	<g>
		
			<linearGradient id="SVGID_00000153699591203756944050000009965154476318048416_" gradientUnits="userSpaceOnUse" x1="45.5881" y1="89.4019" x2="57.1075" y2="89.4019" gradientTransform="matrix(1 0 0 -1 0 102)">
			<stop  offset="0" style="stop-color:#FFE27E"/>
			<stop  offset="1" style="stop-color:#F1B966"/>
		</linearGradient>
		<path style="fill:url(#SVGID_00000153699591203756944050000009965154476318048416_);" d="M48.2,22.1c-5.2,0-9.5-4.2-9.5-9.5
			s4.2-9.5,9.5-9.5s9.5,4.2,9.5,9.5S53.4,22.1,48.2,22.1z M48.2,4.2c-4.6,0-8.4,3.8-8.4,8.4s3.8,8.4,8.4,8.4s8.4-3.8,8.4-8.4
			S52.8,4.2,48.2,4.2z"/>
	</g>
	
		<linearGradient id="SVGID_00000154416967081924988580000012823013372552685957_" gradientUnits="userSpaceOnUse" x1="58.0374" y1="89.4017" x2="39.2708" y2="89.4017" gradientTransform="matrix(1 0 0 -1 0 102)">
		<stop  offset="0" style="stop-color:#FFC770"/>
		<stop  offset="1" style="stop-color:#FFDF81"/>
	</linearGradient>
	<path style="fill:url(#SVGID_00000154416967081924988580000012823013372552685957_);" d="M48.2,21.5c4.9,0,8.9-4,8.9-8.9
		c0-4.9-4-8.9-8.9-8.9s-8.9,4-8.9,8.9C39.3,17.5,43.3,21.5,48.2,21.5z"/>
	
		<radialGradient id="SVGID_00000052818790789324519120000014495996480337746588_" cx="-133.0432" cy="253.2731" r="3.5716" gradientTransform="matrix(3.2812 0 0 -3.9476 482.5312 1012.4318)" gradientUnits="userSpaceOnUse">
		<stop  offset="0.6" style="stop-color:#C59853;stop-opacity:0"/>
		<stop  offset="1" style="stop-color:#C59853"/>
	</radialGradient>
	<path style="fill:url(#SVGID_00000052818790789324519120000014495996480337746588_);" d="M48.2,21.5c4.9,0,8.9-4,8.9-8.9
		c0-4.9-4-8.9-8.9-8.9s-8.9,4-8.9,8.9C39.3,17.5,43.3,21.5,48.2,21.5z"/>
	
		<radialGradient id="SVGID_00000172436660070933826060000003361812157165145529_" cx="-253.8844" cy="363.0452" r="3.5716" gradientTransform="matrix(-4.9938 0 0 3.7844 -1210.7335 -1361.2953)" gradientUnits="userSpaceOnUse">
		<stop  offset="0.899" style="stop-color:#FFF4A4;stop-opacity:0"/>
		<stop  offset="1" style="stop-color:#FFF4A4"/>
	</radialGradient>
	<path style="fill:url(#SVGID_00000172436660070933826060000003361812157165145529_);" d="M48.2,21.5c4.9,0,8.9-4,8.9-8.9
		c0-4.9-4-8.9-8.9-8.9s-8.9,4-8.9,8.9C39.3,17.5,43.3,21.5,48.2,21.5z"/>
	<g>
		<path class="st30" d="M30.1,22.8c-4.9,0-8.9,4-8.9,8.9c0,1-0.8,1.8-1.8,1.8c-1,0-1.8-0.8-1.8-1.8c0-6.9,5.6-12.4,12.4-12.4
			c1,0,1.8,0.8,1.8,1.8C31.9,22,31.1,22.8,30.1,22.8z"/>
	</g>
	<g>
		<path class="st31" d="M31,21.7c-4.9,0-8.9,4-8.9,8.9c0,1-0.8,1.8-1.8,1.8c-1,0-1.8-0.8-1.8-1.8c0-6.9,5.6-12.4,12.4-12.4
			c1,0,1.8,0.8,1.8,1.8C32.8,20.9,32,21.7,31,21.7z"/>
	</g>
	<g>
		<path class="st32" d="M67.2,20.7c0-0.7,0.6-1.3,1.3-1.3c4.9,0,9.8,5.4,9.8,10.4c0,0.7-0.6,1.3-1.3,1.3s-1.3-0.6-1.3-1.3
			c0-3.5-3.7-7.8-7.3-7.8C67.8,22,67.2,21.4,67.2,20.7z"/>
		<path class="st33" d="M77.1,32.6c-1.5,0-2.7-1.2-2.7-2.7c0-1.3-0.7-3-1.9-4.3c-1.2-1.3-2.7-2.1-3.9-2.1c-1.5,0-2.7-1.2-2.7-2.7
			S67,18,68.5,18c2.7,0,5.6,1.4,7.8,3.8c2.2,2.4,3.4,5.3,3.4,8C79.8,31.3,78.6,32.6,77.1,32.6z M68.5,19.4c-0.7,0-1.3,0.6-1.3,1.3
			s0.6,1.3,1.3,1.3c1.7,0,3.5,0.9,5,2.6c1.4,1.6,2.3,3.5,2.3,5.2c0,0.7,0.6,1.3,1.3,1.3c0.7,0,1.3-0.6,1.3-1.3c0-2.4-1.1-5-3.1-7.1
			C73.3,20.7,70.8,19.4,68.5,19.4z"/>
	</g>
	<g>
		<path class="st31" d="M66.3,19.9c0-1,0.8-1.8,1.8-1.8c6.8,0,12.4,5.5,12.4,12.4c0,1-0.8,1.8-1.8,1.8c-1,0-1.8-0.8-1.8-1.8
			c0-4.9-4-8.9-8.9-8.9C67.1,21.7,66.3,20.9,66.3,19.9z"/>
	</g>
	<g>
		
			<linearGradient id="SVGID_00000039122082868080194320000001909581290059074193_" gradientUnits="userSpaceOnUse" x1="72.983" y1="67.8223" x2="61.1439" y2="65.7836" gradientTransform="matrix(1 0 0 -1 0 102)">
			<stop  offset="0" style="stop-color:#C06E3F"/>
			<stop  offset="1" style="stop-color:#9B672E"/>
		</linearGradient>
		<path style="fill-rule:evenodd;clip-rule:evenodd;fill:url(#SVGID_00000039122082868080194320000001909581290059074193_);" d="
			M64.2,35.2c-2.1,0-3.9,1.3-4.6,3.1c-0.5,1.4-2.1,2.1-3.5,1.5c-1.4-0.5-2.1-2.1-1.5-3.5c1.5-3.8,5.2-6.5,9.6-6.5
			c4.5,0,8.4,3,9.8,7.1c0.5,1.4-0.3,2.9-1.7,3.4c-1.4,0.5-2.9-0.3-3.4-1.7C68.2,36.6,66.3,35.2,64.2,35.2z"/>
	</g>
	
		<radialGradient id="SVGID_00000054262063959037724120000004620565407620742306_" cx="-383.0129" cy="214.3297" r="3.5716" gradientTransform="matrix(7.868294e-17 -1.285 -2.6908 -1.647634e-16 641.0992 -456.4453)" gradientUnits="userSpaceOnUse">
		<stop  offset="0" style="stop-color:#3E294C"/>
		<stop  offset="1" style="stop-color:#483C4E"/>
	</radialGradient>
	<path style="fill-rule:evenodd;clip-rule:evenodd;fill:url(#SVGID_00000054262063959037724120000004620565407620742306_);" d="
		M65,34.1c-2.1,0-3.9,1.3-4.6,3.1c-0.5,1.4-2.1,2.1-3.5,1.5c-1.4-0.5-2.1-2.1-1.5-3.5c1.5-3.8,5.2-6.5,9.6-6.5c4.5,0,8.4,3,9.8,7.1
		c0.5,1.4-0.3,2.9-1.7,3.4s-2.9-0.3-3.4-1.7C69.1,35.5,67.2,34.1,65,34.1z"/>
	<g>
		
			<linearGradient id="SVGID_00000151520985586068804690000015209261952636013728_" gradientUnits="userSpaceOnUse" x1="32.3609" y1="52.9074" x2="50.8796" y2="44.6123" gradientTransform="matrix(1 0 0 -1 0 102)">
			<stop  offset="0" style="stop-color:#B2673E"/>
			<stop  offset="1" style="stop-color:#BA6E47"/>
		</linearGradient>
		<path style="fill-rule:evenodd;clip-rule:evenodd;fill:url(#SVGID_00000151520985586068804690000015209261952636013728_);" d="
			M30,53.3c1-1,2.7-1,3.8,0c7.7,7.7,20.2,7.7,27.9,0c1-1,2.7-1,3.8,0s1,2.7,0,3.8c-9.8,9.8-25.7,9.8-35.5,0C29,56,29,54.3,30,53.3z"
			/>
	</g>
	
		<linearGradient id="SVGID_00000078747357357229446260000001891880375211689613_" gradientUnits="userSpaceOnUse" x1="49.5547" y1="45.517" x2="49.5547" y2="38.7052" gradientTransform="matrix(1 0 0 -1 0 102)">
		<stop  offset="0" style="stop-color:#4A393E"/>
		<stop  offset="1" style="stop-color:#391E47"/>
	</linearGradient>
	<path style="fill-rule:evenodd;clip-rule:evenodd;fill:url(#SVGID_00000078747357357229446260000001891880375211689613_);" d="
		M31.8,52.2c1-1,2.7-1,3.8,0c7.7,7.7,20.2,7.7,27.9,0c1-1,2.7-1,3.8,0s1,2.7,0,3.8c-9.8,9.8-25.7,9.8-35.5,0
		C30.8,54.9,30.8,53.2,31.8,52.2z"/>
	<g>
		
			<linearGradient id="SVGID_00000106112355830799811080000015456973633117947275_" gradientUnits="userSpaceOnUse" x1="72.1348" y1="62.7919" x2="62.8674" y2="68.1604" gradientTransform="matrix(1 0 0 -1 0 102)">
			<stop  offset="0.1849" style="stop-color:#564A62"/>
			<stop  offset="1" style="stop-color:#564A62;stop-opacity:0"/>
		</linearGradient>
		<path style="fill:url(#SVGID_00000106112355830799811080000015456973633117947275_);" d="M72.7,37.5c-0.5,0-0.9-0.4-0.9-0.9
			c0-1.7-2.2-4.8-7.4-4.8c-3.5,0-5.4,3-6,4.7c-0.2,0.5-0.7,0.7-1.1,0.6c-0.5-0.2-0.7-0.7-0.6-1.1c0.7-2,3.2-5.9,7.7-5.9
			c6.3,0,9.2,3.9,9.2,6.5C73.6,37.1,73.2,37.5,72.7,37.5z"/>
		
			<linearGradient id="SVGID_00000102538018711033261220000003823273955401712786_" gradientUnits="userSpaceOnUse" x1="60.0219" y1="61.191" x2="68.8089" y2="69.8151" gradientTransform="matrix(1 0 0 -1 0 102)">
			<stop  offset="0" style="stop-color:#5F4C6F"/>
			<stop  offset="1" style="stop-color:#5F4C6F;stop-opacity:0"/>
		</linearGradient>
		<path style="fill:url(#SVGID_00000102538018711033261220000003823273955401712786_);" d="M72.7,37.5c-0.5,0-0.9-0.4-0.9-0.9
			c0-1.7-2.2-4.8-7.4-4.8c-3.5,0-5.4,3-6,4.7c-0.2,0.5-0.7,0.7-1.1,0.6c-0.5-0.2-0.7-0.7-0.6-1.1c0.7-2,3.2-5.9,7.7-5.9
			c6.3,0,9.2,3.9,9.2,6.5C73.6,37.1,73.2,37.5,72.7,37.5z"/>
	</g>
	<g>
		
			<linearGradient id="SVGID_00000173879099810008289360000011138298995035525805_" gradientUnits="userSpaceOnUse" x1="39.9737" y1="47.7695" x2="55.8322" y2="44.6425" gradientTransform="matrix(1 0 0 -1 0 102)">
			<stop  offset="0" style="stop-color:#463E4C"/>
			<stop  offset="1" style="stop-color:#4F425A"/>
		</linearGradient>
		<path style="fill:url(#SVGID_00000173879099810008289360000011138298995035525805_);" d="M49.7,61.2c-9.4,0-14.6-4.6-16-6.1
			c-0.3-0.4-0.3-0.9,0-1.3c0.4-0.3,0.9-0.3,1.3,0c1.3,1.3,6,5.5,14.7,5.5c8.1,0,13.9-4,14.9-5.4c0.3-0.4,0.9-0.5,1.3-0.2
			c0.4,0.3,0.5,0.9,0.2,1.3C64.5,57.2,58,61.2,49.7,61.2z"/>
	</g>
	<g>
		
			<linearGradient id="SVGID_00000167356288348456393940000000753676103137186203_" gradientUnits="userSpaceOnUse" x1="68.9655" y1="80.6969" x2="77.8284" y2="75.3548" gradientTransform="matrix(1 0 0 -1 0 102)">
			<stop  offset="0" style="stop-color:#594C63"/>
			<stop  offset="1" style="stop-color:#594C63;stop-opacity:0"/>
		</linearGradient>
		<path style="fill:url(#SVGID_00000167356288348456393940000000753676103137186203_);" d="M79,31c-0.2,0-0.4-0.2-0.4-0.4
			c-0.3-7.6-5.4-10.3-10.1-10.3c-0.2,0-0.4-0.2-0.4-0.4s0.2-0.4,0.4-0.4c5.1,0,10.6,2.9,11,11.2C79.4,30.7,79.2,30.9,79,31
			C79,31,79,31,79,31z"/>
		
			<linearGradient id="SVGID_00000138549730709598423750000007161050746183026819_" gradientUnits="userSpaceOnUse" x1="73.9776" y1="71.2643" x2="73.6133" y2="78.2451" gradientTransform="matrix(1 0 0 -1 0 102)">
			<stop  offset="0" style="stop-color:#594C63"/>
			<stop  offset="1" style="stop-color:#594C63;stop-opacity:0"/>
		</linearGradient>
		<path style="fill:url(#SVGID_00000138549730709598423750000007161050746183026819_);" d="M79,31c-0.2,0-0.4-0.2-0.4-0.4
			c-0.3-7.6-5.4-10.3-10.1-10.3c-0.2,0-0.4-0.2-0.4-0.4s0.2-0.4,0.4-0.4c5.1,0,10.6,2.9,11,11.2C79.4,30.7,79.2,30.9,79,31
			C79,31,79,31,79,31z"/>
	</g>
	<g>
		
			<linearGradient id="SVGID_00000031905351354063103870000000517111796518306744_" gradientUnits="userSpaceOnUse" x1="32.6684" y1="80.3446" x2="25.202" y2="77.1577" gradientTransform="matrix(1 0 0 -1 0 102)">
			<stop  offset="0" style="stop-color:#594C63"/>
			<stop  offset="1" style="stop-color:#594C63;stop-opacity:0"/>
		</linearGradient>
		<path style="fill:url(#SVGID_00000031905351354063103870000000517111796518306744_);" d="M20.5,31C20.5,31,20.5,31,20.5,31
			c-0.3,0-0.5-0.2-0.4-0.5c0.4-8.3,5.9-11.2,11-11.2c0.2,0,0.4,0.2,0.4,0.4s-0.2,0.4-0.4,0.4c-4.6,0-9.7,2.7-10.1,10.3
			C20.9,30.8,20.7,31,20.5,31z"/>
		
			<linearGradient id="SVGID_00000005949430317543577360000010518430800574883476_" gradientUnits="userSpaceOnUse" x1="22.3266" y1="70.9076" x2="26.3549" y2="79.4665" gradientTransform="matrix(1 0 0 -1 0 102)">
			<stop  offset="0" style="stop-color:#594C63"/>
			<stop  offset="1" style="stop-color:#594C63;stop-opacity:0"/>
		</linearGradient>
		<path style="fill:url(#SVGID_00000005949430317543577360000010518430800574883476_);" d="M20.5,31C20.5,31,20.5,31,20.5,31
			c-0.3,0-0.5-0.2-0.4-0.5c0.4-8.3,5.9-11.2,11-11.2c0.2,0,0.4,0.2,0.4,0.4s-0.2,0.4-0.4,0.4c-4.6,0-9.7,2.7-10.1,10.3
			C20.9,30.8,20.7,31,20.5,31z"/>
	</g>
	<g>
		
			<linearGradient id="SVGID_00000086659898966382420000000013387118460409397130_" gradientUnits="userSpaceOnUse" x1="24.5198" y1="34.0989" x2="42.9659" y2="34.0989">
			<stop  offset="0" style="stop-color:#C06E3F"/>
			<stop  offset="1" style="stop-color:#9B672E"/>
		</linearGradient>
		<path style="fill:url(#SVGID_00000086659898966382420000000013387118460409397130_);" d="M40.8,41.7c1.3-1.6,2.1-3.7,2.1-5.9
			c0-5.1-4.1-9.2-9.2-9.2c-5.1,0-9.2,4.1-9.2,9.2c0,2.2,0.8,4.3,2.1,5.9c1.7-0.8,4.2-1.8,7.1-1.8C36.6,39.9,39.1,40.8,40.8,41.7z"/>
		<path class="st46" d="M42.7,40.2c1.3-1.6,2.1-3.7,2.1-5.9c0-5.1-4.1-9.2-9.2-9.2c-5.1,0-9.2,4.1-9.2,9.2c0,2.2,0.8,4.3,2.1,5.9
			c1.7-0.8,4.2-1.8,7.1-1.8C38.5,38.4,41,39.4,42.7,40.2z"/>
		
			<linearGradient id="SVGID_00000158029117200465512390000007921503558413968551_" gradientUnits="userSpaceOnUse" x1="39.6011" y1="73.5396" x2="35.7071" y2="64.5027" gradientTransform="matrix(1 0 0 -1 0 102)">
			<stop  offset="0" style="stop-color:#553B3E"/>
			<stop  offset="1" style="stop-color:#3D2432"/>
		</linearGradient>
		<path style="fill:url(#SVGID_00000158029117200465512390000007921503558413968551_);" d="M41.1,39.5c1-1.1,1.6-2.6,1.6-4.2
			c0-3.4-2.8-6.1-6.1-6.1c-3.4,0-6.1,2.8-6.1,6.1c0,1.4,0.4,2.6,1.2,3.6c1.2-0.3,2.5-0.6,3.9-0.6C37.7,38.4,39.6,38.9,41.1,39.5z"/>
	</g>
</g>
</svg>
